<svg width="204" height="72" viewBox="0 0 204 72" fill="none" xmlns="http://www.w3.org/2000/svg">
<g clip-path="url(#clip0_15_322)">
<path d="M202.002 40.5378C201.684 40.5633 201.688 40.6234 201.37 40.6489C201.052 40.6744 201.048 40.6236 200.729 40.6491C200.411 40.6746 200.42 40.7855 200.102 40.8092C199.784 40.8329 199.784 40.844 199.466 40.8678C199.148 40.8915 199.14 40.7974 198.823 40.8211C198.505 40.8448 198.509 40.8974 198.191 40.9211C197.848 40.946 197.866 40.8435 197.47 40.8868C197.306 40.8986 197.142 40.9086 196.979 40.9207C196.59 40.932 196.621 41.0431 196.281 41.0648C195.962 41.0864 195.959 41.008 195.64 41.0278C195.323 41.0479 195.324 41.074 195.005 41.0938C194.686 41.1136 194.686 41.1007 194.367 41.1187C194.048 41.1367 194.053 41.1857 193.734 41.2037C193.415 41.2216 193.417 41.2367 193.098 41.2547C192.779 41.2727 192.779 41.2429 192.46 41.2609C192.141 41.2789 192.139 41.2377 191.823 41.2542C191.504 41.2704 191.508 41.3248 191.189 41.3428C190.87 41.359 190.865 41.2616 190.549 41.2781C190.23 41.2943 190.232 41.3559 189.916 41.3724C189.598 41.3868 189.598 41.3962 189.28 41.4123C188.961 41.4267 188.959 41.3856 188.641 41.4C188.323 41.4144 188.329 41.5286 188.009 41.5426C187.691 41.5552 187.688 41.4915 187.37 41.5059C187.052 41.5185 187.049 41.4716 186.733 41.4845C186.415 41.4971 186.419 41.5795 186.1 41.5917C185.782 41.6025 185.78 41.5427 185.462 41.5535C185.145 41.5643 185.147 41.6352 184.83 41.646C184.512 41.6568 184.511 41.6436 184.193 41.6544C183.876 41.6652 183.872 41.5699 183.555 41.5789C183.238 41.5879 183.236 41.608 182.919 41.6152C182.6 41.6239 182.602 41.6482 182.283 41.6569C181.964 41.6656 181.964 41.6247 181.645 41.6316C181.328 41.6388 181.33 41.7635 181.012 41.7704C180.693 41.7772 180.692 41.6898 180.373 41.6967C180.054 41.7036 180.055 41.7631 179.739 41.7685C179.42 41.7735 179.419 41.6639 179.101 41.669C178.782 41.6741 178.783 41.7335 178.465 41.7386C178.147 41.7437 178.147 41.7215 177.829 41.7247C177.511 41.728 177.511 41.7596 177.193 41.7628C176.875 41.7661 176.876 41.7923 176.558 41.7955C176.24 41.7988 176.241 41.8454 175.923 41.8469C175.605 41.8502 175.606 41.8372 175.288 41.8405C174.97 41.842 174.97 41.8216 174.652 41.8231C174.334 41.8245 174.333 41.7482 174.015 41.7497C173.698 41.7512 173.698 41.8347 173.38 41.8344C173.063 41.8341 173.063 41.6986 172.745 41.6983C172.428 41.698 172.427 41.8091 172.11 41.807C171.792 41.8067 171.793 41.6973 171.474 41.6949C171.157 41.6928 171.156 41.7408 170.839 41.7387C170.522 41.7366 170.522 41.6921 170.204 41.6879C169.887 41.6858 169.886 41.7858 169.567 41.7816C169.249 41.7773 169.249 41.7107 168.933 41.7067C168.616 41.7028 168.616 41.7157 168.297 41.7115C167.978 41.7073 167.98 41.7205 167.661 41.7163C167.343 41.7102 167.343 41.7844 167.025 41.7802C166.706 41.7742 166.708 41.6669 166.392 41.6612C166.076 41.6555 166.073 41.7627 165.756 41.7549C165.438 41.7471 165.437 41.7711 165.121 41.7636C164.803 41.7557 164.806 41.6783 164.488 41.6704C164.159 41.6625 164.173 41.5686 163.819 41.5655C163.621 41.5641 163.421 41.5566 163.222 41.5512C162.903 41.5412 162.9 41.628 162.583 41.6184C162.265 41.6087 162.266 41.594 161.948 41.5844C161.631 41.5748 161.631 41.6285 161.312 41.6168C160.994 41.6054 160.998 41.4762 160.681 41.4648C160.364 41.4534 160.359 41.6083 160.042 41.5969C159.724 41.5855 159.727 41.5266 159.41 41.5152C159.093 41.502 159.095 41.4356 158.778 41.4224C158.461 41.4091 158.462 41.4073 158.145 41.3923C157.828 41.3791 157.826 41.4548 157.507 41.4412C157.19 41.428 157.192 41.4079 156.875 41.3928C156.559 41.3778 156.56 41.3502 156.243 41.3352C155.927 41.3201 155.927 41.3183 155.611 41.3015C155.294 41.2847 155.293 41.2994 154.975 41.2841C154.659 41.2672 154.657 41.3078 154.339 41.2924C154.022 41.2756 154.025 41.2408 153.707 41.2236C153.391 41.205 153.391 41.2161 153.073 41.1972C152.757 41.1785 152.754 41.2281 152.438 41.2094C152.227 41.197 152.016 41.1846 151.806 41.1722C151.49 41.1536 151.49 41.1277 151.174 41.1091C150.859 41.0887 150.86 41.0722 150.542 41.0514C150.225 41.0307 150.226 41.0439 149.909 41.0232C149.593 41.0028 149.589 41.0484 149.273 41.0261C148.958 41.0039 148.959 40.9781 148.643 40.9577C148.328 40.9355 148.33 40.8895 148.015 40.8673C147.699 40.8451 147.704 40.7754 147.387 40.7529C147.07 40.7286 147.062 40.8606 146.745 40.8363C146.43 40.8123 146.432 40.7757 146.116 40.7513C145.799 40.727 145.798 40.7435 145.483 40.7177C145.166 40.6915 145.164 40.7374 144.847 40.7131C144.53 40.687 144.543 40.5333 144.228 40.5057C143.912 40.4795 143.904 40.5654 143.589 40.5395C143.273 40.5134 143.281 40.4369 142.964 40.4108C142.65 40.3831 142.64 40.4927 142.323 40.4647C142.007 40.4368 142.01 40.4224 141.693 40.3945C141.377 40.3665 141.388 40.2516 141.074 40.224C140.758 40.1942 140.758 40.2017 140.442 40.172C140.126 40.1423 140.123 40.1807 139.808 40.1492C139.492 40.1194 139.482 40.2289 139.168 40.1995C138.957 40.1785 138.748 40.1576 138.538 40.1368C138.223 40.1052 138.237 39.963 137.923 39.93C137.609 39.8988 137.606 39.9279 137.291 39.8963C136.975 39.863 136.967 39.9431 136.653 39.9119C136.338 39.8786 136.341 39.8365 136.028 39.8035C135.713 39.7702 135.705 39.8449 135.39 39.8098C135.075 39.7764 135.09 39.6492 134.774 39.6159C134.459 39.5808 134.458 39.6009 134.143 39.5657C133.828 39.5306 133.827 39.5378 133.512 39.5027C133.197 39.4675 133.199 39.442 132.884 39.4069C132.57 39.37 132.573 39.352 132.258 39.3168C131.943 39.2799 131.942 39.2982 131.627 39.2613C131.313 39.2243 131.3 39.3296 130.987 39.2912C130.673 39.2525 130.684 39.1673 130.37 39.1286C130.055 39.0898 130.041 39.2023 129.729 39.1639C129.414 39.1252 129.432 38.98 129.118 38.9413C128.804 38.9007 128.796 38.9679 128.482 38.9292C128.168 38.8887 128.174 38.8416 127.86 38.801C127.546 38.7605 127.539 38.8112 127.227 38.771C126.913 38.7305 126.91 38.756 126.596 38.7136C126.283 38.6713 126.28 38.6857 125.968 38.6437C125.655 38.6013 125.659 38.565 125.345 38.5227C125.032 38.4804 125.026 38.5239 124.712 38.4816C124.399 38.4374 124.408 38.3723 124.095 38.3282C123.782 38.2841 123.787 38.2517 123.472 38.2055C123.159 38.1613 123.154 38.1901 122.842 38.1463C122.529 38.1004 122.526 38.1184 122.213 38.0724C121.9 38.0265 121.9 38.0283 121.587 37.9824C121.274 37.9365 121.282 37.8768 120.969 37.8308C120.656 37.7849 120.641 37.8842 120.328 37.8364C120.015 37.7887 120.025 37.7236 119.712 37.6759C119.399 37.6282 119.406 37.5793 119.093 37.5298C118.781 37.4802 118.765 37.5795 118.453 37.53C118.141 37.4805 118.139 37.4876 117.827 37.4381C117.513 37.3883 117.512 37.403 117.199 37.3535C116.887 37.3021 116.883 37.3273 116.571 37.276C116.259 37.2247 116.273 37.1308 115.961 37.0795C115.649 37.0282 115.658 36.976 115.346 36.9247C115.034 36.8733 115.016 36.9741 114.706 36.9213C114.395 36.8682 114.402 36.8286 114.09 36.7755C113.78 36.7227 113.79 36.6522 113.479 36.5973C113.167 36.5423 113.163 36.5675 112.851 36.5144C112.54 36.4595 112.523 36.553 112.212 36.4981C111.9 36.4432 111.915 36.3604 111.603 36.3055C111.292 36.2506 111.294 36.238 110.983 36.1813C110.673 36.1267 110.65 36.2469 110.339 36.1901C110.028 36.1352 110.039 36.0705 109.728 36.0137C109.418 35.9591 109.406 36.0146 109.095 35.9579C108.784 35.9011 108.792 35.858 108.481 35.7995C108.17 35.7409 108.19 35.6387 107.879 35.5802C107.568 35.5217 107.564 35.5469 107.253 35.4883C106.942 35.4298 106.927 35.5144 106.615 35.4537C106.304 35.3934 106.295 35.4363 105.986 35.3763C105.676 35.3159 105.676 35.3123 105.366 35.2502C105.056 35.1899 105.081 35.0553 104.773 34.9935C104.463 34.9314 104.461 34.9404 104.151 34.8783C103.841 34.8162 103.837 34.8341 103.527 34.772C103.217 34.7099 103.206 34.76 102.896 34.696C102.586 34.6321 102.575 34.684 102.266 34.6201C101.956 34.5561 101.974 34.4629 101.664 34.399C101.354 34.3351 101.355 34.3315 101.045 34.2658C100.736 34.2001 100.744 34.1626 100.435 34.0969C100.125 34.0312 100.121 34.0528 99.8116 33.987C99.5021 33.9213 99.4791 34.0304 99.1695 33.9647C98.8603 33.8972 98.8863 33.7812 98.577 33.7137C98.2678 33.6462 98.2609 33.6747 97.9535 33.6075C97.6442 33.5399 97.642 33.5525 97.3324 33.4868C97.0231 33.4193 97.0049 33.5014 96.696 33.4321C96.387 33.3628 96.4128 33.2486 96.1038 33.1793C95.7949 33.11 95.7864 33.1475 95.4793 33.0785C95.1722 33.0095 95.1654 33.0268 94.8586 32.956C94.5499 32.8849 94.5568 32.8564 94.2482 32.7853C93.9396 32.7142 93.9176 32.8068 93.609 32.7357C93.3004 32.6646 93.317 32.5915 93.0105 32.5189C92.7022 32.446 92.7166 32.3854 92.4083 32.3125C92.1 32.2396 92.0941 32.2627 91.7858 32.1898C91.4775 32.1169 91.4818 32.1028 91.1738 32.0281C90.8655 31.9552 90.8396 32.06 90.5313 31.9871C90.2233 31.9124 90.2273 31.9001 89.9193 31.8254C89.6113 31.7507 89.6385 31.6387 89.3305 31.564C89.0226 31.4892 89.0125 31.5357 88.7045 31.461C88.3968 31.3845 88.3781 31.4591 88.0722 31.3829C87.7645 31.3064 87.7649 31.3046 87.4593 31.2266C87.1516 31.1501 87.1488 31.1663 86.8414 31.088C86.5341 31.0097 86.5697 30.8713 86.2641 30.7933C85.9568 30.715 85.9443 30.7647 85.6387 30.6867C85.3314 30.6084 85.3314 30.6084 85.0258 30.5304C84.7188 30.4503 84.7297 30.4096 84.4245 30.3298C84.1175 30.2497 84.1168 30.2533 83.8116 30.1735C83.5046 30.0934 83.4736 30.2159 83.1666 30.1358C82.8617 30.0542 82.8801 29.9814 82.5734 29.8995C82.2685 29.8179 82.2747 29.7931 81.968 29.7112C81.6631 29.6296 81.6666 29.6098 81.3617 29.5282C81.0568 29.4466 81.0191 29.5754 80.7142 29.4938C80.4078 29.4101 80.4246 29.3574 80.1182 29.2737C79.8118 29.19 79.8295 29.1319 79.5234 29.0464C79.2188 28.963 79.2201 28.9558 78.9137 28.8721C78.6094 28.7869 78.5891 28.8594 78.283 28.7739C77.9788 28.6887 77.9807 28.6779 77.6764 28.5927C77.3721 28.5076 77.3943 28.4243 77.09 28.3391C76.7857 28.2539 76.7537 28.3614 76.4494 28.2762C76.1436 28.1889 76.1514 28.1662 75.8474 28.0792C75.5435 27.9922 75.5584 27.9392 75.2548 27.8504C74.9511 27.7617 74.9344 27.8143 74.6307 27.7256C74.3271 27.6368 74.3246 27.6401 74.021 27.5513C73.7174 27.4625 73.713 27.4766 73.4094 27.3878C73.1057 27.299 73.1374 27.1933 72.8341 27.1027C72.5308 27.0121 72.5162 27.0634 72.211 26.9725C71.9077 26.8819 71.8776 26.9786 71.5743 26.888C71.2709 26.7974 71.2856 26.7462 70.9826 26.6538C70.6796 26.5615 70.7075 26.4662 70.4064 26.3742C70.1033 26.2818 70.1046 26.2746 69.8034 26.1825C69.5004 26.0902 69.4874 26.1324 69.1847 26.0382C68.9829 25.9754 68.7811 25.9126 68.5793 25.8498C68.2766 25.7557 68.2505 25.8401 67.9481 25.7441C67.6455 25.6499 67.6666 25.5832 67.3639 25.489C67.0615 25.393 67.0354 25.4774 66.7327 25.3833C66.4303 25.2873 66.4418 25.2541 66.1394 25.1581C65.8371 25.0621 65.8622 24.9831 65.5598 24.8871C65.2578 24.7893 65.2376 24.8507 64.9352 24.7547C64.7339 24.6895 64.5325 24.6244 64.3311 24.5592C64.0291 24.4614 64.0446 24.4159 63.7428 24.3163C63.4408 24.2185 63.4398 24.2239 63.1381 24.1244C62.8363 24.0248 62.8249 24.058 62.5246 23.9606C62.2229 23.861 62.2334 23.8332 61.9317 23.7336C61.6317 23.6343 61.6141 23.6813 61.3142 23.5821C61.0146 23.481 61.0115 23.4879 60.7101 23.3865C60.4087 23.2851 60.3969 23.3201 60.0973 23.2191C59.7959 23.1177 59.837 23.0007 59.5356 22.8993C59.2345 22.7962 59.2286 22.8192 58.9271 22.7179C58.626 22.6147 58.6102 22.662 58.3109 22.5591C58.0116 22.4563 58.0392 22.374 57.7399 22.2711C57.441 22.1665 57.4007 22.2781 57.1018 22.1734C56.801 22.0684 56.8139 22.0373 56.5131 21.9324C56.2142 21.8277 56.2111 21.8346 55.9121 21.7299C55.6135 21.6235 55.6351 21.5642 55.3346 21.4575C55.036 21.351 55.0437 21.3283 54.7451 21.2218C54.4464 21.1154 54.439 21.1363 54.1403 21.0299C53.8417 20.9234 53.8497 20.8989 53.5511 20.7924C53.2527 20.6842 53.2122 20.7976 52.9138 20.6893C52.6155 20.5811 52.6226 20.5619 52.3243 20.4537C52.0259 20.3454 52.0469 20.2898 51.7489 20.1797C51.4509 20.0697 51.4614 20.0419 51.1634 19.9318C50.8654 19.8218 50.8375 19.8948 50.5395 19.7847C50.2415 19.6747 50.2548 19.6418 49.9567 19.5317C49.659 19.4199 49.6275 19.5034 49.3298 19.3915C49.0339 19.28 49.0732 19.1738 48.7755 19.0619C48.4796 18.9504 48.4775 18.9519 48.1801 18.8382C47.8827 18.7246 47.8854 18.7195 47.5877 18.6076C47.2903 18.494 47.3005 18.468 47.0049 18.3546C46.7094 18.2413 46.6828 18.3071 46.3858 18.1917C46.0884 18.078 46.0853 18.0849 45.79 17.9698C45.4929 17.8543 45.53 17.7607 45.2347 17.6456C44.9395 17.5305 44.8922 17.6501 44.5955 17.5329C44.3002 17.4177 44.3114 17.3863 44.0164 17.2694C43.7215 17.1525 43.7258 17.1384 43.4309 17.0215C43.1359 16.9046 43.1267 16.9252 42.8317 16.8083C42.5368 16.6913 42.5201 16.7329 42.2234 16.6157C41.9284 16.4987 41.9355 16.4796 41.6406 16.3627C41.346 16.2439 41.3895 16.1348 41.0949 16.016C40.8002 15.8973 40.7506 16.0202 40.4544 15.8994C40.1601 15.7789 40.1632 15.772 39.8689 15.6515C39.5746 15.531 39.5943 15.4825 39.3 15.362C39.0057 15.2415 38.9931 15.2708 38.6991 15.1484C38.4051 15.0261 38.443 14.9382 38.149 14.8159C37.855 14.6936 37.8134 14.792 37.5194 14.6696C37.2254 14.5473 37.2343 14.5285 36.9407 14.4044C36.6467 14.282 36.679 14.2043 36.3872 14.0805C36.0935 13.9564 36.0362 14.0909 35.7443 13.9671C35.4506 13.843 35.4885 13.7551 35.197 13.6295C34.9051 13.5057 34.8962 13.5245 34.6028 13.3986C34.3113 13.273 34.2839 13.3331 33.9923 13.2075C33.699 13.0816 33.7325 13.0077 33.4392 12.8818C33.1476 12.7562 33.1667 12.7114 32.8734 12.5854C32.5818 12.4598 32.5316 12.5753 32.2386 12.4475C31.9473 12.3201 31.9846 12.2358 31.6934 12.1084C31.4022 11.981 31.409 11.9637 31.1177 11.8363C30.8265 11.7089 30.8357 11.6883 30.5448 11.5591C30.2539 11.4299 30.2604 11.4143 29.9695 11.2851C29.6786 11.1559 29.6265 11.271 29.3356 11.1418C29.045 11.0108 29.0456 11.0072 28.755 10.8762C28.4644 10.7452 28.4494 10.7778 28.1588 10.6468C27.8682 10.5158 27.9171 10.4076 27.6287 10.2751C27.3399 10.1445 27.3257 10.1716 27.0355 10.0388C26.7452 9.90604 26.7147 9.97301 26.4244 9.84021C26.1342 9.70742 26.1458 9.68351 25.8559 9.54892C25.5656 9.41612 25.5807 9.38354 25.2925 9.24926C25.0044 9.11499 25.0259 9.06686 24.736 8.93226C24.446 8.79767 24.4457 8.79947 24.1575 8.66519C23.8676 8.5306 23.8642 8.53927 23.576 8.405C23.2864 8.26861 23.3036 8.23455 23.0158 8.09847C22.7279 7.9624 22.7135 7.99138 22.4257 7.85531C22.1378 7.71924 22.1415 7.70876 21.8537 7.57269C21.5659 7.43661 21.5745 7.41958 21.287 7.28171C20.9994 7.14384 20.9616 7.22064 20.6741 7.08276C20.3866 6.94489 20.4103 6.89528 20.1228 6.75741C19.8356 6.61774 19.8503 6.58695 19.5628 6.44908C19.2756 6.30941 19.2519 6.35902 18.9647 6.21935C18.6775 6.07968 18.6301 6.1789 18.3433 6.03743C18.0564 5.89596 18.1249 5.76152 17.8377 5.62185C17.5508 5.48038 17.4986 5.58616 17.2117 5.44469C16.9266 5.30354 16.9162 5.32025 16.6311 5.1791C16.3461 5.03795 16.3418 5.04091 16.057 4.89796C15.7723 4.75501 15.7871 4.72422 15.5023 4.58127C15.2175 4.43832 15.204 4.46191 14.9196 4.31716C14.6349 4.17421 14.6779 4.08906 14.3934 3.94431C14.109 3.79956 14.0553 3.90323 13.7708 3.75848C13.4864 3.61373 13.4925 3.59998 13.2084 3.45343C12.924 3.30868 12.967 3.22353 12.6829 3.07698C12.3984 2.93223 12.3788 2.96957 12.0947 2.82302C11.8106 2.67648 11.8468 2.60867 11.5627 2.46213C11.2785 2.31558 11.2313 2.40369 10.9468 2.25894C10.6627 2.11239 10.671 2.09716 10.3872 1.94882C10.1034 1.80047 10.1003 1.80735 9.81619 1.6608C9.53239 1.51245 9.56586 1.44973 9.28418 1.2999C9.00038 1.15155 8.95278 1.24147 8.66898 1.09312C8.38549 0.942974 8.44903 0.826196 8.16555 0.676051C7.88387 0.526225 7.86209 0.565045 7.5786 0.4149C7.55484 0.401435 6.94549 0.108511 6.92503 0.0974834C6.69644 0.39846 6.46988 0.709069 6.24514 1.02C6.31758 1.03277 7.10746 1.4243 7.22693 1.48803C7.51042 1.63817 7.49692 1.66176 7.78222 1.81222C8.06571 1.96237 8.07952 1.93698 8.363 2.08713C8.64649 2.23727 8.61515 2.29852 8.89863 2.44867C9.18244 2.59701 9.14249 2.67529 9.42598 2.82543C9.70978 2.97378 9.73741 2.92301 10.023 3.07167C10.3086 3.22034 10.3517 3.13518 10.6376 3.28205C10.9217 3.4286 10.8787 3.51375 11.1646 3.66062C11.4487 3.80717 11.4512 3.80389 11.7371 3.95076C12.023 4.09762 12.0464 4.04981 12.3323 4.19668C12.6183 4.34354 12.6158 4.34682 12.9021 4.49189C13.1883 4.63696 13.2024 4.60977 13.4887 4.75484C13.7749 4.89991 13.755 4.93905 14.0412 5.08411C14.3275 5.22918 14.3281 5.22558 14.6147 5.36885C14.9012 5.51212 14.8644 5.58352 15.1531 5.72531C15.4396 5.86858 15.4965 5.75804 15.783 5.90131C16.0714 6.0449 16.0376 6.10942 16.3242 6.25269C16.6111 6.39416 16.596 6.42674 16.8829 6.56822C17.1697 6.70969 17.1605 6.73031 17.4474 6.87178C17.7361 7.01357 17.7318 7.01653 18.0208 7.15652C18.308 7.29619 18.3332 7.2487 18.6201 7.39017C18.9091 7.53016 18.9242 7.49758 19.2132 7.63757C19.5004 7.77724 19.4558 7.87139 19.7451 8.00958C20.0344 8.14777 20.0609 8.09308 20.3502 8.23127C20.6377 8.36915 20.6691 8.3079 20.9584 8.44609C21.2477 8.58428 21.1982 8.68499 21.4876 8.82318C21.7754 8.95925 21.815 8.88277 22.1025 9.02065C22.3922 9.15704 22.3482 9.24759 22.6378 9.38398C22.9275 9.52038 22.9635 9.44326 23.2531 9.57965C23.5428 9.71604 23.5246 9.7555 23.8146 9.8901C24.1045 10.0247 24.1396 9.95297 24.4296 10.0876C24.7195 10.2222 24.7075 10.2479 24.9975 10.3825C25.2874 10.5171 25.2696 10.5547 25.5599 10.6875C25.8502 10.8203 25.8523 10.8188 26.1426 10.9516C26.4328 11.0844 26.4473 11.0554 26.7376 11.1882C27.0279 11.321 27.0245 11.3297 27.3147 11.4625C27.6071 11.5938 27.6263 11.5489 27.9187 11.6803C28.2093 11.8113 28.1686 11.9042 28.4595 12.0334C28.7519 12.1648 28.7461 12.1767 29.0367 12.3077C29.3273 12.4387 29.3232 12.451 29.6141 12.5802C29.9069 12.7097 29.942 12.6269 30.2365 12.7567C30.5293 12.8862 30.5207 12.9032 30.8134 13.0328C31.1061 13.1623 31.1311 13.1055 31.4241 13.2332C31.7172 13.3609 31.6805 13.4416 31.9736 13.5693C32.2666 13.6971 32.2604 13.7108 32.5535 13.8385C32.8465 13.9662 32.8373 13.9869 33.1306 14.1128C33.424 14.2387 33.4791 14.1167 33.7707 14.2423C34.064 14.3683 34.0541 14.3925 34.3475 14.5184C34.6409 14.6443 34.6218 14.6892 34.9151 14.8151C35.2088 14.9392 35.2412 14.8615 35.5367 14.9859C35.8303 15.11 35.8143 15.148 36.108 15.2721C36.4016 15.3962 36.417 15.3619 36.7107 15.486C37.0062 15.6104 36.984 15.6621 37.278 15.7845C37.572 15.9068 37.5643 15.9295 37.8583 16.0519C38.1541 16.1745 38.1584 16.1604 38.4545 16.2813C38.7485 16.4036 38.742 16.4191 39.0382 16.54C39.3343 16.6608 39.3247 16.6832 39.619 16.8038C39.9152 16.9246 39.9124 16.9297 40.2085 17.0505C40.505 17.1696 40.4982 17.1869 40.7928 17.3056C41.0874 17.4244 41.0933 17.4124 41.3897 17.5315C41.6861 17.6505 41.7185 17.5727 42.0135 17.6897C42.3099 17.8087 42.3071 17.8138 42.6039 17.931C42.9006 18.0483 42.8976 18.0552 43.194 18.1742C43.4908 18.2914 43.4645 18.3554 43.7613 18.4727C44.0581 18.5899 44.0862 18.5151 44.3851 18.6309C44.6821 18.7463 44.6451 18.84 44.9422 18.9554C45.2392 19.0709 45.2565 19.0257 45.5536 19.1411C45.8507 19.2566 45.885 19.168 46.1824 19.2817C46.4794 19.3971 46.4729 19.4127 46.7703 19.5263C47.0677 19.64 47.0603 19.6609 47.3577 19.7746C47.6551 19.8882 47.63 19.9561 47.9274 20.0698C48.2248 20.1834 48.2415 20.1418 48.5392 20.2537C48.8369 20.3655 48.8156 20.423 49.1133 20.5348C49.4128 20.647 49.4113 20.6449 49.7108 20.757C50.0085 20.8689 50.0607 20.7316 50.3588 20.8416C50.6568 20.9517 50.6067 21.0875 50.9047 21.1976C51.2027 21.3076 51.2225 21.2592 51.5205 21.3692C51.8204 21.4796 51.8284 21.455 52.1264 21.5651C52.4266 21.6736 52.3941 21.7625 52.6925 21.8708C52.9926 21.9793 53.0075 21.9374 53.3076 22.046C53.6078 22.1546 53.6192 22.1214 53.9197 22.2281C54.2202 22.3349 54.1945 22.4064 54.4928 22.5147C54.7933 22.6214 54.8038 22.5936 55.1028 22.6983C55.4033 22.805 55.4144 22.7736 55.7152 22.8786C56.016 22.9835 56.024 22.959 56.3248 23.064C56.6256 23.1689 56.599 23.2459 56.8979 23.3505C57.1987 23.4555 57.2145 23.4082 57.5153 23.5132C57.8161 23.6181 57.8471 23.5271 58.1482 23.6303C58.4493 23.7335 58.4227 23.8104 58.7238 23.9136C59.0249 24.0168 59.045 23.9554 59.3479 24.0589C59.6494 24.1603 59.6447 24.1761 59.9461 24.2775C60.2475 24.3789 60.2119 24.4857 60.5133 24.5871C60.8147 24.6885 60.8302 24.643 61.1317 24.7444C61.4331 24.8457 61.4665 24.7515 61.7682 24.851C62.07 24.9506 62.0331 25.0647 62.3345 25.166C62.6362 25.2656 62.6322 25.2779 62.9357 25.3778C63.2375 25.4774 63.2722 25.3759 63.5739 25.4755C63.876 25.5732 63.8747 25.5804 64.1764 25.68C64.4785 25.7778 64.4779 25.7814 64.7799 25.8792C65.082 25.9769 65.0488 26.0805 65.3508 26.1783C65.6532 26.2743 65.6979 26.1375 65.9999 26.2352C66.3041 26.3315 66.2601 26.4647 66.5643 26.561C66.8666 26.657 66.866 26.6606 67.1684 26.7566C67.4707 26.8526 67.498 26.7721 67.8004 26.868C68.1049 26.9625 68.1018 26.9694 68.4045 27.0636C68.7072 27.1578 68.7012 27.1808 69.0039 27.275C69.3066 27.3692 69.3134 27.3518 69.6161 27.446C69.9191 27.5384 69.8992 27.6091 70.2022 27.7014C70.507 27.7941 70.5484 27.6549 70.8535 27.7458C71.1565 27.8382 71.1589 27.8349 71.462 27.9273C71.7653 28.0179 71.7423 28.0954 72.0474 28.1863C72.3507 28.2769 72.3504 28.2787 72.6555 28.3696C72.9607 28.4605 72.9386 28.5327 73.2441 28.6218C73.5495 28.7109 73.5638 28.6614 73.8693 28.7505C74.1748 28.8396 74.1695 28.8591 74.4728 28.9497C74.7782 29.0388 74.8128 28.9169 75.1182 29.006C75.424 29.0933 75.3804 29.2451 75.6844 29.3321C75.9902 29.4194 75.9914 29.4122 76.2972 29.4995C76.603 29.5868 76.6319 29.4862 76.9377 29.5735C77.2438 29.659 77.2129 29.7704 77.5172 29.8556C77.8233 29.9411 77.8579 29.8192 78.1639 29.9047C78.47 29.9902 78.4787 29.9621 78.783 30.0473C79.0894 30.131 79.0598 30.2352 79.3662 30.3189C79.6708 30.4023 79.6938 30.3247 80.0002 30.4084C80.3066 30.4921 80.2814 30.5823 80.5878 30.666C80.896 30.75 80.9039 30.7162 81.2103 30.7999C81.517 30.8818 81.5051 30.9279 81.8118 31.0098C82.1186 31.0917 82.1516 30.9677 82.4583 31.0496C82.7651 31.1315 82.7379 31.2325 83.045 31.3126C83.352 31.3927 83.3732 31.3148 83.6803 31.3949C83.9873 31.475 83.9966 31.4433 84.3037 31.5234C84.6107 31.6035 84.5711 31.7541 84.8802 31.8328C85.1876 31.9111 85.1932 31.8898 85.5006 31.9681C85.8079 32.0464 85.8354 31.9437 86.1427 32.022C86.4501 32.1003 86.4494 32.1039 86.7571 32.1804C87.0645 32.2587 87.0441 32.3423 87.3518 32.4188C87.6595 32.4953 87.6816 32.4121 87.9893 32.4886C88.297 32.5651 88.2757 32.6541 88.5833 32.7306C88.891 32.8071 88.8954 32.793 89.203 32.8695C89.511 32.9442 89.5101 32.9496 89.8199 33.0246C90.1297 33.0997 90.1247 33.1173 90.4327 33.1921C90.7425 33.2671 90.7604 33.1868 91.0702 33.2618C91.3782 33.3365 91.3575 33.4219 91.6673 33.4969C91.9756 33.5698 91.9718 33.5914 92.2801 33.6643C92.5884 33.7372 92.6116 33.6375 92.9221 33.7089C93.2307 33.78 93.231 33.7782 93.5414 33.8496C93.8501 33.9208 93.8482 33.9315 94.1568 34.0027C94.4672 34.0741 94.4512 34.1436 94.7599 34.2147C95.0688 34.284 95.0722 34.2754 95.3811 34.3447C95.6901 34.414 95.6976 34.3819 96.0083 34.4516C96.3173 34.5209 96.322 34.505 96.6312 34.5725C96.9402 34.6418 96.942 34.6421 97.2512 34.7097C97.5605 34.7772 97.5689 34.7397 97.88 34.8076C98.1893 34.8751 98.1836 34.9074 98.4928 34.975C98.8039 35.0428 98.7826 35.1318 99.094 35.1978C99.4054 35.2638 99.4293 35.1494 99.7389 35.2151C100.05 35.2811 100.049 35.279 100.36 35.345C100.672 35.4111 100.679 35.3697 100.991 35.4339C101.3 35.4978 101.297 35.5194 101.607 35.5833C101.916 35.6473 101.912 35.6706 102.223 35.7328C102.534 35.797 102.542 35.7502 102.854 35.8127C103.167 35.8751 103.155 35.9323 103.465 35.9945C103.775 36.0566 103.783 36.0209 104.093 36.083C104.404 36.1452 104.384 36.2438 104.697 36.3044C105.009 36.3651 105.011 36.3525 105.322 36.4128C105.632 36.4731 105.645 36.4105 105.956 36.4708C106.266 36.5311 106.262 36.5674 106.573 36.6259C106.885 36.6865 106.883 36.6844 107.196 36.7433C107.509 36.8021 107.497 36.8558 107.81 36.9146C108.121 36.9731 108.144 36.8529 108.457 36.9117C108.767 36.9703 108.743 37.1088 109.054 37.1655C109.365 37.2222 109.382 37.1398 109.693 37.1965C110.006 37.2536 110.008 37.241 110.319 37.2977C110.633 37.3529 110.614 37.4497 110.927 37.505C111.24 37.5602 111.242 37.5476 111.554 37.6026C111.867 37.6578 111.884 37.5513 112.197 37.6066C112.511 37.6618 112.498 37.732 112.81 37.7869C113.123 37.8421 113.118 37.8709 113.43 37.9241C113.743 37.9793 113.738 38.0063 114.05 38.0594C114.364 38.1128 114.372 38.0661 114.684 38.1192C114.997 38.1726 115 38.1453 115.314 38.1988C115.626 38.2501 115.615 38.3224 115.927 38.3737C116.241 38.4253 116.243 38.4034 116.557 38.4551C116.869 38.5064 116.877 38.4596 117.192 38.5095C117.506 38.5593 117.505 38.5536 117.819 38.6035C118.132 38.653 118.122 38.7163 118.437 38.7643C118.749 38.8138 118.77 38.6858 119.085 38.7338C119.397 38.7816 119.398 38.778 119.713 38.826C120.027 38.8741 120.009 38.9877 120.322 39.0336C120.637 39.0817 120.638 39.0727 120.951 39.1186C121.266 39.1649 121.258 39.2098 121.573 39.2561C121.888 39.3023 121.91 39.1449 122.225 39.1911C122.538 39.237 122.521 39.3657 122.834 39.4099C123.148 39.454 123.15 39.4414 123.465 39.4858C123.78 39.5303 123.797 39.4127 124.111 39.4569C124.424 39.501 124.422 39.5265 124.737 39.5691C125.052 39.6136 125.039 39.7114 125.352 39.7537C125.668 39.7963 125.679 39.7129 125.993 39.7553C126.306 39.7976 126.306 39.7994 126.621 39.8421C126.935 39.8844 126.93 39.9372 127.243 39.9795C127.559 40.0204 127.562 39.9802 127.878 40.021C128.192 40.0615 128.18 40.1614 128.494 40.202C128.81 40.2428 128.813 40.2173 129.127 40.2561C129.441 40.2948 129.445 40.275 129.759 40.3137C130.074 40.3525 130.084 40.2709 130.4 40.3099C130.715 40.3487 130.708 40.4087 131.023 40.4456C131.337 40.4843 131.349 40.3937 131.664 40.4307C131.978 40.4676 131.976 40.4895 132.291 40.5246C132.608 40.5619 132.607 40.5451 132.924 40.5805C133.239 40.6157 133.234 40.6667 133.549 40.7018C133.864 40.7369 133.851 40.8368 134.168 40.8741C134.483 40.9092 134.49 40.8567 134.806 40.8901C135.121 40.9234 135.117 40.9672 135.432 41.0006C135.747 41.0339 135.76 40.9229 136.075 40.9562C136.39 40.9896 136.38 41.0787 136.697 41.1123C137.012 41.1456 137.008 41.1913 137.324 41.2228C137.639 41.2561 137.65 41.1487 137.966 41.1821C138.281 41.2136 138.279 41.2373 138.595 41.267C138.911 41.2986 138.914 41.2659 139.23 41.2956C139.546 41.3253 139.536 41.4274 139.852 41.4571C140.168 41.4868 140.171 41.4595 140.487 41.4875C140.803 41.5172 140.799 41.5463 141.116 41.5742C141.432 41.6022 141.441 41.4887 141.759 41.517C142.075 41.5449 142.067 41.6344 142.383 41.6623C142.699 41.6902 142.707 41.5951 143.023 41.6212C143.339 41.6492 143.341 41.6216 143.657 41.6477C143.974 41.6738 143.97 41.7288 144.284 41.7546C144.601 41.7807 144.597 41.8134 144.914 41.8378C145.23 41.8639 145.234 41.8237 145.551 41.848C145.867 41.8724 145.866 41.8925 146.183 41.9168C146.5 41.9412 146.494 42.0237 146.809 42.0477C147.126 42.0721 147.127 42.0667 147.442 42.0907C147.759 42.1132 147.763 42.0601 148.079 42.0823C148.396 42.1049 148.399 42.0683 148.714 42.0905C149.031 42.113 149.031 42.0908 149.349 42.1116C149.666 42.1323 149.661 42.1815 149.979 42.2022C150.296 42.223 150.301 42.1329 150.619 42.1537C150.936 42.1744 150.935 42.215 151.25 42.2354C151.566 42.2558 151.56 42.3624 151.878 42.3831C152.196 42.4021 152.196 42.3873 152.512 42.406C152.83 42.4249 152.83 42.4027 153.148 42.4198C153.464 42.4385 153.47 42.343 153.788 42.3602C154.106 42.3773 154.103 42.3953 154.421 42.4124C154.739 42.4296 154.738 42.4275 155.056 42.4446C155.372 42.4614 155.371 42.5224 155.687 42.5392C156.006 42.5546 156.002 42.5873 156.32 42.6026C156.639 42.618 156.64 42.5681 156.957 42.5831C157.274 42.5964 157.273 42.6315 157.59 42.6447C157.907 42.658 157.907 42.6913 158.224 42.7045C158.541 42.7178 158.546 42.613 158.863 42.6262C159.18 42.6394 159.181 42.6229 159.498 42.6362C159.815 42.6476 159.814 42.7086 160.131 42.72C160.448 42.7314 160.447 42.7942 160.764 42.8056C161.081 42.817 161.084 42.7044 161.403 42.7162C161.721 42.7258 161.718 42.8291 162.035 42.8405C162.353 42.8502 162.352 42.8631 162.67 42.8727C162.987 42.8823 162.988 42.8992 163.306 42.9088C163.624 42.9166 163.624 42.8815 163.942 42.8893C164.26 42.8972 164.263 42.7975 164.581 42.8053C164.899 42.8131 164.896 42.8888 165.214 42.8966C165.532 42.9045 165.532 42.9063 165.85 42.9141C166.168 42.9201 166.17 42.8592 166.488 42.8652C166.806 42.8712 166.805 42.9175 167.124 42.9235C167.442 42.9295 167.443 42.8575 167.762 42.8617C168.08 42.8659 168.08 42.966 168.398 42.972C168.716 42.9762 168.717 42.8651 169.036 42.8693C169.354 42.8736 169.354 42.9384 169.673 42.9427C169.992 42.9451 169.99 42.9412 170.309 42.9436C170.628 42.9461 170.627 42.9404 170.946 42.9428C171.265 42.9452 171.264 42.8951 171.583 42.8975C171.903 42.8981 171.901 42.9795 172.22 42.9802C172.538 42.9805 172.539 43.0493 172.858 43.0499C173.177 43.0505 173.177 43.043 173.496 43.0437C173.813 43.044 173.815 43.0239 174.132 43.0224C174.452 43.0212 174.451 43.0395 174.77 43.0384C175.09 43.0372 175.089 42.9351 175.407 42.9318C175.725 42.9303 175.726 42.936 176.044 42.9328C176.362 42.9295 176.362 42.8832 176.68 42.8799C176.998 42.8767 176.999 42.862 177.317 42.8587C177.637 42.8557 177.635 42.8851 177.954 42.8801C178.272 42.8768 178.273 42.9104 178.592 42.9054C178.91 42.9003 178.91 42.9318 179.229 42.9249C179.547 42.9199 179.547 42.8958 179.866 42.889C180.185 42.8821 180.186 42.9806 180.504 42.9755C180.823 42.9686 180.822 42.9296 181.141 42.9227C181.46 42.9158 181.457 42.8338 181.776 42.8251C182.093 42.8179 182.095 42.8071 182.414 42.7985C182.733 42.7898 182.735 42.8643 183.054 42.8556C183.373 42.847 183.371 42.7929 183.69 42.7842C184.009 42.7737 184.012 42.8726 184.329 42.8636C184.647 42.8528 184.648 42.8234 184.966 42.8126C185.283 42.8018 185.283 42.7591 185.601 42.7483C185.918 42.7375 185.922 42.8217 186.242 42.8094C186.559 42.7968 186.557 42.6961 186.874 42.6836C187.192 42.671 187.191 42.6133 187.509 42.6007C187.827 42.5881 187.834 42.7395 188.153 42.7273C188.471 42.7129 188.468 42.6363 188.786 42.6219C189.104 42.6075 189.104 42.5888 189.422 42.5744C189.742 42.5604 189.745 42.6463 190.063 42.6319C190.382 42.6175 190.376 42.4997 190.694 42.4853C191.013 42.4691 191.011 42.4373 191.329 42.4211C191.648 42.4049 191.651 42.4722 191.969 42.4542C192.288 42.438 192.284 42.3836 192.603 42.3656C192.922 42.3476 192.925 42.4057 193.243 42.3877C193.562 42.3697 193.566 42.4445 193.885 42.4265C194.203 42.4085 194.204 42.4049 194.521 42.3866C194.84 42.3668 194.834 42.3028 195.153 42.283C195.472 42.2632 195.471 42.2389 195.788 42.2188C196.107 42.199 196.104 42.1539 196.421 42.1338C196.739 42.1137 196.75 42.2604 197.068 42.2385C197.385 42.2165 197.377 42.0852 197.696 42.0636C198.014 42.0417 198.015 42.042 198.333 42.0201C198.651 41.9964 198.649 41.9663 198.968 41.943C199.286 41.9192 199.295 42.0302 199.614 42.0068C199.932 41.9831 199.926 41.9115 200.246 41.8863C200.564 41.8626 200.575 41.9814 200.893 41.9577C201.211 41.9322 201.201 41.7894 201.519 41.7639C201.585 41.7589 201.66 41.7444 201.741 41.7233C202.201 41.6097 202.396 41.0654 202.112 40.6852L201.993 40.5268L202.002 40.5378Z" fill="#E69191"/>
<path d="M27.8416 30.6171C27.5324 30.4754 27.7461 30.2479 27.704 29.9363C27.6622 29.6229 27.6996 29.622 27.6575 29.3104C27.6172 28.9991 27.6568 28.9968 27.6168 28.6837C27.5764 28.3724 27.5559 28.3725 27.5155 28.0612C27.4752 27.7499 27.4546 27.75 27.4161 27.439C27.3776 27.1281 27.3437 27.1295 27.3037 26.8164C27.2655 26.5036 27.4157 26.4986 27.3775 26.1858C27.339 25.8748 27.3148 25.8743 27.2781 25.5636C27.2414 25.253 27.1099 25.2576 27.0732 24.9469C27.0364 24.6363 27.1269 24.6318 27.0905 24.3193C27.0541 24.0069 27.08 24.0078 27.0436 23.6953C27.0087 23.385 26.9053 23.389 26.8707 23.0768C26.8362 22.7647 26.8455 22.7645 26.8106 22.4542C26.776 22.142 26.9018 22.1382 26.8672 21.8261C26.8323 21.5157 26.7703 21.5178 26.7372 21.2078C26.7045 20.896 26.7268 20.8962 26.6941 20.5844C26.6613 20.2725 26.5575 20.2784 26.5248 19.9665C26.4938 19.655 26.6516 19.6495 26.6185 19.3395C26.5873 19.0298 26.5631 19.0292 26.5318 18.7195C26.5005 18.4098 26.4292 18.4121 26.3997 18.1027C26.3684 17.793 26.4419 17.7892 26.4124 17.4799C26.3829 17.1705 26.3811 17.1701 26.352 16.859C26.3225 16.5496 26.3376 16.5485 26.3081 16.2392C26.2787 15.9298 26.3032 15.9285 26.2737 15.6191C26.246 15.3101 26.0788 15.3158 26.053 15.0071C26.0256 14.6962 26.1626 14.6926 26.1353 14.3817C26.1094 14.0729 26.0175 14.0753 25.9898 13.7662C25.964 13.4575 25.9265 13.4583 25.901 13.1477C25.8751 12.839 25.9374 12.8351 25.9116 12.5264C25.8857 12.2177 25.8597 12.2168 25.8357 11.9084C25.8116 11.5999 25.7947 11.6007 25.771 11.2904C25.7469 10.982 25.8655 10.9769 25.8414 10.6685C25.8177 10.3583 25.8231 10.3592 25.7991 10.0508C25.7751 9.7424 25.7509 9.74184 25.7287 9.43374C25.7067 9.12383 25.5828 9.12794 25.5624 8.82015C25.5405 8.51025 25.2937 8.29982 25.5581 8.13498C25.8203 7.97162 25.888 8.33967 26.1745 8.48294C26.4593 8.62589 26.4927 8.56317 26.7775 8.70612C27.0623 8.84907 26.9928 8.98891 27.2775 9.13186C27.5623 9.27481 27.593 9.21716 27.8778 9.36011C28.1646 9.50158 28.208 9.41463 28.493 9.55578C28.7781 9.69693 28.7458 9.76357 29.033 9.90324C29.3199 10.0447 29.3464 9.99002 29.6332 10.1315C29.9204 10.2712 29.8912 10.3309 30.1766 10.4703C30.4638 10.61 30.4872 10.5621 30.7747 10.7C31.0619 10.8397 31.0478 10.8669 31.335 11.0065C31.6225 11.1444 31.6166 11.1564 31.9042 11.2942C32.1917 11.4321 32.1508 11.5158 32.4404 11.6522C32.7279 11.7901 32.7839 11.6738 33.0718 11.8099C33.3596 11.9459 33.3414 11.9854 33.6293 12.1215C33.9171 12.2575 33.9057 12.2797 34.1957 12.4142C34.4856 12.5488 34.4804 12.5572 34.7704 12.6918C35.0585 12.8261 35.0871 12.7699 35.3756 12.9024C35.6656 13.037 35.6302 13.1105 35.9205 13.2433C36.2089 13.3758 36.2224 13.3522 36.5109 13.4846C36.8012 13.6174 36.8009 13.6192 37.0893 13.7517C37.3796 13.8845 37.4101 13.8176 37.7007 13.9485C37.9913 14.0795 38.0036 14.052 38.2942 14.183C38.5848 14.314 38.554 14.3828 38.8431 14.5117C39.134 14.6409 39.1593 14.5823 39.452 14.7118C39.7429 14.841 39.7035 14.9268 39.9962 15.0563C40.2872 15.1855 40.3142 15.1272 40.6052 15.2564C40.8964 15.3838 40.8739 15.4373 41.1651 15.5647C41.4563 15.6921 41.4434 15.7232 41.7346 15.8506C42.0258 15.978 42.016 16.0022 42.309 16.13C42.6024 16.2559 42.6535 16.1351 42.9469 16.261C43.2403 16.3869 43.2058 16.4661 43.4991 16.5921C43.7928 16.7162 43.7808 16.7419 44.0745 16.866C44.3681 16.9901 44.4026 16.9109 44.6966 17.0332C44.9903 17.1573 44.9749 17.1917 45.2686 17.3158C45.5626 17.4382 45.5743 17.4142 45.8683 17.5366C46.1623 17.6589 46.3922 17.488 46.4368 17.7963C46.4817 18.1029 46.2336 18.0165 45.9842 18.2025C45.7352 18.3867 45.6831 18.3219 45.4337 18.5079C45.1828 18.6918 45.2501 18.776 44.9992 18.9599C44.7483 19.1438 44.6814 19.0578 44.4286 19.2414C44.1778 19.4253 44.2295 19.4919 43.9789 19.674C43.7262 19.8576 43.7373 19.8688 43.4849 20.0506C43.2325 20.2324 43.1544 20.1352 42.9021 20.3169C42.6497 20.4987 42.6996 20.565 42.4475 20.745C42.1933 20.9265 42.1904 20.9222 41.938 21.104C41.6838 21.2855 41.6473 21.2382 41.3934 21.4179C41.1392 21.5994 41.2002 21.6769 40.946 21.8584C40.6922 22.038 40.6003 21.9235 40.3464 22.1032C40.0907 22.2825 40.1212 22.3213 39.8656 22.5007C39.6099 22.68 39.6721 22.7614 39.4164 22.9408C39.1607 23.1201 39.1577 23.1159 38.9002 23.2949C38.6427 23.474 38.576 23.3862 38.3185 23.5652C38.0613 23.7424 38.0535 23.7336 37.7964 23.9108C37.5392 24.0881 37.5738 24.135 37.3167 24.3122C37.0595 24.4894 37.0427 24.4679 36.7837 24.6448C36.5247 24.8218 36.5403 24.8393 36.2813 25.0162C36.0223 25.1932 36.0681 25.2513 35.8094 25.4264C35.5486 25.603 35.5337 25.5818 35.275 25.7569C35.0145 25.9317 34.9598 25.8609 34.6993 26.0356C34.4388 26.2104 34.5147 26.3092 34.2542 26.4839C33.9938 26.6587 33.9163 26.5579 33.654 26.7324C33.3917 26.9068 33.4802 27.0189 33.2179 27.1934C32.956 27.366 32.9132 27.3121 32.6512 27.4848C32.3892 27.6575 32.377 27.6423 32.1147 27.8168C31.8509 27.9892 31.8724 28.0152 31.6086 28.1876C31.3448 28.3599 31.3161 28.3215 31.0523 28.4938C30.7885 28.6662 30.7811 28.6556 30.5158 28.8258C30.2502 28.9978 30.2457 28.9915 29.9822 29.162C29.7169 29.3323 29.6849 29.2914 29.4211 29.4637C29.1558 29.634 29.1633 29.6446 28.898 29.8148C28.6327 29.985 28.6798 30.036 28.4747 30.2669C28.2276 30.5461 28.1617 30.7608 27.8507 30.6187L27.8416 30.6171Z" fill="#9EBFC3"/>
<path d="M51.8281 40.4332C51.5105 40.3178 51.6783 40.2027 51.6113 39.8941C51.5444 39.5856 51.6497 39.5707 51.5827 39.2622C51.5158 38.9536 51.5043 38.9553 51.4376 38.6449C51.3725 38.3366 51.3573 38.3377 51.2922 38.0294C51.227 37.7212 51.1832 37.7264 51.1198 37.4185C51.0565 37.1106 51.1312 37.0996 51.0679 36.7917C51.0046 36.4837 50.9377 36.4924 50.8747 36.1826C50.8113 35.8747 50.8936 35.8632 50.8321 35.5556C50.7706 35.248 50.7059 35.2551 50.6443 34.9475C50.5831 34.6381 50.6403 34.6315 50.5791 34.3221C50.5179 34.0127 50.5236 34.0118 50.4621 33.7042C50.4009 33.3948 50.2535 33.4152 50.1923 33.1058C50.1329 32.7967 50.148 32.7956 50.0886 32.4865C50.0292 32.1774 50.0979 32.1691 50.0385 31.86C49.9791 31.5509 49.9543 31.554 49.8964 31.247C49.8388 30.9382 49.9535 30.9232 49.8956 30.6162C49.838 30.3075 49.8265 30.3091 49.7686 30.0022C49.711 29.6934 49.6096 29.707 49.5521 29.3983C49.4963 29.0898 49.4409 29.0967 49.3848 28.7901C49.3287 28.4834 49.4588 28.4656 49.4027 28.1589C49.347 27.8504 49.2244 27.8678 49.1686 27.5593C49.1147 27.2512 49.2042 27.241 49.1502 26.9329C49.0963 26.6247 49.0409 26.6317 48.9866 26.3253C48.9327 26.0172 48.923 26.0192 48.8708 25.7114C48.8187 25.4036 48.7978 25.4054 48.7453 25.0994C48.6932 24.7916 48.7906 24.7791 48.7384 24.4713C48.6863 24.1635 48.7302 24.1582 48.6798 23.8507C48.6295 23.5432 48.6388 23.543 48.5885 23.2355C48.5382 22.928 48.3853 22.9474 48.3332 22.6396C48.2828 22.3321 48.2868 22.331 48.2383 22.0238C48.1897 21.7166 48.1782 21.7183 48.1297 21.4111C48.0812 21.1039 48.0733 21.1062 48.0251 20.7973C47.9765 20.4901 48.0089 20.4865 47.9604 20.1793C47.9118 19.8722 47.8946 19.8747 47.8479 19.5678C47.8011 19.261 47.8813 19.251 47.8367 18.9426C47.79 18.6358 47.4555 18.4785 47.7034 18.2904C47.951 18.104 48.0319 18.4392 48.3262 18.5597C48.6209 18.6784 48.607 18.7149 48.9016 18.8336C49.1962 18.9524 49.1796 18.9939 49.4742 19.1127C49.7688 19.2314 49.825 19.0929 50.1199 19.2098C50.4149 19.3268 50.3747 19.4273 50.6697 19.5442C50.9646 19.6611 50.9653 19.6575 51.262 19.7748C51.5588 19.892 51.5961 19.7966 51.8914 19.9117C52.1885 20.0271 52.1724 20.0651 52.4698 20.1788C52.7651 20.2939 52.7805 20.2595 53.0761 20.3728C53.3734 20.4865 53.3256 20.6097 53.6208 20.7249C53.9182 20.8385 53.9661 20.7153 54.2617 20.8286C54.5573 20.9419 54.5588 20.944 54.8543 21.0574C55.152 21.1692 55.1517 21.171 55.4476 21.2825C55.7453 21.3944 55.7314 21.4309 56.0291 21.5427C56.3268 21.6546 56.3411 21.6163 56.6391 21.7263C56.9371 21.8364 56.9238 21.8693 57.2237 21.9796C57.5217 22.0897 57.4966 22.1576 57.7947 22.2677C58.0927 22.3777 58.1313 22.2751 58.4297 22.3833C58.728 22.4916 58.7314 22.4829 59.0298 22.5912C59.3281 22.6994 59.3169 22.7308 59.6156 22.8373C59.9143 22.9437 59.9025 22.9788 60.2011 23.0852C60.4998 23.1917 60.5069 23.1725 60.8074 23.2793C61.106 23.3857 61.1132 23.3666 61.4121 23.4712C61.7129 23.5762 61.7219 23.5463 62.0227 23.6512C62.3217 23.7559 62.2759 23.8888 62.577 23.9919C62.8778 24.0969 62.8837 24.0738 63.1848 24.177C63.4859 24.2802 63.5249 24.1647 63.8264 24.266C64.1275 24.3692 64.0984 24.4494 64.3998 24.5508C64.7012 24.6521 64.6935 24.6749 64.9949 24.7763C65.2963 24.8776 65.3273 24.7866 65.6287 24.888C65.9305 24.9876 65.9271 24.9963 66.2285 25.0976C66.5302 25.1972 66.4933 25.3113 66.7932 25.4105C67.095 25.5101 67.1145 25.4523 67.4162 25.5519C67.7183 25.6497 67.7109 25.6706 68.0144 25.7705C68.3165 25.8683 68.3478 25.7755 68.6501 25.8715C68.9522 25.9693 69.0937 25.8551 69.1634 26.1586C69.2331 26.4621 68.9656 26.3166 68.733 26.5241C68.4988 26.7296 68.5477 26.7808 68.3117 26.9859C68.0776 27.1913 68.0291 27.1382 67.7946 27.3454C67.5605 27.5508 67.5619 27.553 67.3263 27.7562C67.0922 27.9616 67.0811 27.9504 66.8451 28.1555C66.6092 28.3606 66.5936 28.343 66.358 28.5463C66.1223 28.7496 66.2334 28.8712 65.996 29.0741C65.7604 29.2774 65.6675 29.1794 65.43 29.3824C65.1926 29.5854 65.2537 29.6518 65.018 29.8551C64.7806 30.058 64.8058 30.0847 64.5683 30.2877C64.3291 30.4903 64.2883 30.4461 64.0494 30.6469C63.8101 30.8495 63.829 30.8696 63.59 31.0704C63.3508 31.2731 63.3619 31.2843 63.1226 31.4869C62.8837 31.6878 62.8019 31.601 62.5611 31.8016C62.3204 32.0021 62.3171 31.9996 62.0763 32.2002C61.8356 32.4007 61.8529 32.4186 61.6119 32.6209C61.3711 32.8215 61.4556 32.9142 61.2133 33.1127C60.9708 33.3129 60.9693 33.3107 60.727 33.5092C60.4848 33.7076 60.4345 33.6542 60.1922 33.8526C59.95 34.051 60.0018 34.1065 59.7574 34.3064C59.5152 34.5048 59.4022 34.3829 59.1582 34.581C58.9141 34.779 58.9611 34.83 58.7171 35.0281C58.473 35.2262 58.5437 35.3017 58.2997 35.4998C58.0556 35.6979 58.0023 35.6403 57.7567 35.8362C57.5109 36.034 57.5549 36.0807 57.3094 36.2767C57.0635 36.4745 57.0168 36.4217 56.7694 36.6174C56.5221 36.813 56.561 36.857 56.3154 37.0529C56.0681 37.2486 56.0462 37.2243 55.7988 37.42C55.5515 37.6156 55.5422 37.6047 55.2948 37.8004C55.0475 37.996 54.9801 37.9229 54.733 38.1168C54.4839 38.3121 54.5761 38.4137 54.3291 38.6076C54.0799 38.8029 54.0487 38.7677 53.7999 38.9613C53.5492 39.1545 53.534 39.1351 53.283 39.3301C53.0341 39.5237 53.026 39.5167 52.7772 39.7102C52.5265 39.9034 52.5232 39.901 52.3256 40.1425C52.1299 40.3843 52.1379 40.5508 51.8184 40.4352L51.8281 40.4332Z" fill="#E69191"/>
<path d="M76.409 48.4455C76.083 48.3565 76.2372 48.1389 76.1451 47.8351C76.053 47.5314 76.2141 47.4968 76.1223 47.1912C76.0302 46.8875 75.9915 46.8955 75.9012 46.5921C75.8109 46.2887 75.8633 46.2775 75.7733 45.9723C75.6831 45.6689 75.5783 45.6912 75.4898 45.3881C75.4014 45.085 75.3393 45.0982 75.2511 44.7933C75.163 44.4884 75.1842 44.4847 75.096 44.1798C75.0076 43.8767 75.0154 43.8744 74.927 43.5713C74.8403 43.2686 74.9124 43.2516 74.8257 42.9488C74.7394 42.6442 74.6537 42.6644 74.5674 42.3598C74.481 42.0552 74.5119 42.0495 74.4274 41.7453C74.3428 41.441 74.4243 41.4239 74.3398 41.1196C74.2552 40.8154 74.1426 40.84 74.0581 40.5358C73.9735 40.2315 74.0708 40.2097 73.9877 39.9076C73.905 39.6036 73.8217 39.6205 73.7387 39.3184C73.656 39.0144 73.788 38.9858 73.7053 38.6818C73.6226 38.3779 73.6032 38.3819 73.5205 38.078C73.4396 37.7743 73.2961 37.8047 73.2134 37.5008C73.1324 37.1971 73.2817 37.166 73.2008 36.8623C73.1199 36.5587 73.0636 36.5711 72.9824 36.2692C72.9033 35.966 72.9517 35.9559 72.8726 35.6526C72.7935 35.3494 72.6751 35.3748 72.596 35.0716C72.5169 34.7683 72.4936 34.7734 72.4163 34.4704C72.3372 34.1671 72.4905 34.1348 72.4117 33.8297C72.3344 33.5267 72.249 33.5451 72.172 33.2403C72.0951 32.9355 72.0811 32.9405 72.0042 32.6357C71.9269 32.3327 71.9775 32.3212 71.902 32.0186C71.8268 31.7141 71.8132 31.7173 71.7377 31.4146C71.6626 31.1102 71.5675 31.1305 71.4938 30.8282C71.4205 30.524 71.4281 30.5235 71.3529 30.2191C71.2796 29.9149 71.3065 29.9104 71.2331 29.6063C71.1598 29.3021 71.2237 29.2893 71.1503 28.9852C71.077 28.681 71.0573 28.6868 70.9858 28.383C70.9142 28.0792 70.9684 28.0683 70.8969 27.7645C70.8254 27.4607 70.7033 27.4856 70.6318 27.1817C70.5603 26.8779 70.2793 26.7134 70.5123 26.5041C70.7431 26.2962 70.8405 26.7289 71.1447 26.8252C71.4474 26.9193 71.4772 26.8244 71.7799 26.9186C72.0826 27.0128 72.0698 27.0532 72.3725 27.1474C72.6752 27.2416 72.7044 27.1503 73.0074 27.2426C73.3104 27.335 73.3014 27.365 73.6044 27.4573C73.9074 27.5497 73.9052 27.5623 74.2085 27.6529C74.4119 27.7135 74.6146 27.7746 74.8166 27.8362C75.1218 27.9271 75.1166 27.9354 75.422 28.0245C75.7272 28.1154 75.7194 28.1382 76.0231 28.227C76.3267 28.3157 76.3071 28.3846 76.6125 28.4737C76.918 28.5628 76.9625 28.4056 77.2683 28.4929C77.5722 28.5799 77.5501 28.6631 77.8541 28.7501C78.1598 28.8374 78.1567 28.8443 78.4625 28.9316C78.7683 29.0189 78.7649 29.0276 79.071 29.1131C79.3752 29.1983 79.3986 29.1189 79.7047 29.2044C80.0107 29.2899 79.9715 29.4277 80.2779 29.5114C80.584 29.5969 80.6161 29.4783 80.9225 29.562C81.2289 29.6457 81.1953 29.7622 81.5017 29.8459C81.8081 29.9296 81.8415 29.8038 82.1482 29.8857C82.4546 29.9694 82.4288 30.0631 82.7355 30.145C83.0422 30.227 83.0444 30.2144 83.3512 30.2963C83.6579 30.3782 83.6604 30.3638 83.9675 30.4439C84.2745 30.524 84.2836 30.4829 84.5906 30.563C84.8977 30.6431 84.8799 30.7123 85.1869 30.7925C85.494 30.8726 85.509 30.8084 85.8178 30.8889C86.1252 30.9672 86.1061 31.0436 86.4135 31.1219C86.7208 31.2002 86.7367 31.1418 87.0426 31.218C87.3503 31.2945 87.3371 31.3478 87.6448 31.4243C87.9525 31.5008 87.9515 31.5062 88.2592 31.5827C88.5669 31.6592 88.6007 31.5205 88.9105 31.5955C89.2185 31.6703 89.2156 31.6864 89.5239 31.7594C89.8319 31.8341 89.8169 31.8982 90.1249 31.9729C90.4328 32.0476 90.4391 32.0227 90.7471 32.0974C91.0554 32.1704 91.0306 32.2791 91.3389 32.352C91.649 32.4253 91.6509 32.4145 91.9614 32.4859C92.2715 32.5591 92.5273 32.2518 92.6222 32.5505C92.7174 32.8474 92.4409 32.8376 92.2253 33.0648C92.01 33.2902 91.9167 33.2051 91.6996 33.4302C91.4844 33.6556 91.5726 33.738 91.3555 33.9631C91.1384 34.1882 91.0727 34.1265 90.8556 34.3516C90.6385 34.5767 90.6787 34.6135 90.4617 34.8386C90.2428 35.0634 90.2509 35.0704 90.0323 35.2934C89.8134 35.5181 89.8278 35.5318 89.6092 35.7548C89.3907 35.9778 89.3181 35.913 89.0995 36.136C88.8791 36.3587 88.847 36.3289 88.6266 36.5516C88.4062 36.7743 88.4 36.7676 88.1793 36.9921C87.9589 37.2147 88.0729 37.3201 87.8525 37.5428C87.6321 37.7655 87.6288 37.763 87.4066 37.9854C87.1844 38.2077 87.1925 38.2147 86.9703 38.4371C86.7481 38.6594 86.7547 38.6643 86.5325 38.8866C86.3103 39.109 86.2863 39.0862 86.0623 39.3082C85.8386 39.5285 85.853 39.5421 85.629 39.7642C85.405 39.9862 85.3426 39.927 85.1186 40.149C84.895 40.3692 84.9381 40.4102 84.7145 40.6305C84.4908 40.8507 84.4602 40.823 84.2365 41.0433C84.011 41.2632 83.9822 41.2358 83.757 41.454C83.5315 41.6739 83.4961 41.6417 83.2709 41.8598C83.0436 42.0794 83.1591 42.1869 82.9339 42.405C82.7066 42.6246 82.6235 42.545 82.3965 42.7628C82.1696 42.9806 82.171 42.9827 81.9437 43.2023C81.7149 43.4198 81.795 43.4951 81.5662 43.7126C81.3374 43.9301 81.3068 43.9024 81.078 44.1199C80.8492 44.3374 80.878 44.3647 80.6492 44.5822C80.4204 44.7996 80.316 44.7033 80.0872 44.9208C79.8566 45.138 79.9591 45.2339 79.7285 45.4511C79.4979 45.6683 79.4946 45.6658 79.2643 45.8812C79.0337 46.0983 79.0322 46.0962 78.8001 46.3112C78.568 46.5263 78.5374 46.4986 78.3053 46.7137C78.0732 46.9287 78.1053 46.9585 77.871 47.175C77.6389 47.39 77.6116 47.3648 77.3777 47.5795C77.1438 47.7942 77.0131 47.6988 76.8468 47.9644C76.6557 48.2646 76.7399 48.528 76.4103 48.4383L76.409 48.4455Z" fill="#9EBFC3"/>
<path d="M101.564 54.3464C101.231 54.284 101.403 54.0083 101.287 53.7115C101.172 53.4148 101.205 53.404 101.09 53.1072C100.974 52.8105 100.927 52.8244 100.813 52.5279C100.699 52.2315 100.835 52.1888 100.721 51.8923C100.607 51.5959 100.536 51.6167 100.423 51.3203C100.309 51.0238 100.246 51.0424 100.134 50.7463C100.02 50.4498 100.168 50.4036 100.056 50.1057C99.9421 49.8092 99.8394 49.8412 99.7255 49.5448C99.6137 49.2468 99.6846 49.2259 99.5728 48.928C99.461 48.6301 99.4528 48.6342 99.3411 48.3363C99.2293 48.0383 99.2114 48.0445 99.1014 47.7469C98.9914 47.4492 99.0527 47.4304 98.9424 47.1345C98.8324 46.8369 98.8006 46.848 98.6906 46.5504C98.5806 46.2528 98.6021 46.2473 98.494 45.95C98.3858 45.6527 98.3998 45.6478 98.2916 45.3505C98.1834 45.0532 98.0413 45.0968 97.935 44.7998C97.8286 44.5028 97.8762 44.4871 97.7698 44.1901C97.6635 43.8931 97.6262 43.9033 97.5199 43.6063C97.4135 43.3093 97.4096 43.3105 97.3051 43.0138C97.2005 42.7172 97.3072 42.6841 97.2026 42.3874C97.0981 42.0907 97.0251 42.1131 96.9209 41.8147C96.8166 41.5162 96.7751 41.5293 96.6706 41.2326C96.5678 40.9363 96.5918 40.9275 96.4873 40.6309C96.3849 40.3328 96.5033 40.2962 96.4006 39.9998C96.2979 39.7035 96.1461 39.7491 96.0437 39.4509C95.9413 39.1528 96.0376 39.1253 95.9352 38.8271C95.8346 38.5293 95.7558 38.5525 95.657 38.255C95.5564 37.9572 95.6155 37.9398 95.5149 37.642C95.4143 37.3442 95.3807 37.3549 95.2819 37.0575C95.1831 36.76 95.2719 36.733 95.1731 36.4355C95.0743 36.138 95.0152 36.1554 94.9164 35.8579C94.8176 35.5604 94.8097 35.5627 94.711 35.2652C94.614 34.968 94.5413 34.9886 94.4425 34.6911C94.3455 34.3939 94.5012 34.3472 94.4046 34.0482C94.3079 33.7493 94.2191 33.7763 94.1222 33.4791C94.0255 33.1801 93.714 33.0937 93.9281 32.8643C94.1418 32.6368 94.2444 32.9869 94.5537 33.0544C94.8626 33.1237 94.8617 33.1291 95.1706 33.1984C95.4799 33.2659 95.4975 33.1874 95.8064 33.2567C96.1157 33.3242 96.1015 33.3941 96.4107 33.4616C96.72 33.5291 96.7162 33.5507 97.0254 33.6182C97.335 33.6839 97.3535 33.6 97.6628 33.6675C97.9724 33.7332 97.9702 33.7458 98.2797 33.8115C98.5893 33.8773 98.5912 33.8665 98.9029 33.9307C99.2128 33.9946 99.221 33.959 99.5309 34.0229C99.8408 34.0868 99.8121 34.2283 100.124 34.2907C100.434 34.3528 100.454 34.2599 100.765 34.322C101.075 34.3842 101.084 34.3449 101.394 34.407C101.706 34.4695 101.703 34.4745 102.015 34.5352C102.326 34.5955 102.309 34.6908 102.62 34.7511C102.93 34.8115 102.937 34.783 103.248 34.8433C103.56 34.904 103.571 34.8428 103.881 34.9031C104.194 34.962 104.173 35.0678 104.484 35.1263C104.797 35.1851 104.811 35.1042 105.122 35.1609C105.434 35.2176 105.446 35.1586 105.757 35.2171C106.07 35.2741 106.041 35.4267 106.354 35.4838C106.667 35.539 106.672 35.5027 106.985 35.5579C107.298 35.6132 107.289 35.6636 107.601 35.7185C107.912 35.7734 107.932 35.673 108.243 35.7279C108.557 35.7831 108.565 35.7235 108.879 35.7787C109.19 35.8336 109.187 35.8534 109.5 35.9069C109.812 35.96 109.813 35.9657 110.125 36.017C110.437 36.0701 110.426 36.1388 110.739 36.1901C111.051 36.2415 111.065 36.1587 111.379 36.2104C111.693 36.262 111.688 36.2908 112.002 36.3424C112.316 36.3923 112.302 36.4732 112.616 36.5231C112.93 36.5729 112.946 36.4644 113.26 36.5142C113.574 36.564 113.56 36.6579 113.872 36.7074C114.187 36.7555 114.198 36.6778 114.512 36.7237C114.826 36.7718 114.807 36.9001 115.12 36.9479C115.435 36.9959 115.438 36.9743 115.753 37.0224C116.068 37.0686 116.347 36.7321 116.466 37.0238C116.585 37.3137 116.141 37.2559 115.945 37.4996C115.749 37.745 115.795 37.7791 115.597 38.0243C115.401 38.2679 115.36 38.2365 115.163 38.482C114.965 38.7253 115.06 38.7996 114.863 39.0429C114.665 39.2862 114.683 39.3005 114.485 39.5439C114.287 39.7872 114.164 39.6913 113.966 39.9346C113.766 40.1776 113.833 40.2303 113.636 40.4736C113.436 40.7166 113.447 40.7261 113.246 40.967C113.046 41.21 113.006 41.1768 112.804 41.4195C112.603 41.6604 112.614 41.6698 112.413 41.9125C112.209 42.1549 112.288 42.2152 112.085 42.4557C111.884 42.6966 111.876 42.6914 111.674 42.9341C111.471 43.1747 111.45 43.1579 111.247 43.3985C111.044 43.6391 110.991 43.5983 110.788 43.8389C110.585 44.0794 110.602 44.0916 110.397 44.3319C110.192 44.5721 110.148 44.5365 109.943 44.7768C109.739 45.017 109.839 45.0959 109.634 45.3361C109.497 45.4963 109.36 45.6563 109.222 45.8163C109.016 46.0562 108.891 45.9564 108.685 46.1945C108.479 46.4327 108.561 46.4972 108.354 46.7371C108.148 46.9753 108.112 46.9467 107.905 47.1866C107.697 47.4262 107.776 47.4865 107.567 47.7261C107.359 47.9639 107.333 47.9426 107.125 48.1804C106.917 48.4183 106.905 48.4106 106.697 48.6484C106.558 48.807 106.418 48.9653 106.277 49.1234C106.067 49.3609 106.059 49.3539 105.849 49.5914C105.639 49.8289 105.618 49.8122 105.408 50.0479C105.198 50.2854 105.138 50.2376 104.928 50.4751C104.716 50.7122 104.852 50.8197 104.64 51.0569C104.427 51.2937 104.358 51.2371 104.145 51.4722C103.932 51.7072 103.925 51.7024 103.714 51.9377C103.501 52.1728 103.492 52.1676 103.279 52.4027C103.066 52.6377 103.135 52.6925 102.921 52.9294C102.706 53.1641 102.588 53.0692 102.373 53.3039C102.158 53.5386 102.192 53.5669 102.052 53.8463C101.881 54.1797 101.899 54.4166 101.564 54.3539L101.564 54.3464Z" fill="#E69191"/>
<path d="M127.161 57.9919C126.824 57.9566 126.946 57.8038 126.804 57.5172C126.665 57.2292 126.649 57.2357 126.509 56.9476C126.369 56.6596 126.393 56.6509 126.253 56.3629C126.114 56.0749 126.18 56.0494 126.04 55.7614C125.902 55.4737 125.818 55.5071 125.68 55.2194C125.542 54.9317 125.647 54.8889 125.509 54.6012C125.371 54.3136 125.402 54.3004 125.264 54.0127C125.126 53.725 125.12 53.7276 124.982 53.4399C124.846 53.1526 124.848 53.1511 124.712 52.8619C124.576 52.5745 124.486 52.6105 124.352 52.3217C124.216 52.0325 124.174 52.051 124.038 51.7618C123.904 51.473 124.01 51.4305 123.877 51.1417C123.743 50.8528 123.781 50.8373 123.647 50.5503C123.514 50.2617 123.404 50.3053 123.272 50.0168C123.138 49.7279 123.132 49.7306 123 49.4421C122.868 49.1535 122.93 49.1274 122.798 48.8389C122.666 48.5504 122.676 48.5448 122.546 48.2566C122.416 47.9684 122.44 47.956 122.31 47.6678C122.18 47.3796 122.057 47.4285 121.927 47.1384C121.797 46.8502 121.926 46.7987 121.795 46.5105C121.665 46.2223 121.655 46.2261 121.527 45.9364C121.399 45.6467 121.322 45.6778 121.194 45.3881C121.066 45.0984 121.164 45.06 121.036 44.7704C120.908 44.4807 120.851 44.5041 120.725 44.2147C120.599 43.9254 120.526 43.9534 120.4 43.6641C120.274 43.3747 120.42 43.3153 120.296 43.0262C120.171 42.7372 120.089 42.769 119.965 42.4782C119.839 42.1888 119.923 42.1555 119.799 41.8646C119.674 41.5755 119.654 41.5813 119.532 41.2926C119.409 41.0021 119.301 41.0442 119.179 40.7537C119.056 40.4631 119.044 40.4684 118.922 40.1779C118.799 39.8874 118.839 39.8722 118.717 39.5816C118.594 39.2911 118.608 39.2861 118.488 38.9941C118.408 38.8006 118.327 38.6072 118.247 38.4137C118.126 38.1235 118.11 38.1281 117.99 37.8379C117.869 37.5477 117.558 37.4817 117.753 37.2341C117.945 36.988 118.089 37.2526 118.404 37.2971C118.718 37.3412 118.708 37.4192 119.023 37.4637C119.337 37.506 119.349 37.4172 119.664 37.4598C119.978 37.5022 119.963 37.6183 120.277 37.6588C120.591 37.6993 120.609 37.567 120.923 37.6076C121.239 37.6484 121.236 37.6535 121.552 37.6926C121.868 37.7334 121.851 37.8474 122.167 37.8882C122.482 37.927 122.488 37.8781 122.803 37.9168C123.117 37.9555 123.111 38.0083 123.426 38.0471C123.74 38.0858 123.737 38.1131 124.053 38.1522C124.368 38.1891 124.371 38.1729 124.686 38.208C125 38.245 125.006 38.2015 125.321 38.2366C125.636 38.2717 125.644 38.2082 125.959 38.2433C126.274 38.2784 126.272 38.2985 126.587 38.3319C126.902 38.367 126.908 38.3106 127.224 38.3439C127.541 38.3776 127.522 38.5339 127.838 38.5672C128.153 38.6006 128.166 38.4824 128.482 38.5157C128.797 38.549 128.798 38.5325 129.115 38.5644C129.431 38.5959 129.43 38.6013 129.748 38.6332C130.065 38.665 130.061 38.6977 130.377 38.7293C130.693 38.759 130.697 38.7134 131.013 38.7431C131.329 38.7729 131.316 38.9097 131.634 38.9379C131.95 38.9677 131.956 38.8984 132.273 38.9263C132.589 38.9542 132.594 38.8921 132.91 38.9201C133.227 38.948 133.214 39.0941 133.53 39.1221C133.846 39.15 133.856 39.0441 134.172 39.072C134.489 39.0982 134.483 39.1696 134.8 39.1957C135.117 39.2219 135.118 39.2129 135.435 39.2372C135.752 39.2634 135.753 39.2433 136.07 39.2676C136.387 39.292 136.382 39.3523 136.7 39.3787C137.017 39.4031 137.021 39.3704 137.338 39.3929C137.655 39.4155 137.653 39.4374 137.971 39.4599C138.288 39.4825 138.287 39.4954 138.605 39.5179C138.922 39.5386 138.932 39.3976 139.25 39.4183C139.567 39.4391 139.564 39.4886 139.884 39.5079C140.203 39.5289 140.419 39.2555 140.562 39.5366C140.705 39.8177 140.388 39.8471 140.213 40.1093C140.038 40.3715 139.944 40.3105 139.767 40.5705C139.59 40.8324 139.654 40.8733 139.476 41.1331C139.299 41.3931 139.336 41.4182 139.157 41.6779C138.979 41.9377 138.959 41.9248 138.78 42.1846C138.602 42.4443 138.498 42.376 138.32 42.6357C138.142 42.8955 138.274 42.9837 138.095 43.2434C137.915 43.5028 137.833 43.4476 137.653 43.707C137.475 43.9668 137.541 44.0119 137.361 44.2714C137.181 44.5308 137.129 44.4975 136.947 44.7548C136.765 45.014 136.797 45.0344 136.615 45.2935C136.433 45.5526 136.355 45.4999 136.173 45.759C135.991 46.0181 136.043 46.0514 135.861 46.3105C135.679 46.5696 135.685 46.5745 135.502 46.8315C135.318 47.0902 135.383 47.1333 135.2 47.3903C135.016 47.6473 134.878 47.556 134.692 47.8145C134.507 48.0712 134.587 48.1243 134.403 48.3831C134.218 48.6397 134.224 48.6446 134.039 48.9013C133.854 49.158 133.802 49.1229 133.616 49.3813C133.429 49.6377 133.425 49.6331 133.239 49.8898C133.052 50.1462 133.124 50.1941 132.935 50.4483C132.748 50.7047 132.686 50.6641 132.497 50.9201C132.308 51.1762 132.29 51.1618 132.102 51.4179C131.913 51.6739 131.988 51.7243 131.799 51.9803C131.61 52.2363 131.598 52.2287 131.41 52.4829C131.221 52.739 131.231 52.7463 131.04 53.0002C130.85 53.2541 130.883 53.2767 130.692 53.5324C130.502 53.7863 130.375 53.7027 130.184 53.9566C129.992 54.2102 130.077 54.2679 129.885 54.5215C129.693 54.7751 129.728 54.7998 129.535 55.0534C129.343 55.307 129.338 55.3042 129.146 55.5578C128.954 55.8114 128.868 55.7556 128.674 56.0088C128.48 56.2621 128.507 56.2798 128.311 56.5328C128.117 56.7861 128.171 56.8215 127.976 57.0765C127.78 57.3295 127.614 57.2428 127.483 57.5312C127.354 57.82 127.495 58.0249 127.158 57.9895L127.161 57.9919Z" fill="#9EBFC3"/>
<path d="M153.019 59.6838C152.678 59.6775 152.814 59.4678 152.649 59.19C152.485 58.9126 152.575 58.8673 152.411 58.5898C152.247 58.3124 152.278 58.2974 152.113 58.0217C151.949 57.7443 151.82 57.8105 151.658 57.5334C151.496 57.2562 151.594 57.205 151.432 56.9297C151.27 56.6525 151.163 56.7061 151.001 56.429C150.839 56.1518 150.905 56.1171 150.745 55.8403C150.584 55.5635 150.611 55.5496 150.451 55.271C150.291 54.9942 150.33 54.9733 150.17 54.6965C150.01 54.4179 149.917 54.4665 149.757 54.1878C149.597 53.9092 149.576 53.9204 149.418 53.6421C149.26 53.3638 149.348 53.32 149.19 53.0417C149.032 52.7634 148.964 52.7979 148.808 52.5199C148.649 52.2416 148.627 52.2525 148.47 51.9745C148.314 51.6965 148.335 51.6853 148.178 51.4074C148.022 51.1294 148.077 51.102 147.921 50.8223C147.765 50.5443 147.748 50.5525 147.592 50.2728C147.438 49.9933 147.43 49.9974 147.276 49.718C147.121 49.4385 147.068 49.4662 146.916 49.1871C146.761 48.9076 146.814 48.8817 146.662 48.6044C146.509 48.3253 146.532 48.3144 146.379 48.0353C146.227 47.7561 146.143 47.7988 145.991 47.5179C145.84 47.2391 145.959 47.1784 145.806 46.8993C145.654 46.6184 145.617 46.6396 145.467 46.359C145.316 46.0802 145.271 46.1019 145.121 45.8213C144.97 45.5407 144.942 45.556 144.793 45.2757C144.645 44.9955 144.741 44.9475 144.591 44.6669C144.442 44.3866 144.319 44.4466 144.173 44.1666C144.024 43.8863 144.036 43.881 143.888 43.6007C143.739 43.3205 143.729 43.3261 143.583 43.0443C143.436 42.7643 143.43 42.767 143.283 42.487C143.137 42.2052 143.167 42.192 143.021 41.9102C142.874 41.6303 142.981 41.5767 142.834 41.2967C142.689 41.0153 142.597 41.0603 142.453 40.7788C142.308 40.4974 142.32 40.4921 142.176 40.2106C142.031 39.9292 141.704 39.8807 141.877 39.6164C142.051 39.3539 142.228 39.6504 142.544 39.6672C142.861 39.6841 142.866 39.6237 143.182 39.6406C143.5 39.6577 143.494 39.7327 143.813 39.7481C144.131 39.7634 144.128 39.8241 144.444 39.8409C144.763 39.8562 144.769 39.7163 145.085 39.7314C145.402 39.7464 145.402 39.802 145.719 39.8152C146.037 39.8287 146.035 39.8618 146.354 39.8753C146.673 39.8888 146.673 39.8222 146.992 39.8357C147.311 39.8493 147.308 39.9099 147.625 39.9213C147.942 39.9328 147.942 39.9901 148.259 40.0016C148.578 40.0133 148.579 39.9226 148.898 39.9344C149.217 39.9461 149.218 39.8981 149.536 39.9077C149.853 39.9173 149.851 39.9948 150.17 40.0047C150.49 40.0147 150.487 40.0513 150.806 40.0613C151.126 40.0694 151.125 40.0246 151.444 40.0328C151.762 40.0406 151.763 40.0686 152.081 40.0764C152.399 40.0842 152.4 40.0864 152.719 40.0924C153.037 40.0984 153.036 40.1429 153.355 40.1489C153.675 40.1553 153.676 40.0108 153.994 40.0168C154.313 40.0211 154.313 40.0063 154.632 40.0124C154.95 40.0166 154.95 40.0406 155.268 40.0449C155.587 40.0491 155.586 40.1158 155.905 40.1182C156.224 40.1207 156.224 40.0354 156.543 40.0378C156.862 40.0402 156.861 40.1478 157.18 40.1502C157.499 40.1526 157.5 40.1824 157.819 40.183C158.138 40.1836 158.137 40.1761 158.457 40.1768C158.776 40.1774 158.775 40.181 159.095 40.1798C159.414 40.1787 159.414 40.0859 159.733 40.0847C160.053 40.0835 160.053 40.0373 160.371 40.0358C160.691 40.0346 160.692 40.1443 161.011 40.1431C161.331 40.1402 161.332 40.1792 161.65 40.1759C161.97 40.173 161.967 40.0594 162.287 40.0546C162.607 40.0499 162.607 40.0442 162.927 40.0394C163.245 40.0343 163.248 40.0998 163.567 40.0948C163.887 40.09 163.887 40.1011 164.207 40.0946C164.528 40.088 164.641 39.8168 164.808 40.0873C164.973 40.3558 164.769 40.381 164.614 40.656C164.459 40.9328 164.342 40.8676 164.186 41.1444C164.031 41.4212 164.042 41.4249 163.886 41.7018C163.732 41.9768 163.803 42.0172 163.648 42.2922C163.491 42.5669 163.401 42.5176 163.244 42.7941C163.087 43.0706 163.142 43.0988 162.985 43.3753C162.827 43.6518 162.894 43.6876 162.737 43.9641C162.58 44.2388 162.439 44.1619 162.282 44.4384C162.123 44.7128 162.2 44.7559 162.041 45.0303C161.883 45.3047 161.802 45.2609 161.644 45.5371C161.483 45.8111 161.504 45.8222 161.342 46.0959C161.181 46.37 161.284 46.4251 161.123 46.7009C160.962 46.975 160.975 46.9808 160.812 47.2546C160.652 47.5286 160.613 47.5069 160.45 47.7824C160.288 48.0562 160.275 48.0482 160.113 48.322C160.003 48.5042 159.894 48.6866 159.786 48.8691C159.622 49.1425 159.638 49.1508 159.476 49.4245C159.366 49.6068 159.257 49.7891 159.148 49.9714C158.984 50.2448 158.999 50.2531 158.835 50.5265C158.671 50.7981 158.596 50.7571 158.432 51.0305C158.267 51.3018 158.35 51.348 158.185 51.6211C158.019 51.8942 157.912 51.8345 157.744 52.1055C157.579 52.3768 157.701 52.4466 157.534 52.7175C157.366 52.9903 157.363 52.9879 157.194 53.2585C157.026 53.5313 156.919 53.4698 156.75 53.7423C156.581 54.013 156.628 54.0399 156.459 54.3105C156.29 54.5812 156.241 54.554 156.072 54.8246C155.903 55.0953 155.875 55.0812 155.704 55.3515C155.533 55.6219 155.55 55.6322 155.379 55.9026C155.208 56.1729 155.249 56.195 155.078 56.4671C154.905 56.7371 154.968 56.7723 154.796 57.0424C154.623 57.3124 154.606 57.3038 154.433 57.5738C154.26 57.8438 154.315 57.8739 154.14 58.1436C153.968 58.4136 153.821 58.3322 153.649 58.6022C153.474 58.8719 153.517 58.8943 153.415 59.1954C153.307 59.5102 153.362 59.6886 153.021 59.6823L153.019 59.6838Z" fill="#E69191"/>
</g>
<defs>
<clipPath id="clip0_15_322">
<rect width="200" height="37" fill="white" transform="translate(6.42499) rotate(10)"/>
</clipPath>
</defs>
</svg>
