<svg width="204" height="72" viewBox="0 0 204 72" fill="none" xmlns="http://www.w3.org/2000/svg">
<g clip-path="url(#clip0_15_332)">
<path d="M1.3845 40.5376C1.7027 40.5631 1.69834 40.6233 2.01654 40.6488C2.33473 40.6743 2.33885 40.6235 2.65704 40.649C2.97523 40.6745 2.96678 40.7854 3.28465 40.8091C3.60253 40.8328 3.60261 40.8439 3.92049 40.8676C4.23836 40.8913 4.24607 40.7972 4.56394 40.8209C4.88182 40.8447 4.878 40.8973 5.19588 40.921C5.53825 40.9459 5.52017 40.8434 5.91619 40.8867C6.08072 40.8985 6.24493 40.9085 6.40764 40.9206C6.79614 40.9319 6.76533 41.043 7.10525 41.0647C7.42461 41.0863 7.42761 41.0078 7.74665 41.0276C8.06389 41.0477 8.06289 41.0739 8.38195 41.0937C8.701 41.1135 8.70059 41.1006 9.01932 41.1185C9.33806 41.1365 9.33363 41.1855 9.65235 41.2035C9.97108 41.2215 9.97003 41.2365 10.2888 41.2545C10.6075 41.2725 10.6078 41.2428 10.9266 41.2608C11.2453 41.2788 11.2474 41.2376 11.564 41.2541C11.8824 41.2703 11.8789 41.3247 12.1977 41.3427C12.5161 41.3589 12.5213 41.2615 12.8379 41.278C13.1563 41.2942 13.1541 41.3558 13.4707 41.3723C13.7888 41.3867 13.7886 41.396 14.107 41.4122C14.4251 41.4266 14.4272 41.3854 14.7453 41.3998C15.0634 41.4142 15.0574 41.5284 15.3773 41.5425C15.6951 41.5551 15.6988 41.4914 16.0169 41.5058C16.3347 41.5184 16.3376 41.4715 16.6536 41.4844C16.9714 41.497 16.9672 41.5793 17.2868 41.5916C17.6043 41.6024 17.6068 41.5426 17.9243 41.5534C18.2417 41.5642 18.2393 41.6351 18.5567 41.6459C18.8742 41.6567 18.8756 41.6435 19.1931 41.6543C19.5105 41.6651 19.5143 41.5698 19.8314 41.5788C20.1486 41.5878 20.1503 41.6079 20.4671 41.6151C20.786 41.6238 20.7847 41.6481 21.1037 41.6568C21.4227 41.6655 21.4229 41.6246 21.7416 41.6315C22.0584 41.6387 22.0561 41.7634 22.3748 41.7702C22.6934 41.7771 22.6948 41.6897 23.0134 41.6966C23.3321 41.7035 23.3313 41.7629 23.6479 41.7683C23.9662 41.7734 23.9674 41.6638 24.2857 41.6689C24.604 41.6739 24.6033 41.7334 24.9217 41.7385C25.24 41.7436 25.2398 41.7213 25.5578 41.7246C25.8758 41.7279 25.8758 41.7594 26.1938 41.7627C26.5118 41.766 26.5108 41.7921 26.8288 41.7954C27.1468 41.7987 27.1457 41.8453 27.4634 41.8468C27.7814 41.85 27.781 41.8371 28.099 41.8404C28.4167 41.8419 28.4168 41.8215 28.7345 41.8229C29.0522 41.8244 29.0536 41.7481 29.3713 41.7496C29.689 41.7511 29.6888 41.8346 30.0062 41.8343C30.3236 41.8339 30.324 41.6985 30.6413 41.6982C30.9587 41.6978 30.9596 41.809 31.2767 41.8069C31.5941 41.8065 31.5934 41.6972 31.9123 41.6948C32.2294 41.6927 32.2304 41.7407 32.5474 41.7386C32.8645 41.7365 32.8641 41.692 33.1827 41.6878C33.4997 41.6857 33.5005 41.7857 33.8191 41.7814C34.1376 41.7772 34.1371 41.7105 34.4538 41.7066C34.7706 41.7027 34.771 41.7156 35.0895 41.7114C35.4081 41.7071 35.4067 41.7204 35.7252 41.7161C36.0435 41.7101 36.0435 41.7843 36.362 41.7801C36.6803 41.774 36.6782 41.6668 36.9946 41.6611C37.311 41.6554 37.3131 41.7626 37.631 41.7548C37.9489 41.7469 37.9494 41.771 38.2655 41.7635C38.5834 41.7556 38.581 41.6782 38.8989 41.6703C39.228 41.6624 39.2133 41.5685 39.5675 41.5654C39.7652 41.5639 39.9656 41.5564 40.1644 41.551C40.4838 41.5411 40.486 41.6279 40.8036 41.6183C41.1212 41.6086 41.1205 41.5939 41.4381 41.5843C41.7557 41.5746 41.7558 41.6284 42.0749 41.6167C42.3922 41.6052 42.3881 41.4761 42.7054 41.4647C43.0227 41.4533 43.0276 41.6082 43.3449 41.5968C43.6622 41.5853 43.6592 41.5265 43.9765 41.5151C44.2935 41.5018 44.2911 41.4355 44.6081 41.4222C44.9251 41.409 44.9247 41.4072 45.2414 41.3922C45.5583 41.379 45.5605 41.4546 45.8793 41.4411C46.1962 41.4279 46.1945 41.4078 46.5112 41.3927C46.8278 41.3777 46.8267 41.3501 47.1434 41.335C47.46 41.32 47.4597 41.3182 47.776 41.3014C48.0923 41.2846 48.0931 41.2993 48.4115 41.2839C48.7278 41.2671 48.7294 41.3076 49.0478 41.2923C49.3642 41.2755 49.3618 41.2406 49.6799 41.2235C49.9959 41.2049 49.996 41.216 50.3138 41.197C50.6298 41.1784 50.633 41.2279 50.949 41.2093C51.1597 41.1969 51.3704 41.1845 51.581 41.1721C51.897 41.1534 51.8962 41.1276 52.2122 41.109C52.5279 41.0886 52.5269 41.0721 52.8444 41.0513C53.1619 41.0306 53.1605 41.0438 53.478 41.0231C53.7937 41.0026 53.798 41.0482 54.1134 41.026C54.4288 41.0038 54.4279 40.978 54.7436 40.9576C55.059 40.9353 55.0565 40.8894 55.3719 40.8672C55.6873 40.845 55.6825 40.7753 55.9996 40.7528C56.3165 40.7284 56.3249 40.8605 56.6417 40.8362C56.9568 40.8121 56.9541 40.7755 57.2709 40.7512C57.5878 40.7268 57.5889 40.7434 57.9036 40.7175C58.2202 40.6914 58.2226 40.7373 58.5395 40.713C58.8561 40.6868 58.8439 40.5332 59.1584 40.5056C59.4749 40.4794 59.4826 40.5652 59.7973 40.5394C60.1139 40.5133 60.106 40.4368 60.4225 40.4106C60.7369 40.383 60.7469 40.4925 61.0632 40.4646C61.3794 40.4367 61.3769 40.4223 61.6931 40.3943C62.0093 40.3664 61.9984 40.2515 62.3128 40.2238C62.6288 40.1941 62.6282 40.2016 62.9441 40.1719C63.2601 40.1422 63.2631 40.1806 63.5787 40.149C63.8946 40.1193 63.9046 40.2288 64.2187 40.1994C64.4291 40.1784 64.6389 40.1575 64.8481 40.1366C65.1637 40.1051 65.1498 39.9629 65.4633 39.9299C65.7771 39.8986 65.7804 39.9277 66.096 39.8962C66.4112 39.8629 66.4198 39.943 66.7336 39.9118C67.0488 39.8784 67.0452 39.8364 67.3586 39.8034C67.6739 39.7701 67.6815 39.8448 67.9965 39.8096C68.3117 39.7763 68.2968 39.6491 68.6121 39.6158C68.927 39.5806 68.9287 39.6007 69.2437 39.5656C69.5587 39.5305 69.5599 39.5377 69.8749 39.5025C70.1899 39.4674 70.1872 39.4419 70.5022 39.4068C70.8169 39.3698 70.8137 39.3518 71.1286 39.3167C71.4433 39.2798 71.4447 39.2981 71.7593 39.2612C72.074 39.2242 72.0869 39.3295 72.3994 39.2911C72.7138 39.2524 72.7025 39.1672 73.0168 39.1284C73.3312 39.0897 73.3454 39.2022 73.6579 39.1638C73.9722 39.1251 73.9541 38.9799 74.2685 38.9411C74.5825 38.9006 74.5906 38.9678 74.9049 38.9291C75.2189 38.8885 75.2125 38.8415 75.5265 38.8009C75.8405 38.7604 75.8476 38.8111 76.1598 38.7709C76.4738 38.7303 76.4765 38.7558 76.7901 38.7135C77.1038 38.6712 77.1064 38.6856 77.4183 38.6436C77.732 38.6012 77.7274 38.5649 78.0411 38.5226C78.3548 38.4803 78.3606 38.5238 78.6743 38.4814C78.9877 38.4373 78.9781 38.3722 79.2915 38.3281C79.6049 38.284 79.5992 38.2516 79.9141 38.2053C80.2274 38.1612 80.2325 38.19 80.5441 38.1462C80.8571 38.1003 80.8603 38.1182 81.1734 38.0723C81.4864 38.0264 81.4868 38.0282 81.7998 37.9823C82.1129 37.9363 82.1042 37.8766 82.4173 37.8307C82.7304 37.7848 82.746 37.884 83.0588 37.8363C83.3715 37.7886 83.3619 37.7235 83.6746 37.6758C83.9874 37.6281 83.9806 37.5792 84.2931 37.5297C84.6055 37.4801 84.6211 37.5794 84.9336 37.5299C85.246 37.4803 85.2473 37.4875 85.5597 37.438C85.8739 37.3882 85.8747 37.4029 86.1871 37.3533C86.4992 37.302 86.5036 37.3272 86.8157 37.2759C87.1279 37.2246 87.1132 37.1307 87.4253 37.0794C87.7374 37.028 87.7282 36.9759 88.0403 36.9246C88.3524 36.8732 88.3702 36.974 88.6802 36.9212C88.992 36.868 88.985 36.8285 89.2968 36.7753C89.6068 36.7225 89.5962 36.6521 89.9077 36.5971C90.2192 36.5422 90.2236 36.5674 90.5354 36.5143C90.8469 36.4594 90.8634 36.5529 91.1749 36.498C91.4863 36.443 91.4718 36.3603 91.7832 36.3054C92.0947 36.2505 92.0925 36.2379 92.4037 36.1811C92.7133 36.1265 92.7364 36.2467 93.0476 36.19C93.359 36.1351 93.3476 36.0703 93.6588 36.0136C93.9684 35.959 93.9801 36.0145 94.2912 35.9577C94.6024 35.901 94.5948 35.8578 94.9056 35.7993C95.2165 35.7408 95.1966 35.6386 95.5074 35.5801C95.8183 35.5216 95.8227 35.5467 96.1336 35.4882C96.4444 35.4297 96.4593 35.5142 96.7717 35.4536C97.0822 35.3933 97.0916 35.4361 97.4003 35.3761C97.7109 35.3158 97.7102 35.3122 98.0204 35.2501C98.331 35.1898 98.3054 35.0552 98.6138 34.9934C98.924 34.9313 98.9256 34.9403 99.2358 34.8782C99.546 34.816 99.5491 34.834 99.8594 34.7719C100.17 34.7098 100.18 34.7598 100.49 34.6959C100.8 34.632 100.811 34.6839 101.121 34.6199C101.431 34.556 101.413 34.4628 101.722 34.3989C102.032 34.335 102.032 34.3314 102.341 34.2657C102.651 34.1999 102.642 34.1625 102.952 34.0968C103.262 34.031 103.265 34.0526 103.575 33.9869C103.884 33.9212 103.907 34.0303 104.217 33.9646C104.526 33.8971 104.5 33.7811 104.809 33.7136C105.119 33.6461 105.126 33.6745 105.433 33.6073C105.742 33.5398 105.745 33.5524 106.054 33.4867C106.363 33.4192 106.382 33.5013 106.691 33.432C106.999 33.3627 106.974 33.2485 107.283 33.1792C107.592 33.1099 107.6 33.1473 107.907 33.0783C108.214 33.0093 108.221 33.0267 108.528 32.9559C108.837 32.8848 108.83 32.8563 109.138 32.7852C109.447 32.7141 109.469 32.8067 109.778 32.7356C110.086 32.6645 110.07 32.5913 110.376 32.5188C110.684 32.4458 110.67 32.3853 110.978 32.3124C111.287 32.2395 111.292 32.2626 111.601 32.1897C111.909 32.1167 111.905 32.1027 112.213 32.028C112.521 31.9551 112.547 32.0599 112.855 31.987C113.163 31.9123 113.159 31.9 113.467 31.8253C113.775 31.7506 113.748 31.6385 114.056 31.5638C114.364 31.4891 114.374 31.5356 114.682 31.4609C114.99 31.3844 115.008 31.459 115.314 31.3828C115.622 31.3063 115.622 31.3045 115.927 31.2265C116.235 31.15 116.238 31.1661 116.545 31.0878C116.852 31.0095 116.817 30.8711 117.122 30.7932C117.43 30.7148 117.442 30.7646 117.748 30.6866C118.055 30.6083 118.055 30.6083 118.361 30.5303C118.668 30.4502 118.657 30.4094 118.962 30.3297C119.269 30.2496 119.27 30.2532 119.575 30.1734C119.882 30.0933 119.913 30.2158 120.22 30.1357C120.525 30.0541 120.506 29.9813 120.813 29.8994C121.118 29.8178 121.112 29.7929 121.419 29.711C121.723 29.6294 121.72 29.6097 122.025 29.5281C122.33 29.4465 122.367 29.5753 122.672 29.4937C122.979 29.41 122.962 29.3573 123.268 29.2736C123.575 29.1899 123.557 29.1318 123.863 29.0463C124.168 28.9629 124.166 28.9557 124.473 28.872C124.777 28.7868 124.797 28.8593 125.103 28.7738C125.408 28.6886 125.406 28.6778 125.71 28.5926C126.014 28.5074 125.992 28.4242 126.297 28.339C126.601 28.2538 126.633 28.3613 126.937 28.2761C127.243 28.1888 127.235 28.1661 127.539 28.0791C127.843 27.9921 127.828 27.9391 128.132 27.8503C128.435 27.7615 128.452 27.8142 128.756 27.7254C129.059 27.6367 129.062 27.6399 129.366 27.5512C129.669 27.4624 129.674 27.4764 129.977 27.3877C130.281 27.2989 130.249 27.1932 130.552 27.1026C130.856 27.012 130.87 27.0632 131.176 26.9723C131.479 26.8818 131.509 26.9785 131.812 26.8879C132.116 26.7973 132.101 26.7461 132.404 26.6537C132.707 26.5613 132.679 26.4661 132.98 26.374C133.283 26.2817 133.282 26.2745 133.583 26.1824C133.886 26.09 133.899 26.1322 134.202 26.0381C134.404 25.9753 134.605 25.9125 134.807 25.8497C135.11 25.7555 135.136 25.84 135.438 25.744C135.741 25.6498 135.72 25.5831 136.023 25.4889C136.325 25.3929 136.351 25.4773 136.654 25.3831C136.956 25.2872 136.945 25.254 137.247 25.158C137.549 25.062 137.524 24.983 137.827 24.887C138.129 24.7892 138.149 24.8506 138.451 24.7546C138.653 24.6894 138.854 24.6242 139.055 24.559C139.357 24.4613 139.342 24.4158 139.644 24.3162C139.946 24.2184 139.947 24.2238 140.248 24.1242C140.55 24.0247 140.562 24.0579 140.862 23.9604C141.164 23.8609 141.153 23.833 141.455 23.7335C141.755 23.6342 141.772 23.6812 142.072 23.5819C142.372 23.4809 142.375 23.4878 142.676 23.3864C142.978 23.285 142.99 23.32 143.289 23.219C143.591 23.1176 143.55 23.0006 143.851 22.8992C144.152 22.796 144.158 22.8191 144.459 22.7177C144.76 22.6146 144.776 22.6619 145.076 22.559C145.375 22.4561 145.347 22.3738 145.647 22.271C145.946 22.1663 145.986 22.2779 146.285 22.1733C146.586 22.0683 146.573 22.0372 146.873 21.9322C147.172 21.8276 147.175 21.8345 147.474 21.7298C147.773 21.6234 147.751 21.5641 148.052 21.4574C148.351 21.3509 148.343 21.3282 148.641 21.2217C148.94 21.1153 148.948 21.1362 149.246 21.0298C149.545 20.9233 149.537 20.8988 149.835 20.7923C150.134 20.6841 150.174 20.7975 150.473 20.6892C150.771 20.581 150.764 20.5618 151.062 20.4536C151.361 20.3453 151.34 20.2897 151.638 20.1796C151.936 20.0696 151.925 20.0418 152.223 19.9317C152.521 19.8217 152.549 19.8947 152.847 19.7846C153.145 19.6746 153.132 19.6417 153.43 19.5316C153.727 19.4198 153.759 19.5032 154.057 19.3914C154.353 19.2799 154.313 19.1736 154.611 19.0618C154.907 18.9503 154.909 18.9517 155.206 18.8381C155.504 18.7244 155.501 18.7194 155.799 18.6075C156.096 18.4939 156.086 18.4679 156.382 18.3545C156.677 18.2412 156.704 18.307 157.001 18.1916C157.298 18.0779 157.301 18.0848 157.597 17.9697C157.894 17.8542 157.857 17.7606 158.152 17.6455C158.447 17.5303 158.494 17.65 158.791 17.5327C159.086 17.4176 159.075 17.3862 159.37 17.2693C159.665 17.1524 159.661 17.1383 159.956 17.0214C160.251 16.9044 160.26 16.9251 160.555 16.8081C160.85 16.6912 160.866 16.7328 161.163 16.6155C161.458 16.4986 161.451 16.4795 161.746 16.3625C162.041 16.2438 161.997 16.1346 162.292 16.0159C162.586 15.8972 162.636 16.0201 162.932 15.8993C163.226 15.7788 163.223 15.7719 163.518 15.6514C163.812 15.5308 163.792 15.4824 164.087 15.3619C164.381 15.2413 164.393 15.2706 164.687 15.1483C164.981 15.026 164.944 14.9381 165.238 14.8158C165.532 14.6935 165.573 14.7918 165.867 14.6695C166.161 14.5472 166.152 14.5284 166.446 14.4042C166.74 14.2819 166.707 14.2042 166.999 14.0804C167.293 13.9562 167.35 14.0908 167.642 13.967C167.936 13.8429 167.898 13.755 168.19 13.6294C168.481 13.5056 168.49 13.5244 168.784 13.3985C169.075 13.2729 169.103 13.333 169.394 13.2074C169.688 13.0815 169.654 13.0076 169.947 12.8817C170.239 12.7561 170.22 12.7112 170.513 12.5853C170.805 12.4597 170.855 12.5751 171.148 12.4474C171.439 12.32 171.402 12.2357 171.693 12.1083C171.984 11.9809 171.978 11.9636 172.269 11.8362C172.56 11.7088 172.551 11.6881 172.842 11.5589C173.133 11.4297 173.126 11.4142 173.417 11.285C173.708 11.1558 173.76 11.2709 174.051 11.1417C174.342 11.0107 174.341 11.0071 174.631 10.8761C174.922 10.7451 174.937 10.7777 175.228 10.6467C175.518 10.5157 175.469 10.4075 175.758 10.275C176.047 10.1443 176.061 10.1715 176.351 10.0387C176.641 9.90592 176.672 9.97289 176.962 9.84009C177.252 9.7073 177.241 9.68339 177.531 9.54879C177.821 9.416 177.806 9.38342 178.094 9.24914C178.382 9.11487 178.361 9.06674 178.651 8.93214C178.941 8.79755 178.941 8.79935 179.229 8.66507C179.519 8.53048 179.522 8.53915 179.811 8.40488C180.1 8.26848 180.083 8.23442 180.371 8.09835C180.659 7.96228 180.673 7.99126 180.961 7.85519C181.249 7.71911 181.245 7.70864 181.533 7.57257C181.821 7.43649 181.812 7.41946 182.1 7.28159C182.387 7.14372 182.425 7.22051 182.712 7.08264C183 6.94477 182.976 6.89516 183.264 6.75728C183.551 6.61761 183.536 6.58683 183.824 6.44896C184.111 6.30929 184.135 6.3589 184.422 6.21923C184.709 6.07956 184.756 6.17878 185.043 6.03731C185.33 5.89584 185.262 5.76139 185.549 5.62172C185.836 5.48025 185.888 5.58604 186.175 5.44457C186.46 5.30341 186.47 5.32013 186.755 5.17898C187.04 5.03782 187.045 5.04078 187.329 4.89783C187.614 4.75488 187.599 4.7241 187.884 4.58115C188.169 4.4382 188.182 4.46179 188.467 4.31704C188.752 4.17409 188.709 4.08894 188.993 3.94419C189.278 3.79944 189.331 3.9031 189.616 3.75836C189.9 3.61361 189.894 3.59985 190.178 3.45331C190.463 3.30856 190.42 3.2234 190.704 3.07686C190.988 2.93211 191.008 2.96945 191.292 2.8229C191.576 2.67635 191.54 2.60855 191.824 2.462C192.108 2.31546 192.155 2.40357 192.44 2.25882C192.724 2.11227 192.716 2.09704 192.999 1.94869C193.283 1.80035 193.286 1.80722 193.57 1.66068C193.854 1.51233 193.821 1.4496 194.102 1.29978C194.386 1.15143 194.434 1.24134 194.718 1.093C195.001 0.942852 194.938 0.826074 195.221 0.675929C195.503 0.526103 195.524 0.564923 195.808 0.414778C195.832 0.401313 196.441 0.108389 196.462 0.0973613C196.69 0.398338 196.917 0.708947 197.141 1.01988C197.069 1.03265 196.279 1.42418 196.16 1.4879C195.876 1.63805 195.89 1.66164 195.604 1.8121C195.321 1.96225 195.307 1.93686 195.024 2.08701C194.74 2.23715 194.771 2.2984 194.488 2.44854C194.204 2.59689 194.244 2.67517 193.961 2.82531C193.677 2.97366 193.649 2.92289 193.364 3.07155C193.078 3.22022 193.035 3.13506 192.749 3.28193C192.465 3.42848 192.508 3.51363 192.222 3.6605C191.938 3.80705 191.935 3.80377 191.649 3.95063C191.363 4.0975 191.34 4.04969 191.054 4.19655C190.768 4.34342 190.771 4.3467 190.484 4.49177C190.198 4.63683 190.184 4.60965 189.898 4.75472C189.612 4.89978 189.632 4.93892 189.345 5.08399C189.059 5.22906 189.058 5.22546 188.772 5.36873C188.485 5.512 188.522 5.5834 188.233 5.72519C187.947 5.86846 187.89 5.75792 187.604 5.90119C187.315 6.04478 187.349 6.1093 187.062 6.25257C186.775 6.39404 186.791 6.42662 186.504 6.56809C186.217 6.70956 186.226 6.73019 185.939 6.87166C185.65 7.01345 185.655 7.01641 185.366 7.1564C185.078 7.29607 185.053 7.24858 184.766 7.39005C184.477 7.53004 184.462 7.49746 184.173 7.63745C183.886 7.77712 183.931 7.87127 183.641 8.00946C183.352 8.14765 183.326 8.09296 183.036 8.23115C182.749 8.36902 182.717 8.30778 182.428 8.44597C182.139 8.58416 182.188 8.68487 181.899 8.82306C181.611 8.95913 181.572 8.88265 181.284 9.02052C180.994 9.15692 181.038 9.24747 180.749 9.38386C180.459 9.52025 180.423 9.44314 180.133 9.57953C179.844 9.71592 179.862 9.75538 179.572 9.88997C179.282 10.0246 179.247 9.95285 178.957 10.0874C178.667 10.222 178.679 10.2477 178.389 10.3823C178.099 10.5169 178.117 10.5546 177.827 10.6874C177.536 10.8202 177.534 10.8187 177.244 10.9515C176.954 11.0843 176.939 11.0553 176.649 11.1881C176.359 11.3209 176.362 11.3296 176.072 11.4624C175.779 11.5937 175.76 11.5488 175.468 11.6801C175.177 11.8111 175.218 11.9041 174.927 12.0333C174.635 12.1646 174.64 12.1766 174.35 12.3076C174.059 12.4386 174.063 12.4509 173.772 12.5801C173.48 12.7096 173.445 12.6267 173.15 12.7566C172.857 12.8861 172.866 12.9031 172.573 13.0326C172.28 13.1622 172.255 13.1053 171.962 13.2331C171.669 13.3608 171.706 13.4415 171.413 13.5692C171.12 13.6969 171.126 13.7107 170.833 13.8384C170.54 13.9661 170.549 13.9867 170.256 14.1127C169.963 14.2386 169.907 14.1166 169.616 14.2422C169.323 14.3681 169.332 14.3924 169.039 14.5183C168.746 14.6442 168.765 14.6891 168.471 14.815C168.178 14.9391 168.145 14.8613 167.85 14.9858C167.556 15.1099 167.572 15.1479 167.279 15.272C166.985 15.3961 166.969 15.3617 166.676 15.4859C166.38 15.6103 166.403 15.662 166.109 15.7843C165.815 15.9067 165.822 15.9294 165.528 16.0517C165.232 16.1744 165.228 16.1603 164.932 16.2811C164.638 16.4035 164.644 16.419 164.348 16.5399C164.052 16.6607 164.062 16.6831 163.767 16.8036C163.471 16.9245 163.474 16.9296 163.178 17.0504C162.882 17.1695 162.888 17.1868 162.594 17.3055C162.299 17.4243 162.293 17.4123 161.997 17.5313C161.7 17.6504 161.668 17.5726 161.373 17.6896C161.077 17.8086 161.079 17.8137 160.783 17.9309C160.486 18.0482 160.489 18.055 160.193 18.1741C159.896 18.2913 159.922 18.3553 159.625 18.4726C159.328 18.5898 159.3 18.515 159.001 18.6308C158.704 18.7462 158.741 18.8399 158.444 18.9553C158.147 19.0707 158.13 19.0256 157.833 19.141C157.536 19.2565 157.502 19.1679 157.204 19.2816C156.907 19.397 156.914 19.4126 156.616 19.5262C156.319 19.6398 156.326 19.6608 156.029 19.7744C155.731 19.8881 155.756 19.956 155.459 20.0697C155.162 20.1833 155.145 20.1417 154.847 20.2536C154.55 20.3654 154.571 20.4229 154.273 20.5347C153.974 20.6469 153.975 20.6448 153.676 20.7569C153.378 20.8688 153.326 20.7315 153.028 20.8415C152.73 20.9515 152.78 21.0874 152.482 21.1974C152.184 21.3075 152.164 21.259 151.866 21.3691C151.566 21.4794 151.558 21.4549 151.26 21.565C150.96 21.6735 150.992 21.7624 150.694 21.8706C150.394 21.9792 150.379 21.9373 150.079 22.0459C149.779 22.1545 149.767 22.1212 149.467 22.228C149.166 22.3348 149.192 22.4063 148.894 22.5145C148.593 22.6213 148.583 22.5935 148.284 22.6981C147.983 22.8049 147.972 22.7735 147.671 22.8785C147.371 22.9834 147.363 22.9589 147.062 23.0639C146.761 23.1688 146.788 23.2457 146.489 23.3504C146.188 23.4554 146.172 23.4081 145.871 23.513C145.57 23.618 145.539 23.527 145.238 23.6302C144.937 23.7334 144.964 23.8103 144.663 23.9135C144.362 24.0166 144.342 23.9553 144.039 24.0588C143.737 24.1601 143.742 24.176 143.44 24.2774C143.139 24.3787 143.175 24.4856 142.873 24.587C142.572 24.6884 142.556 24.6429 142.255 24.7442C141.953 24.8456 141.92 24.7513 141.618 24.8509C141.317 24.9505 141.353 25.0645 141.052 25.1659C140.75 25.2655 140.754 25.2778 140.451 25.3777C140.149 25.4772 140.114 25.3758 139.813 25.4753C139.511 25.5731 139.512 25.5803 139.21 25.6799C138.908 25.7777 138.909 25.7813 138.607 25.879C138.305 25.9768 138.338 26.0804 138.036 26.1782C137.733 26.2741 137.689 26.1373 137.387 26.2351C137.082 26.3314 137.126 26.4646 136.822 26.5609C136.52 26.6569 136.521 26.6605 136.218 26.7565C135.916 26.8524 135.889 26.7719 135.586 26.8679C135.282 26.9624 135.285 26.9693 134.982 27.0635C134.679 27.1576 134.685 27.1807 134.383 27.2749C134.08 27.3691 134.073 27.3517 133.77 27.4459C133.467 27.5383 133.487 27.6089 133.184 27.7013C132.88 27.794 132.838 27.6548 132.533 27.7457C132.23 27.8381 132.228 27.8348 131.925 27.9272C131.621 28.0177 131.644 28.0953 131.339 28.1862C131.036 28.2768 131.036 28.2786 130.731 28.3695C130.426 28.4604 130.448 28.5325 130.142 28.6216C129.837 28.7107 129.823 28.6613 129.517 28.7504C129.212 28.8395 129.217 28.859 128.914 28.9496C128.608 29.0387 128.574 28.9168 128.268 29.0059C127.963 29.0932 128.006 29.245 127.702 29.332C127.396 29.4193 127.395 29.4121 127.089 29.4994C126.784 29.5867 126.755 29.4861 126.449 29.5734C126.143 29.6589 126.174 29.7703 125.869 29.8555C125.563 29.941 125.529 29.8191 125.223 29.9046C124.917 29.9901 124.908 29.962 124.604 30.0472C124.297 30.1309 124.327 30.2351 124.02 30.3188C123.716 30.4022 123.693 30.3246 123.386 30.4083C123.08 30.492 123.105 30.5822 122.799 30.6659C122.491 30.7499 122.483 30.716 122.176 30.7997C121.87 30.8816 121.881 30.9278 121.575 31.0097C121.268 31.0916 121.235 30.9676 120.928 31.0495C120.621 31.1314 120.649 31.2323 120.342 31.3124C120.035 31.3925 120.013 31.3147 119.706 31.3948C119.399 31.4749 119.39 31.4431 119.083 31.5232C118.776 31.6034 118.815 31.754 118.506 31.8326C118.199 31.911 118.193 31.8897 117.886 31.968C117.579 32.0463 117.551 31.9436 117.244 32.0219C116.936 32.1002 116.937 32.1038 116.629 32.1803C116.322 32.2586 116.342 32.3422 116.035 32.4187C115.727 32.4952 115.705 32.4119 115.397 32.4884C115.09 32.5649 115.111 32.6539 114.803 32.7304C114.496 32.807 114.491 32.7929 114.183 32.8694C113.876 32.9441 113.876 32.9495 113.567 33.0245C113.257 33.0996 113.262 33.1172 112.954 33.1919C112.644 33.267 112.626 33.1866 112.316 33.2617C112.008 33.3364 112.029 33.4218 111.719 33.4968C111.411 33.5697 111.415 33.5913 111.106 33.6642C110.798 33.7371 110.775 33.6373 110.464 33.7088C110.156 33.7799 110.156 33.7781 109.845 33.8495C109.536 33.9206 109.538 33.9314 109.23 34.0025C108.919 34.074 108.935 34.1435 108.627 34.2146C108.318 34.2839 108.314 34.2752 108.005 34.3446C107.696 34.4139 107.689 34.3818 107.378 34.4514C107.069 34.5207 107.065 34.5049 106.755 34.5724C106.446 34.6417 106.445 34.642 106.135 34.7095C105.826 34.7771 105.818 34.7396 105.507 34.8074C105.197 34.8749 105.203 34.9073 104.894 34.9748C104.583 35.0427 104.604 35.1317 104.293 35.1977C103.981 35.2637 103.957 35.1492 103.648 35.215C103.336 35.281 103.338 35.2789 103.026 35.3449C102.715 35.4109 102.708 35.3696 102.396 35.4338C102.086 35.4977 102.09 35.5193 101.78 35.5832C101.47 35.6471 101.474 35.6705 101.164 35.7326C100.852 35.7969 100.844 35.7501 100.532 35.8125C100.22 35.875 100.232 35.9322 99.9218 35.9943C99.6116 36.0565 99.6034 36.0208 99.2932 36.0829C98.983 36.145 99.0023 36.2437 98.6899 36.3043C98.3776 36.3649 98.3754 36.3523 98.0648 36.4127C97.7543 36.473 97.7414 36.4103 97.4309 36.4707C97.1203 36.531 97.1249 36.5673 96.814 36.6258C96.5017 36.6864 96.5032 36.6843 96.1905 36.7431C95.8779 36.802 95.8892 36.8556 95.5765 36.9145C95.2657 36.973 95.2426 36.8528 94.93 36.9116C94.6191 36.9701 94.6436 37.1087 94.3324 37.1654C94.0212 37.2221 94.0048 37.1397 93.6937 37.1964C93.3807 37.2534 93.3785 37.2408 93.0673 37.2976C92.754 37.3528 92.773 37.4496 92.4597 37.5049C92.1464 37.5601 92.1442 37.5475 91.8327 37.6024C91.5194 37.6577 91.5025 37.5512 91.1892 37.6065C90.8759 37.6617 90.8883 37.7319 90.5768 37.7868C90.2635 37.842 90.2686 37.8708 89.9568 37.9239C89.6435 37.9792 89.6483 38.0062 89.3365 38.0593C89.0229 38.1127 89.0146 38.066 88.7028 38.1191C88.3892 38.1725 88.3863 38.1452 88.0727 38.1987C87.7605 38.25 87.7714 38.3223 87.4593 38.3736C87.1454 38.4252 87.1434 38.4033 86.8295 38.455C86.5174 38.5063 86.5091 38.4595 86.1949 38.5094C85.8806 38.5592 85.8815 38.5535 85.5672 38.6033C85.2548 38.6529 85.2641 38.7161 84.9495 38.7642C84.6371 38.8137 84.6164 38.6857 84.3018 38.7337C83.9891 38.7814 83.9885 38.7778 83.6739 38.8259C83.3593 38.8739 83.3775 38.9876 83.0644 39.0335C82.7499 39.0816 82.7483 39.0726 82.4352 39.1185C82.1204 39.1647 82.1283 39.2097 81.8134 39.256C81.4985 39.3022 81.4764 39.1448 81.1615 39.191C80.8484 39.2369 80.8655 39.3656 80.5521 39.4097C80.2388 39.4539 80.2365 39.4413 79.9214 39.4857C79.6062 39.5302 79.5892 39.4126 79.2758 39.4567C78.9624 39.5009 78.965 39.5264 78.6495 39.569C78.3343 39.6135 78.3478 39.7112 78.0341 39.7536C77.7186 39.7962 77.7077 39.7128 77.394 39.7552C77.0803 39.7975 77.0806 39.7993 76.7651 39.8419C76.4514 39.8843 76.4569 39.9371 76.1432 39.9794C75.8274 40.0203 75.8241 39.98 75.5082 40.0209C75.1942 40.0614 75.2062 40.1613 74.8922 40.2018C74.5764 40.2427 74.5737 40.2172 74.2594 40.2559C73.9451 40.2947 73.9416 40.2749 73.6273 40.3136C73.3129 40.3523 73.3023 40.2707 72.9861 40.3098C72.6718 40.3485 72.6786 40.4085 72.364 40.4455C72.0497 40.4842 72.0374 40.3936 71.7228 40.4306C71.4081 40.4675 71.4101 40.4894 71.0951 40.5245C70.7787 40.5618 70.7795 40.5449 70.4627 40.5804C70.1477 40.6155 70.153 40.6665 69.838 40.7017C69.523 40.7368 69.535 40.8367 69.2186 40.874C68.9036 40.9091 68.8962 40.8566 68.5809 40.8899C68.2657 40.9233 68.2696 40.9671 67.9544 41.0004C67.6391 41.0338 67.627 40.9228 67.3117 40.9561C66.9964 40.9894 67.0065 41.0785 66.6894 41.1122C66.3741 41.1455 66.3784 41.1911 66.0628 41.2227C65.7475 41.256 65.7361 41.1486 65.4208 41.1819C65.1052 41.2135 65.1075 41.2372 64.7916 41.2669C64.476 41.2984 64.4721 41.2657 64.1562 41.2955C63.8402 41.3252 63.8508 41.4272 63.5348 41.457C63.2189 41.4867 63.216 41.4594 62.8997 41.4874C62.5838 41.5171 62.5871 41.5462 62.2708 41.5741C61.9546 41.6021 61.9458 41.4886 61.6278 41.5169C61.3115 41.5448 61.3198 41.6342 61.0036 41.6622C60.6874 41.6901 60.6799 41.595 60.3634 41.6211C60.0471 41.6491 60.046 41.6214 59.7294 41.6476C59.4129 41.6737 59.417 41.7286 59.1022 41.7545C58.7857 41.7806 58.7895 41.8133 58.4727 41.8376C58.1561 41.8638 58.1528 41.8236 57.8359 41.8479C57.519 41.8723 57.5207 41.8924 57.2038 41.9167C56.887 41.941 56.8922 42.0236 56.5771 42.0476C56.2603 42.072 56.2593 42.0666 55.9443 42.0906C55.6271 42.1131 55.6233 42.06 55.3079 42.0822C54.9907 42.1048 54.988 42.0681 54.6726 42.0904C54.3554 42.1129 54.3552 42.0907 54.0377 42.1114C53.7202 42.1322 53.7252 42.1814 53.4077 42.2021C53.0902 42.2229 53.0855 42.1328 52.768 42.1536C52.4505 42.1743 52.452 42.2148 52.1363 42.2353C51.8206 42.2557 51.8264 42.3622 51.5089 42.383C51.191 42.4019 51.1903 42.3872 50.8743 42.4059C50.5565 42.4248 50.5563 42.4026 50.2381 42.4197C49.9221 42.4383 49.9165 42.3429 49.5984 42.36C49.2802 42.3772 49.2834 42.3952 48.9653 42.4123C48.6471 42.4295 48.6486 42.4273 48.3305 42.4445C48.0141 42.4613 48.0156 42.5223 47.6992 42.5391C47.3808 42.5544 47.3847 42.5871 47.0662 42.6025C46.7477 42.6178 46.7464 42.568 46.4298 42.583C46.1128 42.5962 46.1134 42.6314 45.7964 42.6446C45.4795 42.6578 45.4798 42.6912 45.1628 42.7044C44.8458 42.7176 44.8404 42.6129 44.5235 42.6261C44.2065 42.6393 44.2055 42.6228 43.8885 42.636C43.5712 42.6475 43.5726 42.7084 43.2553 42.7199C42.9381 42.7313 42.9398 42.794 42.6225 42.8055C42.3052 42.8169 42.3022 42.7043 41.9831 42.7161C41.6655 42.7257 41.6688 42.829 41.3515 42.8404C41.0339 42.85 41.0343 42.863 40.7167 42.8726C40.3991 42.8822 40.3983 42.899 40.0808 42.9087C39.7628 42.9165 39.7622 42.8814 39.4443 42.8892C39.1264 42.897 39.1238 42.7973 38.8059 42.8052C38.4879 42.813 38.4901 42.8887 38.1722 42.8965C37.8542 42.9043 37.8546 42.9061 37.5366 42.914C37.2184 42.92 37.217 42.859 36.8988 42.8651C36.5805 42.8711 36.5812 42.9174 36.263 42.9234C35.9448 42.9294 35.9433 42.8574 35.6247 42.8616C35.3062 42.8658 35.307 42.9658 34.9887 42.9719C34.6702 42.9761 34.6693 42.865 34.3507 42.8692C34.0322 42.8734 34.0324 42.9383 33.7139 42.9426C33.395 42.945 33.3962 42.9411 33.0773 42.9435C32.7585 42.9459 32.7593 42.9402 32.4404 42.9427C32.1216 42.9451 32.1221 42.8949 31.8032 42.8974C31.484 42.898 31.4853 42.9794 31.1661 42.98C30.8487 42.9803 30.8478 43.0491 30.5286 43.0498C30.2094 43.0504 30.21 43.0429 29.8908 43.0435C29.5734 43.0439 29.5717 43.0237 29.254 43.0223C28.9346 43.0211 28.9359 43.0394 28.6164 43.0382C28.2969 43.0371 28.2976 42.935 27.9796 42.9317C27.6619 42.9302 27.661 42.9359 27.343 42.9326C27.025 42.9294 27.0243 42.8831 26.7063 42.8798C26.3883 42.8765 26.3876 42.8618 26.0696 42.8586C25.7497 42.8556 25.7512 42.885 25.4329 42.8799C25.1149 42.8767 25.1133 42.9103 24.795 42.9052C24.4767 42.9002 24.4767 42.9317 24.158 42.9248C23.8397 42.9197 23.8392 42.8957 23.5205 42.8888C23.2019 42.882 23.2006 42.9805 22.8823 42.9754C22.5636 42.9685 22.5642 42.9295 22.2456 42.9226C21.9269 42.9157 21.9293 42.8337 21.6103 42.825C21.2935 42.8178 21.2916 42.807 20.9726 42.7984C20.6537 42.7897 20.6519 42.8642 20.3329 42.8555C20.0139 42.8468 20.0156 42.7927 19.6967 42.7841C19.3774 42.7736 19.3743 42.8724 19.0571 42.8634C18.7397 42.8527 18.7382 42.8232 18.4207 42.8124C18.1033 42.8016 18.1032 42.759 17.7858 42.7482C17.4683 42.7374 17.4645 42.8215 17.1449 42.8093C16.8271 42.7967 16.8299 42.696 16.5121 42.6834C16.1943 42.6708 16.1953 42.6132 15.8776 42.6006C15.5598 42.588 15.5529 42.7394 15.2333 42.7271C14.9152 42.7128 14.9185 42.6361 14.6004 42.6217C14.2823 42.6073 14.2827 42.5887 13.9646 42.5743C13.6447 42.5602 13.6412 42.6462 13.3231 42.6318C13.005 42.6174 13.0104 42.4996 12.6923 42.4852C12.3739 42.469 12.3757 42.4372 12.0573 42.421C11.7389 42.4048 11.7358 42.4721 11.4171 42.4541C11.0987 42.4379 11.1021 42.3835 10.7834 42.3655C10.4647 42.3475 10.4618 42.4055 10.1431 42.3875C9.82435 42.3695 9.82075 42.4444 9.502 42.4264C9.18328 42.4084 9.18264 42.4048 8.86572 42.3865C8.54666 42.3667 8.55218 42.3027 8.23312 42.2829C7.91408 42.2631 7.91539 42.2387 7.59815 42.2186C7.27909 42.1988 7.28236 42.1538 6.96512 42.1336C6.64788 42.1135 6.63639 42.2602 6.31883 42.2383C6.00127 42.2164 6.00987 42.0851 5.6905 42.0635C5.37294 42.0416 5.37114 42.0419 5.05358 42.02C4.7357 41.9963 4.73786 41.9662 4.41818 41.9428C4.1003 41.9191 4.09185 42.03 3.77215 42.0067C3.45428 41.983 3.46036 41.9114 3.14035 41.8862C2.82248 41.8625 2.81167 41.9813 2.4938 41.9576C2.1756 41.9321 2.18589 41.7893 1.86772 41.7638C1.80148 41.7588 1.72608 41.7442 1.6458 41.7231C1.18513 41.6096 0.990176 41.0653 1.27418 40.6851L1.39377 40.5267L1.3845 40.5376Z" fill="#E69191"/>
<path d="M175.545 30.617C175.854 30.4753 175.64 30.2478 175.683 29.9362C175.724 29.6227 175.687 29.6219 175.729 29.3103C175.769 28.999 175.73 28.9967 175.77 28.6836C175.81 28.3723 175.831 28.3724 175.871 28.0611C175.911 27.7498 175.932 27.7499 175.97 27.4389C176.009 27.1279 176.043 27.1294 176.083 26.8163C176.121 26.5035 175.971 26.4985 176.009 26.1857C176.048 25.8747 176.072 25.8742 176.108 25.5635C176.145 25.2528 176.277 25.2575 176.313 24.9468C176.35 24.6361 176.26 24.6317 176.296 24.3192C176.332 24.0068 176.306 24.0076 176.343 23.6952C176.378 23.3848 176.481 23.3889 176.516 23.0767C176.55 22.7646 176.541 22.7644 176.576 22.454C176.61 22.1419 176.485 22.1381 176.519 21.826C176.554 21.5156 176.616 21.5177 176.649 21.2077C176.682 20.8958 176.66 20.8961 176.692 20.5842C176.725 20.2724 176.829 20.2782 176.862 19.9664C176.893 19.6549 176.735 19.6494 176.768 19.3393C176.799 19.0296 176.823 19.0291 176.855 18.7194C176.886 18.4097 176.957 18.4119 176.987 18.1026C177.018 17.7929 176.945 17.7891 176.974 17.4797C177.004 17.1703 177.005 17.17 177.035 16.8588C177.064 16.5495 177.049 16.5484 177.078 16.239C177.108 15.9297 177.083 15.9284 177.113 15.619C177.14 15.31 177.308 15.3157 177.334 15.007C177.361 14.6961 177.224 14.6924 177.251 14.3816C177.277 14.0728 177.369 14.0752 177.397 13.7661C177.423 13.4574 177.46 13.4582 177.486 13.1476C177.511 12.8389 177.449 12.835 177.475 12.5263C177.501 12.2175 177.527 12.2167 177.551 11.9082C177.575 11.5998 177.592 11.6005 177.616 11.2903C177.64 10.9819 177.521 10.9768 177.545 10.6684C177.569 10.3582 177.563 10.3591 177.587 10.0507C177.611 9.74228 177.636 9.74172 177.658 9.43362C177.68 9.12371 177.804 9.12782 177.824 8.82003C177.846 8.51013 178.093 8.29969 177.828 8.13486C177.566 7.9715 177.499 8.33955 177.212 8.48282C176.927 8.62577 176.894 8.56304 176.609 8.70599C176.324 8.84894 176.394 8.98879 176.109 9.13174C175.824 9.27469 175.794 9.21704 175.509 9.35999C175.222 9.50146 175.179 9.41451 174.893 9.55566C174.608 9.69681 174.641 9.76345 174.354 9.90312C174.067 10.0446 174.04 9.9899 173.753 10.1314C173.466 10.271 173.495 10.3308 173.21 10.4702C172.923 10.6098 172.899 10.562 172.612 10.6999C172.325 10.8396 172.339 10.8667 172.052 11.0064C171.764 11.1443 171.77 11.1562 171.482 11.2941C171.195 11.432 171.236 11.5157 170.946 11.6521C170.659 11.7899 170.603 11.6737 170.315 11.8097C170.027 11.9458 170.045 11.9853 169.757 12.1214C169.469 12.2574 169.481 12.2795 169.191 12.4141C168.901 12.5487 168.906 12.5571 168.616 12.6917C168.328 12.8259 168.299 12.7698 168.011 12.9023C167.721 13.0368 167.756 13.1104 167.466 13.2432C167.178 13.3756 167.164 13.352 166.876 13.4845C166.585 13.6173 166.586 13.6191 166.297 13.7516C166.007 13.8844 165.976 13.8174 165.686 13.9484C165.395 14.0794 165.383 14.0519 165.092 14.1829C164.802 14.3139 164.833 14.3827 164.543 14.5115C164.253 14.6407 164.227 14.5821 163.935 14.7117C163.644 14.8409 163.683 14.9266 163.39 15.0562C163.099 15.1854 163.072 15.1271 162.781 15.2563C162.49 15.3837 162.513 15.4372 162.221 15.5646C161.93 15.692 161.943 15.7231 161.652 15.8505C161.361 15.9779 161.371 16.0021 161.078 16.1298C160.784 16.2558 160.733 16.1349 160.44 16.2609C160.146 16.3868 160.181 16.466 159.887 16.5919C159.594 16.7161 159.606 16.7418 159.312 16.8659C159.018 16.99 158.984 16.9108 158.69 17.0331C158.396 17.1572 158.412 17.1916 158.118 17.3157C157.824 17.438 157.812 17.4141 157.518 17.5364C157.224 17.6588 156.994 17.4879 156.95 17.7962C156.905 18.1027 157.153 18.0163 157.402 18.2024C157.651 18.3866 157.703 18.3218 157.953 18.5078C158.204 18.6917 158.136 18.7759 158.387 18.9598C158.638 19.1437 158.705 19.0577 158.958 19.2413C159.209 19.4252 159.157 19.4918 159.408 19.6739C159.66 19.8575 159.649 19.8687 159.902 20.0505C160.154 20.2323 160.232 20.135 160.484 20.3168C160.737 20.4986 160.687 20.5649 160.939 20.7449C161.193 20.9264 161.196 20.9221 161.449 21.1039C161.703 21.2854 161.739 21.2381 161.993 21.4178C162.247 21.5993 162.186 21.6768 162.441 21.8582C162.694 22.0379 162.786 21.9234 163.04 22.1031C163.296 22.2824 163.265 22.3212 163.521 22.5005C163.777 22.6799 163.714 22.7613 163.97 22.9407C164.226 23.12 164.229 23.1158 164.486 23.2948C164.744 23.4738 164.811 23.386 165.068 23.5651C165.325 23.7423 165.333 23.7335 165.59 23.9107C165.847 24.0879 165.813 24.1349 166.07 24.3121C166.327 24.4893 166.344 24.4678 166.603 24.6447C166.862 24.8216 166.846 24.8392 167.105 25.0161C167.364 25.193 167.318 25.2512 167.577 25.4263C167.838 25.6029 167.853 25.5817 168.112 25.7568C168.372 25.9316 168.427 25.8607 168.687 26.0355C168.948 26.2103 168.872 26.309 169.132 26.4838C169.393 26.6586 169.47 26.5578 169.733 26.7322C169.995 26.9067 169.906 27.0188 170.169 27.1933C170.431 27.3659 170.473 27.312 170.735 27.4847C170.997 27.6574 171.01 27.6422 171.272 27.8167C171.536 27.989 171.514 28.0151 171.778 28.1874C172.042 28.3598 172.07 28.3213 172.334 28.4937C172.598 28.666 172.605 28.6555 172.871 28.8257C173.136 28.9977 173.141 28.9914 173.404 29.1619C173.67 29.3322 173.702 29.2913 173.965 29.4636C174.231 29.6339 174.223 29.6444 174.489 29.8147C174.754 29.9849 174.707 30.0359 174.912 30.2668C175.159 30.546 175.225 30.7606 175.536 30.6186L175.545 30.617Z" fill="#9EBFC3"/>
<path d="M151.558 40.4332C151.876 40.3178 151.708 40.2027 151.775 39.8941C151.842 39.5856 151.737 39.5707 151.804 39.2622C151.871 38.9536 151.882 38.9553 151.949 38.6449C152.014 38.3366 152.029 38.3377 152.094 38.0294C152.159 37.7212 152.203 37.7264 152.267 37.4185C152.33 37.1106 152.255 37.0996 152.319 36.7917C152.382 36.4837 152.449 36.4924 152.512 36.1826C152.575 35.8747 152.493 35.8632 152.554 35.5556C152.616 35.248 152.681 35.2551 152.742 34.9475C152.803 34.6381 152.746 34.6315 152.807 34.3221C152.869 34.0127 152.863 34.0118 152.924 33.7042C152.986 33.3948 153.133 33.4152 153.194 33.1058C153.254 32.7967 153.239 32.7956 153.298 32.4865C153.357 32.1774 153.289 32.1691 153.348 31.86C153.407 31.5509 153.432 31.554 153.49 31.247C153.548 30.9382 153.433 30.9232 153.491 30.6162C153.549 30.3075 153.56 30.3091 153.618 30.0022C153.676 29.6934 153.777 29.707 153.834 29.3983C153.89 29.0898 153.946 29.0967 154.002 28.7901C154.058 28.4834 153.928 28.4656 153.984 28.1589C154.04 27.8504 154.162 27.8678 154.218 27.5593C154.272 27.2512 154.182 27.241 154.236 26.9329C154.29 26.6247 154.346 26.6317 154.4 26.3253C154.454 26.0172 154.464 26.0192 154.516 25.7114C154.568 25.4036 154.589 25.4054 154.641 25.0994C154.693 24.7916 154.596 24.7791 154.648 24.4713C154.7 24.1635 154.656 24.1582 154.707 23.8507C154.757 23.5432 154.748 23.543 154.798 23.2355C154.848 22.928 155.001 22.9474 155.053 22.6396C155.104 22.3321 155.1 22.331 155.148 22.0238C155.197 21.7166 155.208 21.7183 155.257 21.4111C155.305 21.1039 155.313 21.1062 155.361 20.7973C155.41 20.4901 155.378 20.4865 155.426 20.1793C155.475 19.8722 155.492 19.8747 155.539 19.5678C155.585 19.261 155.505 19.251 155.55 18.9426C155.597 18.6358 155.931 18.4785 155.683 18.2904C155.436 18.104 155.355 18.4392 155.06 18.5597C154.766 18.6784 154.78 18.7149 154.485 18.8336C154.19 18.9524 154.207 18.9939 153.912 19.1127C153.618 19.2314 153.562 19.0929 153.267 19.2098C152.972 19.3268 153.012 19.4273 152.717 19.5442C152.422 19.6611 152.421 19.6575 152.125 19.7748C151.828 19.892 151.79 19.7966 151.495 19.9117C151.198 20.0271 151.214 20.0651 150.917 20.1788C150.621 20.2939 150.606 20.2595 150.31 20.3728C150.013 20.4865 150.061 20.6097 149.766 20.7249C149.468 20.8385 149.42 20.7153 149.125 20.8286C148.829 20.9419 148.828 20.944 148.532 21.0574C148.234 21.1692 148.235 21.171 147.939 21.2825C147.641 21.3944 147.655 21.4309 147.357 21.5427C147.06 21.6546 147.045 21.6163 146.747 21.7263C146.449 21.8364 146.463 21.8693 146.163 21.9796C145.865 22.0897 145.89 22.1576 145.592 22.2677C145.294 22.3777 145.255 22.2751 144.957 22.3833C144.659 22.4916 144.655 22.4829 144.357 22.5912C144.058 22.6994 144.07 22.7308 143.771 22.8373C143.472 22.9437 143.484 22.9788 143.185 23.0852C142.887 23.1917 142.88 23.1725 142.579 23.2793C142.28 23.3857 142.273 23.3666 141.974 23.4712C141.674 23.5762 141.665 23.5463 141.364 23.6512C141.065 23.7559 141.111 23.8888 140.81 23.9919C140.509 24.0969 140.503 24.0738 140.202 24.177C139.901 24.2802 139.862 24.1647 139.56 24.266C139.259 24.3692 139.288 24.4494 138.987 24.5508C138.685 24.6521 138.693 24.6749 138.392 24.7763C138.09 24.8776 138.059 24.7866 137.758 24.888C137.456 24.9876 137.459 24.9963 137.158 25.0976C136.856 25.1972 136.893 25.3113 136.593 25.4105C136.292 25.5101 136.272 25.4523 135.97 25.5519C135.668 25.6497 135.676 25.6706 135.372 25.7705C135.07 25.8683 135.039 25.7755 134.736 25.8715C134.434 25.9693 134.293 25.8551 134.223 26.1586C134.153 26.4621 134.421 26.3166 134.654 26.5241C134.888 26.7296 134.839 26.7808 135.075 26.9859C135.309 27.1913 135.357 27.1382 135.592 27.3454C135.826 27.5508 135.825 27.553 136.06 27.7562C136.294 27.9616 136.305 27.9504 136.541 28.1555C136.777 28.3606 136.793 28.343 137.029 28.5463C137.264 28.7496 137.153 28.8712 137.391 29.0741C137.626 29.2774 137.719 29.1794 137.957 29.3824C138.194 29.5854 138.133 29.6518 138.368 29.8551C138.606 30.058 138.581 30.0847 138.818 30.2877C139.057 30.4903 139.098 30.4461 139.337 30.6469C139.576 30.8495 139.558 30.8696 139.796 31.0704C140.036 31.2731 140.025 31.2843 140.264 31.4869C140.503 31.6878 140.585 31.601 140.825 31.8016C141.066 32.0021 141.069 31.9996 141.31 32.2002C141.551 32.4007 141.534 32.4186 141.775 32.6209C142.015 32.8215 141.931 32.9142 142.173 33.1127C142.416 33.3129 142.417 33.3107 142.66 33.5092C142.902 33.7076 142.952 33.6542 143.194 33.8526C143.437 34.051 143.385 34.1065 143.629 34.3064C143.871 34.5048 143.984 34.3829 144.228 34.581C144.472 34.779 144.425 34.83 144.669 35.0281C144.914 35.2262 144.843 35.3017 145.087 35.4998C145.331 35.6979 145.384 35.6403 145.63 35.8362C145.876 36.034 145.832 36.0807 146.077 36.2767C146.323 36.4745 146.37 36.4217 146.617 36.6174C146.864 36.813 146.826 36.857 147.071 37.0529C147.318 37.2486 147.34 37.2243 147.588 37.42C147.835 37.6156 147.844 37.6047 148.092 37.8004C148.339 37.996 148.406 37.9229 148.654 38.1168C148.903 38.3121 148.81 38.4137 149.057 38.6076C149.307 38.8029 149.338 38.7677 149.587 38.9613C149.837 39.1545 149.853 39.1351 150.104 39.3301C150.352 39.5237 150.361 39.5167 150.609 39.7102C150.86 39.9034 150.863 39.901 151.061 40.1425C151.257 40.3843 151.249 40.5508 151.568 40.4352L151.558 40.4332Z" fill="#E69191"/>
<path d="M126.978 48.4455C127.304 48.3565 127.149 48.1389 127.241 47.8351C127.334 47.5314 127.172 47.4968 127.264 47.1912C127.356 46.8875 127.395 46.8955 127.485 46.5921C127.576 46.2887 127.523 46.2775 127.613 45.9723C127.703 45.6689 127.808 45.6912 127.897 45.3881C127.985 45.085 128.047 45.0982 128.135 44.7933C128.224 44.4884 128.202 44.4847 128.291 44.1798C128.379 43.8767 128.371 43.8744 128.46 43.5713C128.546 43.2686 128.474 43.2516 128.561 42.9488C128.647 42.6442 128.733 42.6644 128.819 42.3598C128.906 42.0552 128.875 42.0495 128.959 41.7453C129.044 41.441 128.962 41.4239 129.047 41.1196C129.131 40.8154 129.244 40.84 129.328 40.5358C129.413 40.2315 129.316 40.2097 129.399 39.9076C129.482 39.6036 129.565 39.6205 129.648 39.3184C129.731 39.0144 129.599 38.9858 129.681 38.6818C129.764 38.3779 129.783 38.3819 129.866 38.078C129.947 37.7743 130.09 37.8047 130.173 37.5008C130.254 37.1971 130.105 37.166 130.186 36.8623C130.267 36.5587 130.323 36.5711 130.404 36.2692C130.483 35.966 130.435 35.9559 130.514 35.6526C130.593 35.3494 130.711 35.3748 130.79 35.0716C130.87 34.7683 130.893 34.7734 130.97 34.4704C131.049 34.1671 130.896 34.1348 130.975 33.8297C131.052 33.5267 131.138 33.5451 131.214 33.2403C131.291 32.9355 131.305 32.9405 131.382 32.6357C131.46 32.3327 131.409 32.3212 131.485 32.0186C131.56 31.7141 131.573 31.7173 131.649 31.4146C131.724 31.1102 131.819 31.1305 131.893 30.8282C131.966 30.524 131.958 30.5235 132.034 30.2191C132.107 29.9149 132.08 29.9104 132.153 29.6063C132.227 29.3021 132.163 29.2893 132.236 28.9852C132.31 28.681 132.329 28.6868 132.401 28.383C132.472 28.0792 132.418 28.0683 132.49 27.7645C132.561 27.4607 132.683 27.4856 132.755 27.1817C132.826 26.8779 133.107 26.7134 132.874 26.5041C132.643 26.2962 132.546 26.7289 132.242 26.8252C131.939 26.9193 131.909 26.8244 131.607 26.9186C131.304 27.0128 131.317 27.0532 131.014 27.1474C130.711 27.2416 130.682 27.1503 130.379 27.2426C130.076 27.335 130.085 27.365 129.782 27.4573C129.479 27.5497 129.481 27.5623 129.178 27.6529C128.975 27.7135 128.772 27.7746 128.57 27.8362C128.265 27.9271 128.27 27.9354 127.965 28.0245C127.659 28.1154 127.667 28.1382 127.363 28.227C127.06 28.3157 127.079 28.3846 126.774 28.4737C126.469 28.5628 126.424 28.4056 126.118 28.4929C125.814 28.5799 125.836 28.6631 125.532 28.7501C125.227 28.8374 125.23 28.8443 124.924 28.9316C124.618 29.0189 124.622 29.0276 124.316 29.1131C124.011 29.1983 123.988 29.1189 123.682 29.2044C123.376 29.2899 123.415 29.4277 123.109 29.5114C122.803 29.5969 122.77 29.4783 122.464 29.562C122.158 29.6457 122.191 29.7622 121.885 29.8459C121.578 29.9296 121.545 29.8038 121.238 29.8857C120.932 29.9694 120.958 30.0631 120.651 30.145C120.344 30.227 120.342 30.2144 120.035 30.2963C119.729 30.3782 119.726 30.3638 119.419 30.4439C119.112 30.524 119.103 30.4829 118.796 30.563C118.489 30.6431 118.507 30.7123 118.2 30.7925C117.893 30.8726 117.878 30.8084 117.569 30.8889C117.261 30.9672 117.28 31.0436 116.973 31.1219C116.666 31.2002 116.65 31.1418 116.344 31.218C116.036 31.2945 116.049 31.3478 115.742 31.4243C115.434 31.5008 115.435 31.5062 115.127 31.5827C114.82 31.6592 114.786 31.5205 114.476 31.5955C114.168 31.6703 114.171 31.6864 113.863 31.7594C113.555 31.8341 113.57 31.8982 113.262 31.9729C112.954 32.0476 112.947 32.0227 112.639 32.0974C112.331 32.1704 112.356 32.2791 112.048 32.352C111.738 32.4253 111.736 32.4145 111.425 32.4859C111.115 32.5591 110.859 32.2518 110.764 32.5505C110.669 32.8474 110.946 32.8376 111.161 33.0648C111.377 33.2902 111.47 33.2051 111.687 33.4302C111.902 33.6556 111.814 33.738 112.031 33.9631C112.248 34.1882 112.314 34.1265 112.531 34.3516C112.748 34.5767 112.708 34.6135 112.925 34.8386C113.144 35.0634 113.136 35.0704 113.354 35.2934C113.573 35.5181 113.559 35.5318 113.777 35.7548C113.996 35.9778 114.068 35.913 114.287 36.136C114.507 36.3587 114.54 36.3289 114.76 36.5516C114.98 36.7743 114.987 36.7676 115.207 36.9921C115.428 37.2147 115.314 37.3201 115.534 37.5428C115.754 37.7655 115.758 37.763 115.98 37.9854C116.202 38.2077 116.194 38.2147 116.416 38.4371C116.638 38.6594 116.632 38.6643 116.854 38.8866C117.076 39.109 117.1 39.0862 117.324 39.3082C117.548 39.5285 117.533 39.5421 117.757 39.7642C117.982 39.9862 118.044 39.927 118.268 40.149C118.492 40.3692 118.448 40.4102 118.672 40.6305C118.896 40.8507 118.926 40.823 119.15 41.0433C119.376 41.2632 119.404 41.2358 119.63 41.454C119.855 41.6739 119.89 41.6417 120.116 41.8598C120.343 42.0794 120.227 42.1869 120.453 42.405C120.68 42.6246 120.763 42.545 120.99 42.7628C121.217 42.9806 121.215 42.9827 121.443 43.2023C121.672 43.4198 121.592 43.4951 121.82 43.7126C122.049 43.9301 122.08 43.9024 122.309 44.1199C122.537 44.3374 122.509 44.3647 122.737 44.5822C122.966 44.7996 123.071 44.7033 123.299 44.9208C123.53 45.138 123.427 45.2339 123.658 45.4511C123.889 45.6683 123.892 45.6658 124.122 45.8812C124.353 46.0983 124.354 46.0962 124.586 46.3112C124.819 46.5263 124.849 46.4986 125.081 46.7137C125.313 46.9287 125.281 46.9585 125.516 47.175C125.748 47.39 125.775 47.3648 126.009 47.5795C126.243 47.7942 126.373 47.6988 126.54 47.9644C126.731 48.2646 126.647 48.528 126.976 48.4383L126.978 48.4455Z" fill="#9EBFC3"/>
<path d="M101.823 54.3462C102.155 54.2838 101.983 54.0081 102.099 53.7113C102.215 53.4145 102.181 53.4038 102.297 53.107C102.413 52.8102 102.46 52.8241 102.574 52.5277C102.688 52.2312 102.551 52.1885 102.665 51.8921C102.779 51.5956 102.85 51.6165 102.964 51.3201C103.078 51.0236 103.141 51.0422 103.253 50.746C103.367 50.4496 103.219 50.4034 103.331 50.1054C103.444 49.809 103.547 49.841 103.661 49.5445C103.773 49.2466 103.702 49.2257 103.814 48.9278C103.926 48.6298 103.934 48.634 104.046 48.336C104.157 48.0381 104.175 48.0442 104.285 47.7466C104.395 47.449 104.334 47.4301 104.444 47.1343C104.554 46.8367 104.586 46.8478 104.696 46.5502C104.806 46.2525 104.784 46.2471 104.893 45.9498C105.001 45.6525 104.987 45.6475 105.095 45.3502C105.203 45.0529 105.345 45.0965 105.452 44.7995C105.558 44.5026 105.51 44.4868 105.617 44.1899C105.723 43.8929 105.76 43.903 105.867 43.606C105.973 43.3091 105.977 43.3102 106.082 43.0136C106.186 42.7169 106.079 42.6838 106.184 42.3872C106.288 42.0905 106.361 42.1129 106.466 41.8144C106.57 41.516 106.611 41.529 106.716 41.2324C106.819 40.9361 106.795 40.9273 106.899 40.6306C107.002 40.3325 106.883 40.2959 106.986 39.9996C107.089 39.7032 107.24 39.7488 107.343 39.4507C107.445 39.1525 107.349 39.125 107.451 38.8269C107.552 38.5291 107.631 38.5523 107.73 38.2548C107.83 37.957 107.771 37.9396 107.872 37.6418C107.972 37.3439 108.006 37.3547 108.105 37.0572C108.203 36.7597 108.115 36.7327 108.213 36.4352C108.312 36.1377 108.371 36.1551 108.47 35.8576C108.569 35.5601 108.577 35.5625 108.676 35.265C108.773 34.9678 108.845 34.9884 108.944 34.6909C109.041 34.3937 108.885 34.347 108.982 34.048C109.079 33.749 109.167 33.776 109.264 33.4788C109.361 33.1799 109.673 33.0934 109.458 32.8641C109.245 32.6365 109.142 32.9866 108.833 33.0541C108.524 33.1235 108.525 33.1288 108.216 33.1982C107.907 33.2657 107.889 33.1872 107.58 33.2565C107.271 33.324 107.285 33.3938 106.976 33.4613C106.667 33.5289 106.67 33.5504 106.361 33.618C106.052 33.6837 106.033 33.5998 105.724 33.6673C105.414 33.733 105.416 33.7456 105.107 33.8113C104.797 33.877 104.795 33.8662 104.484 33.9305C104.174 33.9944 104.166 33.9587 103.856 34.0226C103.546 34.0865 103.574 34.228 103.262 34.2905C102.952 34.3526 102.932 34.2597 102.622 34.3218C102.312 34.3839 102.303 34.3447 101.993 34.4068C101.681 34.4692 101.683 34.4743 101.371 34.5349C101.061 34.5952 101.077 34.6906 100.767 34.7509C100.456 34.8112 100.449 34.7828 100.139 34.8431C99.8266 34.9037 99.8158 34.8426 99.5053 34.9029C99.1926 34.9617 99.2132 35.0675 98.9023 35.126C98.5897 35.1849 98.5754 35.1039 98.2642 35.1607C97.9531 35.2174 97.9408 35.1583 97.6299 35.2169C97.317 35.2739 97.3457 35.4265 97.0328 35.4835C96.7195 35.5388 96.7149 35.5025 96.4017 35.5577C96.0884 35.6129 96.0972 35.6633 95.7858 35.7182C95.4743 35.7732 95.4547 35.6727 95.1432 35.7277C94.8299 35.7829 94.8213 35.7232 94.508 35.7785C94.1965 35.8334 94.2 35.8532 93.8864 35.9066C93.5746 35.9597 93.5737 35.9655 93.2616 36.0168C92.9498 36.0699 92.9601 36.1386 92.648 36.1899C92.3359 36.2412 92.3213 36.1585 92.0073 36.2101C91.6934 36.2618 91.6985 36.2905 91.3846 36.3422C91.0703 36.392 91.0846 36.473 90.7704 36.5228C90.4561 36.5727 90.4407 36.4641 90.1265 36.514C89.8122 36.5638 89.8269 36.6577 89.5145 36.7072C89.1999 36.7552 89.1881 36.6776 88.875 36.7235C88.5605 36.7715 88.5794 36.8999 88.2666 36.9476C87.9521 36.9957 87.9483 36.9741 87.6337 37.0221C87.3188 37.0684 87.0392 36.7319 86.9207 37.0236C86.8019 37.3135 87.2454 37.2557 87.4415 37.4993C87.6379 37.7448 87.5916 37.7789 87.7898 38.024C87.9859 38.2677 88.027 38.2363 88.2234 38.4817C88.4213 38.7251 88.3261 38.7993 88.524 39.0427C88.7219 39.286 88.7039 39.3003 88.9017 39.5436C89.0996 39.787 89.2228 39.6911 89.4206 39.9344C89.6203 40.1774 89.5531 40.2301 89.751 40.4734C89.9507 40.7164 89.9392 40.7258 90.1404 40.9667C90.3401 41.2097 90.381 41.1766 90.5825 41.4192C90.7837 41.6601 90.7723 41.6696 90.9738 41.9122C91.1771 42.1546 91.0981 42.2149 91.3011 42.4555C91.5023 42.6964 91.5107 42.6912 91.7122 42.9339C91.9152 43.1744 91.9365 43.1577 92.1395 43.3983C92.3425 43.6388 92.3951 43.598 92.5981 43.8386C92.8011 44.0792 92.7846 44.0914 92.9894 44.3316C93.1942 44.5719 93.2383 44.5363 93.4431 44.7765C93.6479 45.0168 93.548 45.0956 93.7528 45.3359C93.8893 45.496 94.0264 45.6561 94.1642 45.816C94.3708 46.056 94.4951 45.9562 94.7014 46.1943C94.9077 46.4324 94.8258 46.497 95.0324 46.7369C95.2387 46.975 95.2747 46.9464 95.4813 47.1863C95.6898 47.426 95.6108 47.4863 95.8192 47.7259C96.0273 47.9637 96.0534 47.9424 96.2616 48.1802C96.4697 48.418 96.4814 48.4104 96.6895 48.6482C96.8283 48.8067 96.9682 48.9651 97.1094 49.1232C97.3193 49.3607 97.3274 49.3537 97.5373 49.5912C97.7473 49.8287 97.7686 49.8119 97.9782 50.0476C98.1881 50.2851 98.2488 50.2373 98.4587 50.4748C98.6704 50.712 98.5344 50.8194 98.7461 51.0566C98.9597 51.2935 99.0281 51.2369 99.2414 51.4719C99.4546 51.707 99.4612 51.7021 99.6726 51.9375C99.8859 52.1726 99.8943 52.1674 100.108 52.4024C100.321 52.6375 100.252 52.6923 100.466 52.9291C100.681 53.1639 100.798 53.0689 101.013 53.3036C101.228 53.5384 101.194 53.5667 101.335 53.846C101.506 54.1795 101.488 54.4163 101.822 54.3537L101.823 54.3462Z" fill="#E69191"/>
<path d="M76.2253 57.9917C76.5626 57.9563 76.4405 57.8035 76.5823 57.517C76.7219 57.229 76.738 57.2354 76.8777 56.9474C77.0173 56.6594 76.9934 56.6506 77.1331 56.3626C77.2728 56.0746 77.2066 56.0492 77.3463 55.7612C77.4842 55.4735 77.5685 55.5068 77.7063 55.2191C77.8442 54.9314 77.7396 54.8887 77.8774 54.601C78.0153 54.3133 77.985 54.3001 78.1228 54.0124C78.2607 53.7247 78.2668 53.7274 78.4046 53.4397C78.5407 53.1523 78.5385 53.1508 78.6743 52.8617C78.8103 52.5743 78.9007 52.6103 79.0346 52.3214C79.1704 52.0323 79.2128 52.0507 79.3486 51.7616C79.4825 51.4727 79.376 51.4303 79.51 51.1414C79.6439 50.8526 79.6057 50.8371 79.7399 50.55C79.872 50.2615 79.9824 50.3051 80.1145 50.0166C80.2484 49.7277 80.2545 49.7303 80.3866 49.4418C80.5187 49.1533 80.4563 49.1272 80.5884 48.8387C80.7205 48.5501 80.7102 48.5445 80.8405 48.2563C80.9708 47.9681 80.9462 47.9558 81.0765 47.6675C81.2068 47.3793 81.3293 47.4282 81.4593 47.1382C81.5896 46.85 81.461 46.7985 81.5913 46.5103C81.7216 46.2221 81.7316 46.2259 81.8598 45.9362C81.988 45.6465 82.0644 45.6775 82.1926 45.3878C82.3207 45.0981 82.2225 45.0598 82.3506 44.7701C82.4788 44.4804 82.5352 44.5039 82.6616 44.2145C82.788 43.9251 82.8601 43.9532 82.9865 43.6638C83.1129 43.3745 82.9661 43.315 83.0906 43.026C83.2152 42.7369 83.2974 42.7688 83.4216 42.4779C83.548 42.1886 83.4636 42.1552 83.5879 41.8644C83.7124 41.5753 83.7321 41.5811 83.8549 41.2924C83.9773 41.0018 84.0855 41.044 84.208 40.7534C84.3304 40.4629 84.3425 40.4682 84.465 40.1776C84.5874 39.8871 84.5474 39.8719 84.6698 39.5814C84.7922 39.2908 84.7783 39.2859 84.8986 38.9939C84.979 38.8004 85.0594 38.6069 85.1398 38.4134C85.2604 38.1232 85.2761 38.1279 85.3968 37.8377C85.5174 37.5474 85.8288 37.4814 85.6339 37.2339C85.4411 36.9878 85.2973 37.2524 84.9821 37.2968C84.6687 37.341 84.6787 37.419 84.3635 37.4634C84.0498 37.5057 84.0379 37.417 83.7224 37.4596C83.4087 37.5019 83.4236 37.618 83.1096 37.6585C82.7955 37.6991 82.7778 37.5668 82.4638 37.6073C82.148 37.6482 82.1507 37.6533 81.8346 37.6923C81.5188 37.7332 81.5351 37.8471 81.2193 37.888C80.905 37.9267 80.8982 37.8778 80.5839 37.9166C80.2695 37.9553 80.2751 38.0081 79.9608 38.0468C79.6465 38.0856 79.6494 38.1129 79.3333 38.1519C79.0186 38.1888 79.0158 38.1727 78.7008 38.2078C78.3861 38.2447 78.3803 38.2012 78.0654 38.2364C77.7504 38.2715 77.7429 38.2079 77.4279 38.243C77.113 38.2782 77.1147 38.2983 76.7994 38.3316C76.4844 38.3668 76.4782 38.3103 76.1629 38.3437C75.8458 38.3773 75.864 38.5336 75.5488 38.567C75.2335 38.6003 75.2201 38.4821 74.9048 38.5154C74.5895 38.5488 74.5885 38.5323 74.2711 38.5641C73.9555 38.5957 73.9564 38.6011 73.639 38.6329C73.3216 38.6648 73.3255 38.6975 73.0099 38.729C72.694 38.7587 72.6897 38.7131 72.3737 38.7429C72.0578 38.7726 72.0707 38.9094 71.7527 38.9377C71.4368 38.9674 71.4302 38.8981 71.1139 38.9261C70.7977 38.954 70.7923 38.8919 70.4761 38.9198C70.1599 38.9478 70.1726 39.0939 69.8563 39.1218C69.5401 39.1498 69.5307 39.0439 69.2145 39.0718C68.898 39.0979 68.9031 39.1694 68.5865 39.1955C68.27 39.2216 68.2684 39.2126 67.9515 39.237C67.635 39.2631 67.6333 39.243 67.3164 39.2674C66.9995 39.2917 67.0046 39.352 66.6862 39.3785C66.3693 39.4028 66.3654 39.3701 66.0482 39.3927C65.7311 39.4152 65.7331 39.4371 65.4159 39.4597C65.0987 39.4822 65.0991 39.4951 64.7819 39.5177C64.4644 39.5384 64.4545 39.3973 64.137 39.4181C63.8194 39.4388 63.8226 39.4883 63.5029 39.5076C63.1836 39.5287 62.9674 39.2552 62.8246 39.5363C62.6818 39.8175 62.9989 39.8469 63.1739 40.1091C63.349 40.3713 63.4428 40.3102 63.6194 40.5703C63.7962 40.8322 63.7325 40.8731 63.9109 41.1328C64.0874 41.3929 64.0508 41.4179 64.2291 41.6777C64.4075 41.9374 64.4277 41.9246 64.606 42.1843C64.7844 42.4441 64.8881 42.3757 65.0665 42.6355C65.2449 42.8952 65.1129 42.9834 65.2913 43.2432C65.4715 43.5026 65.5532 43.4474 65.7334 43.7068C65.9118 43.9666 65.8451 44.0117 66.0253 44.2711C66.2054 44.5306 66.2574 44.4973 66.4391 44.7546C66.6211 45.0137 66.5893 45.0342 66.7713 45.2933C66.9533 45.5524 67.0317 45.4996 67.2137 45.7587C67.3957 46.0178 67.3437 46.0511 67.5257 46.3102C67.7077 46.5693 67.7011 46.5742 67.8846 46.8312C68.0684 47.09 68.0031 47.133 68.1866 47.39C68.3701 47.647 68.509 47.5558 68.6946 47.8142C68.8799 48.0709 68.7996 48.124 68.9835 48.3828C69.1688 48.6395 69.1622 48.6444 69.3475 48.901C69.5328 49.1577 69.5844 49.1226 69.7701 49.3811C69.9572 49.6375 69.962 49.6329 70.1473 49.8896C70.3344 50.1459 70.2625 50.1938 70.4512 50.4481C70.6383 50.7044 70.7002 50.6638 70.8891 50.9199C71.078 51.1759 71.0961 51.1616 71.285 51.4176C71.4739 51.6737 71.3987 51.724 71.5877 51.9801C71.7766 52.2361 71.7883 52.2285 71.9769 52.4827C72.1659 52.7387 72.1559 52.746 72.3464 53C72.5368 53.2539 72.5034 53.2765 72.6941 53.5322C72.8846 53.7861 73.0117 53.7025 73.2021 53.9564C73.3944 54.21 73.3093 54.2676 73.5015 54.5212C73.6938 54.7748 73.6589 54.7995 73.8511 55.0531C74.0434 55.3067 74.0485 55.304 74.2407 55.5576C74.4329 55.8112 74.5183 55.7553 74.7123 56.0086C74.9064 56.2619 74.8796 56.2796 75.0755 56.5325C75.2695 56.7858 75.216 56.8212 75.4104 57.0763C75.6062 57.3293 75.772 57.2425 75.9032 57.531C76.0325 57.8198 75.8913 58.0246 76.2286 57.9892L76.2253 57.9917Z" fill="#9EBFC3"/>
<path d="M50.3675 59.6836C50.7081 59.6773 50.5721 59.4676 50.7379 59.1898C50.9018 58.9123 50.8117 58.867 50.9756 58.5896C51.1396 58.3121 51.1089 58.2971 51.2732 58.0215C51.4371 57.744 51.5664 57.8103 51.7286 57.5331C51.8907 57.256 51.792 57.2048 51.9545 56.9294C52.1166 56.6523 52.2232 56.7059 52.3853 56.4287C52.5474 56.1516 52.4815 56.1168 52.6419 55.84C52.8022 55.5632 52.7755 55.5494 52.9355 55.2708C53.0958 54.994 53.0566 54.973 53.2169 54.6962C53.3769 54.4176 53.4695 54.4662 53.6295 54.1876C53.7895 53.909 53.8102 53.9202 53.9684 53.6419C54.1266 53.3636 54.0386 53.3198 54.1967 53.0415C54.3549 52.7632 54.4226 52.7976 54.579 52.5197C54.7372 52.2414 54.7597 52.2522 54.916 51.9743C55.0724 51.6963 55.0518 51.6851 55.2082 51.4071C55.3645 51.1292 55.3093 51.1018 55.4654 50.822C55.6217 50.5441 55.6381 50.5523 55.7942 50.2725C55.9485 49.9931 55.9566 49.9972 56.1109 49.7177C56.2651 49.4383 56.3186 49.466 56.471 49.1868C56.6253 48.9074 56.5722 48.8815 56.7249 48.6042C56.8774 48.325 56.8549 48.3142 57.0073 48.035C57.1598 47.7559 57.2439 47.7986 57.396 47.5176C57.5466 47.2388 57.4276 47.1782 57.5801 46.8991C57.7322 46.6181 57.7696 46.6394 57.9199 46.3588C58.0705 46.0799 58.1154 46.1017 58.2657 45.8211C58.4161 45.5405 58.4449 45.5558 58.5934 45.2755C58.7419 44.9952 58.6457 44.9473 58.796 44.6666C58.9445 44.3864 59.0671 44.4463 59.2138 44.1664C59.3623 43.8861 59.3502 43.8808 59.4987 43.6005C59.6472 43.3202 59.6575 43.3258 59.8039 43.044C59.9506 42.7641 59.9566 42.7667 60.1033 42.4867C60.2497 42.205 60.2194 42.1918 60.3657 41.91C60.5124 41.63 60.4059 41.5765 60.5526 41.2965C60.6972 41.015 60.7891 41.06 60.9337 40.7786C61.0782 40.4971 61.0661 40.4918 61.2107 40.2104C61.3552 39.9289 61.6828 39.8805 61.5092 39.6162C61.3359 39.3536 61.1586 39.6502 60.8422 39.667C60.5259 39.6838 60.5209 39.6235 60.2045 39.6403C59.8864 39.6575 59.8922 39.7325 59.5737 39.7478C59.2552 39.7632 59.2585 39.8238 58.9421 39.8407C58.6237 39.856 58.6177 39.7161 58.301 39.7311C57.9844 39.7462 57.9849 39.8017 57.6679 39.8149C57.3491 39.8285 57.3512 39.8615 57.0324 39.8751C56.7137 39.8886 56.7131 39.8219 56.3943 39.8355C56.0756 39.849 56.0788 39.9097 55.7615 39.9211C55.4442 39.9325 55.445 39.9899 55.1277 40.0013C54.8086 40.0131 54.8076 39.9224 54.4885 39.9341C54.1694 39.9459 54.1684 39.8978 53.8508 39.9075C53.5332 39.9171 53.5356 39.9945 53.2162 40.0045C52.8968 40.0145 52.8996 40.0511 52.5801 40.061C52.2604 40.0692 52.2619 40.0244 51.9421 40.0326C51.6242 40.0404 51.6235 40.0683 51.3056 40.0762C50.9877 40.084 50.9862 40.0861 50.668 40.0921C50.3497 40.0982 50.3501 40.1426 50.0319 40.1487C49.7119 40.155 49.7107 40.0105 49.3924 40.0166C49.0739 40.0208 49.0731 40.0061 48.7549 40.0121C48.4364 40.0164 48.4369 40.0404 48.1183 40.0446C47.7998 40.0489 47.8003 40.1155 47.4815 40.118C47.1626 40.1204 47.1625 40.0351 46.8436 40.0375C46.5247 40.04 46.525 40.1475 46.2062 40.1499C45.8873 40.1524 45.8869 40.1821 45.5678 40.1828C45.2486 40.1834 45.2491 40.1759 44.9299 40.1765C44.6107 40.1772 44.6114 40.1807 44.2919 40.1796C43.9724 40.1784 43.9728 40.0856 43.6533 40.0844C43.3338 40.0833 43.3331 40.037 43.0154 40.0356C42.6959 40.0344 42.6947 40.144 42.3752 40.1429C42.0554 40.1399 42.0548 40.179 41.7368 40.1757C41.417 40.1727 41.4194 40.0592 41.0993 40.0544C40.7791 40.0496 40.78 40.0439 40.4598 40.0392C40.1415 40.0341 40.1381 40.0996 39.8198 40.0945C39.4997 40.0898 39.4998 40.1009 39.1793 40.0943C38.8589 40.0878 38.7457 39.8165 38.5787 40.0871C38.4131 40.3555 38.6174 40.3807 38.7723 40.6558C38.9275 40.9326 39.0449 40.8674 39.2001 41.1442C39.3554 41.421 39.3448 41.4247 39.5001 41.7015C39.655 41.9765 39.5837 42.0169 39.7386 42.2919C39.8953 42.5666 39.9856 42.5173 40.1427 42.7938C40.2997 43.0703 40.2449 43.0985 40.402 43.375C40.559 43.6515 40.4925 43.6874 40.6496 43.9639C40.8063 44.2385 40.9478 44.1617 41.1048 44.4382C41.2634 44.7125 41.1869 44.7557 41.3455 45.0301C41.504 45.3044 41.5841 45.2607 41.7429 45.5368C41.9033 45.8109 41.8828 45.8219 42.045 46.0957C42.2053 46.3697 42.103 46.4248 42.2637 46.7007C42.4241 46.9748 42.412 46.9806 42.5742 47.2543C42.7345 47.5284 42.7737 47.5067 42.9361 47.7822C43.0983 48.0559 43.1118 48.048 43.274 48.3217C43.3833 48.504 43.4921 48.6864 43.6002 48.8689C43.7642 49.1423 43.7488 49.1506 43.911 49.4243C44.0203 49.6066 44.1296 49.7888 44.2389 49.9711C44.4029 50.2445 44.3876 50.2528 44.5515 50.5262C44.7152 50.7979 44.7901 50.7568 44.9541 51.0302C45.1196 51.3015 45.0362 51.3478 45.202 51.6209C45.3678 51.894 45.4749 51.8343 45.6422 52.1053C45.8077 52.3766 45.6855 52.4463 45.8528 52.7173C46.0204 52.9901 46.0237 52.9876 46.1928 53.2583C46.3604 53.5311 46.4672 53.4696 46.6366 53.742C46.8057 54.0127 46.7582 54.0396 46.9273 54.3103C47.0964 54.581 47.1457 54.5537 47.3148 54.8244C47.4839 55.095 47.5113 55.0809 47.6822 55.3513C47.8531 55.6216 47.8363 55.632 48.0072 55.9023C48.1781 56.1727 48.1372 56.1947 48.3084 56.4669C48.4811 56.7369 48.4182 56.7721 48.5909 57.0421C48.7637 57.3121 48.7808 57.3036 48.9535 57.5736C49.1262 57.8436 49.0718 57.8736 49.2463 58.1433C49.419 58.4133 49.5653 58.3319 49.738 58.6019C49.9125 58.8716 49.8698 58.894 49.9714 59.1951C50.0792 59.51 50.0248 59.6884 50.3654 59.6821L50.3675 59.6836Z" fill="#E69191"/>
</g>
<defs>
<clipPath id="clip0_15_332">
<rect width="200" height="37" fill="white" transform="matrix(-0.984808 0.173648 0.173648 0.984808 196.962 0)"/>
</clipPath>
</defs>
</svg>
