<svg width="90" height="311" viewBox="0 0 90 311" fill="none" xmlns="http://www.w3.org/2000/svg">
<g clip-path="url(#clip0_15_151)">
<path d="M51.94 21.6368C51.94 21.0678 51.8974 20.5082 51.9543 19.9534C52.0112 19.3892 52.2625 18.8676 52.3763 18.3223C52.4949 17.7675 52.4048 17.1653 52.5755 16.6342C52.7509 16.0984 53.3153 15.7238 53.5429 15.2116C53.7705 14.6948 53.8558 14.1353 54.1404 13.6468C54.4249 13.1584 54.8375 12.7838 55.1694 12.3286C55.5014 11.8734 55.7954 11.4182 56.17 11.0009C56.5446 10.5837 56.8528 10.119 57.2701 9.73961C57.6875 9.36501 57.9625 8.80074 58.4177 8.46881C58.873 8.13689 59.5795 8.20801 60.068 7.92825C60.5517 7.64848 60.9358 7.19801 61.4479 6.96566C61.9601 6.73806 62.4011 6.30181 62.9417 6.12637C63.4728 5.95566 64.0418 5.83712 64.5967 5.71857C65.142 5.60477 65.7111 5.48622 66.2754 5.42458C66.8302 5.36768 67.4087 5.69012 67.9778 5.69012C68.5468 5.69012 69.1064 5.56209 69.6612 5.61899C70.2255 5.6759 70.7756 5.78496 71.3209 5.89876C71.8758 6.0173 72.4021 6.19749 72.938 6.3682C73.4739 6.54364 73.9528 6.83763 74.4649 7.06524C74.9818 7.29285 75.4655 7.54416 75.9492 7.82393C76.4377 8.10844 76.7601 8.58261 77.2154 8.91454C77.6706 9.24647 78.2871 9.33656 78.7044 9.7159C79.1217 10.0905 79.5911 10.4177 79.9658 10.835C80.3404 11.2522 80.8478 11.5794 81.1797 12.0394C81.5117 12.4946 81.4311 13.2106 81.7108 13.699C81.9906 14.1827 82.2752 14.6426 82.5075 15.1595C82.7351 15.6716 83.4465 16.0083 83.6219 16.5441C83.7926 17.0752 83.7926 17.6869 83.9112 18.2416C84.025 18.787 83.9254 19.3797 83.9823 19.944C84.0392 20.4987 84.1056 21.0583 84.1056 21.6273C84.1056 22.1963 84.0677 22.7606 84.0108 23.3106C83.9539 23.8749 83.5982 24.3775 83.4844 24.9228C83.3658 25.4776 83.5366 26.0941 83.3658 26.6251C83.1904 27.161 83.1714 27.7774 82.9438 28.2895C82.7114 28.8064 82.1898 29.181 81.91 29.6694C81.6255 30.1578 81.1845 30.5229 80.8525 30.9781C80.5206 31.4333 80.3262 31.9834 79.9468 32.4006C79.5722 32.8179 79.0648 33.0929 78.6427 33.4723C78.2254 33.8469 78.0405 34.5202 77.5852 34.8521C77.13 35.1841 76.7411 35.6772 76.2527 35.9617C75.769 36.2415 75.1525 36.3553 74.6357 36.5829C74.1235 36.8105 73.3838 36.4312 72.8432 36.6066C72.312 36.7773 71.909 37.408 71.3541 37.5265C70.8088 37.6403 70.2445 37.811 69.6802 37.8679C69.1254 37.9248 68.5421 37.5787 67.973 37.5787C67.404 37.5787 66.8065 38.0339 66.2564 37.977C65.6921 37.9201 65.1325 37.6783 64.5872 37.5645C64.0324 37.4459 63.6245 36.8295 63.0887 36.6588C62.5528 36.4833 62.0928 36.213 61.5807 35.9854C61.0638 35.7578 60.4948 35.7009 60.0111 35.4212C59.5226 35.1367 58.9536 34.9991 58.4983 34.6672C58.0431 34.3353 57.6543 33.9275 57.237 33.5529C56.8196 33.1783 56.3786 32.8274 55.9993 32.4101C55.6246 31.9928 55.0888 31.6894 54.7568 31.2294C54.4249 30.7742 54.4391 30.0914 54.1546 29.603C53.8748 29.1193 53.2204 28.8111 52.9928 28.2942C52.7652 27.7821 52.4996 27.2463 52.3242 26.7105C52.1534 26.1794 51.9875 25.6009 51.8737 25.0509C51.7598 24.5056 52.1487 23.8654 52.087 23.2964C52.0301 22.7416 51.9353 22.1963 51.9353 21.6273L51.94 21.6368Z" fill="#F3EBB0"/>
<path d="M38.3019 60.529C38.3019 61.1217 38.7287 61.6812 38.8757 62.2313C39.0274 62.8003 39.3499 63.2555 39.6391 63.7534C39.9332 64.256 40.0138 64.9199 40.4216 65.3324C40.8294 65.7402 41.5028 65.8113 42.0054 66.1053C42.5034 66.3946 42.9776 66.6459 43.5419 66.7976C44.092 66.9446 44.6231 67.1722 45.2206 67.1722C45.8181 67.1722 46.3682 67.0205 46.9182 66.8735C47.4873 66.7218 47.9141 66.3519 48.412 66.0674C48.9147 65.7734 49.6355 65.7734 50.0433 65.3656C50.4511 64.9578 50.6977 64.3746 50.987 63.8719C51.2762 63.3741 51.3426 62.7908 51.4944 62.2265C51.6414 61.6765 51.6698 61.1407 51.6698 60.5432C51.6698 59.9457 51.7599 59.3767 51.6129 58.8314C51.4612 58.2624 51.1766 57.7693 50.8921 57.2714C50.5981 56.7687 50.4511 56.1333 50.0385 55.7255C49.6307 55.3177 48.9004 55.3272 48.3978 55.038C47.8999 54.7487 47.4256 54.5733 46.8613 54.4215C46.3113 54.2746 45.8133 53.9331 45.2206 53.9331C44.6278 53.9331 44.0019 53.8051 43.4565 53.9521C42.8875 54.1038 42.5318 54.7345 42.0386 55.0238C41.536 55.3177 40.7725 55.2703 40.3599 55.6781C39.9521 56.0859 40.0802 56.9015 39.7909 57.4041C39.5016 57.902 38.8283 58.2197 38.6765 58.7887C38.5295 59.3388 38.3066 59.9505 38.3066 60.5432L38.3019 60.529Z" fill="#F3EBB0"/>
<path d="M67.3329 6.73809C67.3329 6.14536 67.6743 5.67119 67.8213 5.12588C67.9731 4.55686 67.9399 3.99259 68.2244 3.4947C68.5184 2.99207 69.0353 2.75024 69.4431 2.34245C69.8509 1.93465 70.0264 1.29451 70.529 1.00052C71.027 0.711269 71.6482 0.829814 72.2172 0.678076C72.7673 0.531081 73.2462 0 73.8438 0C74.4413 0 74.9581 0.388827 75.5082 0.535823C76.0773 0.68756 76.6843 0.673335 77.1822 0.962584C77.6848 1.25658 77.9219 1.84456 78.3345 2.25235C78.7471 2.66015 79.2355 2.95414 79.5295 3.45677C79.8188 3.95466 80.1934 4.42883 80.3451 4.99311C80.4921 5.54316 80.8146 6.14062 80.8146 6.73335C80.8146 7.32607 80.2835 7.87138 80.1365 8.42142C79.9848 8.99044 79.9516 9.59739 79.6623 10.0953C79.3683 10.5979 78.9652 11.0389 78.5526 11.4467C78.1401 11.8545 77.5947 12.0726 77.0921 12.3666C76.5942 12.6558 76.101 12.8977 75.5319 13.0494C74.9818 13.1964 74.4365 13.1063 73.839 13.1063C73.2415 13.1063 72.663 13.315 72.1176 13.168C71.5486 13.0162 70.9843 12.836 70.4864 12.5468C69.9837 12.2528 69.4146 11.9778 69.0068 11.57C68.599 11.1622 68.4757 10.5078 68.1817 10.0004C67.8924 9.50255 67.9114 8.93354 67.7597 8.36452C67.6127 7.81448 67.3281 7.33081 67.3281 6.73335L67.3329 6.73809Z" fill="#CCE8EB"/>
<path d="M0.0283281 37.9438C0.108943 37.3843 0.545215 36.9148 0.701704 36.3837C0.858193 35.8432 0.881903 35.2742 1.10952 34.7715C1.34189 34.2642 1.5126 33.7141 1.81609 33.2494C2.11959 32.78 2.56534 32.4149 2.93048 31.9928C3.29562 31.5708 3.83622 31.3574 4.25827 30.9923C4.68031 30.6272 4.99329 30.1625 5.46276 29.859C5.93222 29.5556 6.42066 29.3232 6.92806 29.0909C7.43072 28.8585 7.90967 28.5693 8.44553 28.4128C8.97664 28.2563 9.54569 28.3322 10.1053 28.2516C10.6506 28.1757 11.177 27.7252 11.7413 27.7252C12.3056 27.7252 12.8889 27.7821 13.4342 27.858C13.9938 27.9386 14.5296 28.1757 15.0607 28.3322C15.6013 28.4886 16.0661 28.8253 16.5687 29.0577C17.0761 29.29 17.7732 29.2141 18.2427 29.5129C18.7121 29.8164 19.0299 30.3664 19.4519 30.7315C19.8739 31.0966 20.1727 31.585 20.5378 32.0071C20.903 32.4291 21.3393 32.7989 21.6427 33.2684C21.9462 33.7378 22.52 34.0934 22.7524 34.6008C22.9848 35.1034 22.7524 35.81 22.9041 36.3505C23.0606 36.8816 23.4068 37.3795 23.4874 37.939C23.5633 38.4843 23.5585 39.0628 23.5585 39.6271C23.5585 40.1914 23.1887 40.7177 23.1128 41.263C23.0322 41.8226 23.2029 42.4153 23.0464 42.9464C22.8899 43.4869 22.6813 44.0133 22.4489 44.5159C22.2165 45.0233 22.1976 45.6871 21.8941 46.1518C21.5906 46.6213 21.0784 46.9816 20.7133 47.3989C20.3482 47.8209 20.0304 48.3378 19.6084 48.7077C19.1863 49.0728 18.494 49.106 18.0245 49.4047C17.5551 49.7082 17.28 50.41 16.7726 50.6423C16.27 50.8747 15.5634 50.6518 15.0228 50.813C14.4917 50.9695 13.9653 51.1686 13.4105 51.2493C12.8651 51.3251 12.3056 51.4769 11.7365 51.4769C11.1675 51.4769 10.6032 51.3678 10.0578 51.2919C9.49827 51.2113 8.90077 51.235 8.36965 51.0786C7.82906 50.9221 7.33588 50.5854 6.83322 50.3531C6.32581 50.1207 5.78522 49.9073 5.31575 49.6086C4.84628 49.3051 4.36733 48.9732 3.94529 48.6081C3.52324 48.243 3.17233 47.7783 2.80719 47.3562C2.44205 46.9342 2.15752 46.4411 1.85403 45.9716C1.55054 45.5022 1.40353 44.9569 1.17117 44.4448C0.938808 43.9422 0.621089 43.4727 0.4646 42.9322C0.308111 42.4011 0.23698 41.8463 0.156364 41.2867C0.080491 40.7414 0.0425543 40.1914 0.0425543 39.6224C0.0425543 39.0534 -0.0617715 38.4843 0.0141018 37.939L0.0283281 37.9438ZM2.70286 39.6271C2.70286 40.2293 2.87358 40.7983 2.98739 41.3674C3.10594 41.9506 3.14388 42.5575 3.3715 43.0934C3.59912 43.6434 3.69396 44.3025 4.02116 44.7862C4.34837 45.2746 4.89371 45.6492 5.30627 46.0617C5.72357 46.479 6.17881 46.8915 6.66724 47.2235C7.15568 47.5507 7.73896 47.7451 8.28904 47.9727C8.82963 48.1955 9.36075 48.5654 9.94402 48.6792C10.5131 48.793 11.1438 48.4469 11.746 48.4469C12.3483 48.4469 12.9221 48.5132 13.4911 48.3994C14.0744 48.2809 14.6339 48.1197 15.1745 47.8968C15.7246 47.6692 16.0661 47.1429 16.5545 46.8157C17.0477 46.4885 17.5883 46.2941 18.0056 45.8768C18.4229 45.4595 18.66 44.9474 18.9872 44.4543C19.3144 43.9659 19.9309 43.6482 20.1585 43.1029C20.3814 42.5623 20.0826 41.8842 20.2012 41.301C20.315 40.732 20.8224 40.2198 20.8224 39.6176C20.8224 39.0154 20.6801 38.4322 20.5663 37.8632C20.4477 37.2799 20.1774 36.7583 19.9546 36.2178C19.7269 35.6677 19.5135 35.1366 19.1863 34.6482C18.8591 34.1551 18.3802 33.8184 17.9676 33.4011C17.5503 32.9839 17.2042 32.5192 16.7157 32.1872C16.2273 31.8601 15.6914 31.6562 15.1413 31.4286C14.6008 31.2057 14.0602 31.0634 13.4769 30.9449C12.9078 30.8311 12.353 30.6936 11.7508 30.6936C11.1485 30.6936 10.5652 30.6794 9.99619 30.7932C9.41291 30.9117 8.79644 30.9544 8.25584 31.182C7.70576 31.4096 7.24104 31.8126 6.7526 32.1398C6.26417 32.467 5.77099 32.8084 5.35843 33.2257C4.94113 33.643 4.56176 34.1029 4.22981 34.5913C3.90261 35.0797 3.75561 35.663 3.52799 36.2083C3.30511 36.7489 2.81667 37.2278 2.69812 37.811C2.58431 38.38 2.70286 39.0107 2.70286 39.6129V39.6271Z" fill="#8DD0D5"/>
<path d="M35.1104 143.553C35.1104 142.984 35.1531 142.424 35.0962 141.87C35.0392 141.305 34.7879 140.784 34.6741 140.239C34.5556 139.684 34.6457 139.082 34.4749 138.55C34.2995 138.015 33.7352 137.64 33.5076 137.128C33.2799 136.611 33.1946 136.052 32.9101 135.563C32.6255 135.075 32.213 134.7 31.881 134.245C31.5491 133.79 31.2551 133.334 30.8804 132.917C30.5058 132.5 30.1976 132.035 29.7803 131.656C29.363 131.281 29.0879 130.717 28.6327 130.385C28.1775 130.053 27.4709 130.124 26.9825 129.845C26.4988 129.565 26.1146 129.114 25.6025 128.882C25.0904 128.654 24.6493 128.218 24.1087 128.043C23.5776 127.872 23.0086 127.753 22.4538 127.635C21.9084 127.521 21.3394 127.402 20.7751 127.341C20.2202 127.284 19.6417 127.606 19.0727 127.606C18.5036 127.606 17.944 127.478 17.3892 127.535C16.8249 127.592 16.2748 127.701 15.7295 127.815C15.1747 127.934 14.6483 128.114 14.1124 128.284C13.5766 128.46 13.0976 128.754 12.5855 128.982C12.0686 129.209 11.5849 129.46 11.1012 129.74C10.6128 130.025 10.2903 130.499 9.83507 130.831C9.37983 131.163 8.76336 131.253 8.34606 131.632C7.92875 132.007 7.45929 132.334 7.08466 132.751C6.71004 133.169 6.20264 133.496 5.87069 133.951C5.53874 134.406 5.61936 135.122 5.33958 135.611C5.05979 136.094 4.77527 136.554 4.54291 137.071C4.31529 137.583 3.60397 137.92 3.42852 138.456C3.2578 138.987 3.2578 139.598 3.13925 140.153C3.02544 140.698 3.12502 141.291 3.06812 141.855C3.01121 142.41 2.94482 142.97 2.94482 143.539C2.94482 144.108 2.98276 144.672 3.03967 145.222C3.09657 145.786 3.45223 146.289 3.56604 146.834C3.68459 147.389 3.51387 148.006 3.68459 148.537C3.86005 149.072 3.87901 149.689 4.10663 150.201C4.33425 150.718 4.86063 151.092 5.14041 151.581C5.42493 152.069 5.86595 152.434 6.19789 152.89C6.52984 153.345 6.72427 153.895 7.10363 154.312C7.47826 154.729 7.98566 155.004 8.4077 155.384C8.82501 155.758 9.00995 156.432 9.46519 156.764C9.92043 157.096 10.3093 157.589 10.7977 157.873C11.2814 158.153 11.8979 158.267 12.4148 158.494C12.9269 158.722 13.6667 158.343 14.2073 158.518C14.7384 158.689 15.1415 159.319 15.6963 159.438C16.2416 159.552 16.8059 159.723 17.3702 159.779C17.9251 159.836 18.5083 159.49 19.0774 159.49C19.6464 159.49 20.2439 159.945 20.794 159.889C21.3583 159.832 21.9179 159.59 22.4632 159.476C23.0181 159.357 23.4259 158.741 23.9617 158.57C24.4976 158.395 24.9576 158.125 25.4697 157.897C25.9866 157.669 26.5557 157.612 27.0394 157.333C27.5278 157.048 28.0968 156.911 28.5521 156.579C29.0073 156.247 29.3962 155.839 29.8135 155.464C30.2308 155.09 30.6718 154.739 31.0512 154.322C31.4258 153.904 31.9616 153.601 32.2936 153.141C32.6255 152.686 32.6113 152.003 32.8958 151.515C33.1756 151.031 33.83 150.723 34.0576 150.206C34.2853 149.694 34.5508 149.158 34.7263 148.622C34.897 148.091 35.063 147.512 35.1768 146.962C35.2906 146.417 34.9017 145.777 34.9634 145.208C35.0203 144.653 35.1151 144.108 35.1151 143.539L35.1104 143.553Z" fill="#F3EBB0"/>
<path d="M48.7487 182.445C48.7487 183.038 48.3219 183.597 48.1749 184.148C48.0231 184.717 47.7007 185.172 47.4114 185.67C47.1174 186.172 47.0368 186.836 46.6289 187.249C46.2211 187.656 45.5477 187.728 45.0451 188.022C44.5472 188.311 44.073 188.562 43.5087 188.714C42.9586 188.861 42.4275 189.088 41.83 189.088C41.2325 189.088 40.6824 188.937 40.1323 188.79C39.5632 188.638 39.1365 188.268 38.6385 187.984C38.1359 187.69 37.4151 187.69 37.0073 187.282C36.5994 186.874 36.3528 186.291 36.0636 185.788C35.7743 185.29 35.7079 184.707 35.5562 184.143C35.4092 183.593 35.3807 183.057 35.3807 182.459C35.3807 181.862 35.2906 181.293 35.4376 180.748C35.5894 180.179 35.8739 179.686 36.1584 179.188C36.4524 178.685 36.5994 178.05 37.012 177.642C37.4246 177.234 38.1501 177.243 38.6528 176.954C39.1507 176.665 39.6249 176.49 40.1892 176.338C40.7393 176.191 41.2372 175.849 41.83 175.849C42.4227 175.849 43.0487 175.721 43.594 175.868C44.1631 176.02 44.5187 176.651 45.0119 176.94C45.5146 177.234 46.278 177.187 46.6906 177.594C47.1031 178.002 46.9704 178.818 47.2596 179.32C47.5489 179.818 48.2223 180.136 48.374 180.705C48.521 181.255 48.7439 181.867 48.7439 182.459L48.7487 182.445Z" fill="#F3EBB0"/>
<path d="M19.7176 128.654C19.7176 128.062 19.3762 127.587 19.2291 127.042C19.0774 126.473 19.1106 125.909 18.8261 125.411C18.5321 124.908 18.0152 124.667 17.6074 124.259C17.1995 123.851 17.0241 123.211 16.5214 122.917C16.0235 122.628 15.4023 122.746 14.8332 122.594C14.2832 122.447 13.8042 121.916 13.2067 121.916C12.6092 121.916 12.0923 122.305 11.5422 122.452C10.9732 122.604 10.3662 122.59 9.86828 122.879C9.36561 123.173 9.12851 123.761 8.71595 124.169C8.30813 124.576 7.81495 124.87 7.52094 125.373C7.23168 125.871 6.85705 126.345 6.70531 126.909C6.5583 127.459 6.23584 128.057 6.23584 128.65C6.23584 129.242 6.76695 129.788 6.91396 130.338C7.0657 130.907 7.0989 131.514 7.38817 132.012C7.68218 132.514 8.08525 132.955 8.49781 133.363C8.90563 133.771 9.45571 133.989 9.95838 134.283C10.4563 134.572 10.9495 134.814 11.5185 134.966C12.0686 135.113 12.6139 135.023 13.2114 135.023C13.8089 135.023 14.3875 135.231 14.9328 135.084C15.5019 134.932 16.0662 134.752 16.5641 134.463C17.0668 134.169 17.6358 133.894 18.0436 133.486C18.4514 133.078 18.5747 132.424 18.8688 131.917C19.158 131.419 19.139 130.85 19.2908 130.281C19.4378 129.731 19.7223 129.247 19.7223 128.65L19.7176 128.654Z" fill="#CCE8EB"/>
<path d="M87.022 159.86C86.9414 159.301 86.5051 158.831 86.3486 158.3C86.1921 157.759 86.1684 157.19 85.9408 156.688C85.7084 156.18 85.5377 155.63 85.2342 155.166C84.9307 154.696 84.485 154.331 84.1198 153.909C83.7547 153.487 83.2141 153.274 82.792 152.909C82.37 152.543 82.057 152.079 81.5875 151.775C81.1181 151.472 80.6297 151.239 80.1222 151.007C79.6196 150.775 79.1406 150.486 78.6048 150.329C78.0737 150.173 77.5046 150.248 76.945 150.168C76.3997 150.092 75.8733 149.641 75.309 149.641C74.7447 149.641 74.1614 149.698 73.6161 149.774C73.0565 149.855 72.5207 150.092 71.9896 150.248C71.449 150.405 70.9843 150.742 70.4816 150.974C69.9742 151.206 69.2771 151.13 68.8076 151.429C68.3382 151.733 68.0204 152.283 67.5984 152.648C67.1764 153.013 66.8776 153.501 66.5125 153.923C66.1473 154.345 65.711 154.715 65.4076 155.185C65.1041 155.654 64.5303 156.01 64.2979 156.517C64.0655 157.02 64.2979 157.726 64.1462 158.267C63.9897 158.798 63.6435 159.296 63.5629 159.855C63.487 160.401 63.4918 160.979 63.4918 161.543C63.4918 162.108 63.8616 162.634 63.9375 163.179C64.0181 163.739 63.8474 164.332 64.0039 164.863C64.1604 165.403 64.369 165.93 64.6014 166.432C64.8338 166.94 64.8527 167.603 65.1562 168.068C65.4597 168.538 65.9719 168.898 66.337 169.315C66.7021 169.737 67.0199 170.254 67.4419 170.624C67.864 170.989 68.5563 171.022 69.0258 171.321C69.4952 171.624 69.7703 172.326 70.2777 172.559C70.7803 172.791 71.4869 172.568 72.0275 172.729C72.5586 172.886 73.085 173.085 73.6398 173.166C74.1852 173.241 74.7447 173.393 75.3138 173.393C75.8828 173.393 76.4471 173.284 76.9925 173.208C77.552 173.128 78.1495 173.151 78.6806 172.995C79.2212 172.838 79.7144 172.502 80.2171 172.269C80.7245 172.037 81.2651 171.824 81.7346 171.525C82.204 171.221 82.683 170.889 83.105 170.524C83.5271 170.159 83.878 169.695 84.2431 169.273C84.6083 168.85 84.8928 168.357 85.1963 167.888C85.4998 167.418 85.6468 166.873 85.8791 166.361C86.1115 165.858 86.4292 165.389 86.5857 164.848C86.7422 164.317 86.8133 163.763 86.8939 163.203C86.9698 162.658 87.0077 162.108 87.0077 161.539C87.0077 160.97 87.1121 160.401 87.0362 159.855L87.022 159.86ZM84.3474 161.543C84.3474 162.146 84.1767 162.715 84.0629 163.284C83.9444 163.867 83.9064 164.474 83.6788 165.01C83.4512 165.56 83.3563 166.219 83.0291 166.702C82.7019 167.196 82.1566 167.565 81.744 167.983C81.3267 168.4 80.8715 168.813 80.3831 169.144C79.8946 169.472 79.3113 169.666 78.7613 169.894C78.2207 170.117 77.6896 170.486 77.1063 170.6C76.5372 170.714 75.9065 170.368 75.3043 170.368C74.702 170.368 74.1282 170.434 73.5592 170.32C72.9759 170.202 72.4164 170.041 71.8758 169.818C71.3257 169.59 70.9843 169.064 70.4958 168.737C70.0074 168.41 69.462 168.215 69.0447 167.798C68.6274 167.381 68.3903 166.868 68.0631 166.375C67.7359 165.887 67.1195 165.569 66.8918 165.024C66.669 164.483 66.9677 163.805 66.8492 163.222C66.7353 162.653 66.2279 162.141 66.2279 161.539C66.2279 160.936 66.3702 160.353 66.484 159.784C66.6026 159.201 66.8729 158.679 67.0957 158.139C67.3234 157.589 67.5368 157.058 67.864 156.569C68.1912 156.076 68.6701 155.739 69.0827 155.322C69.5 154.905 69.8462 154.44 70.3346 154.108C70.823 153.781 71.3589 153.577 71.909 153.35C72.4496 153.127 72.9901 152.984 73.5734 152.866C74.1425 152.752 74.6973 152.615 75.2995 152.615C75.9018 152.615 76.4851 152.6 77.0541 152.714C77.6374 152.833 78.2539 152.875 78.7945 153.103C79.3445 153.331 79.8093 153.734 80.2977 154.061C80.7861 154.388 81.2793 154.729 81.6919 155.147C82.1044 155.564 82.4885 156.024 82.8205 156.512C83.1477 157.001 83.2947 157.584 83.5223 158.129C83.7452 158.67 84.2336 159.149 84.3522 159.732C84.466 160.301 84.3474 160.932 84.3474 161.534V161.543Z" fill="#8DD0D5"/>
<path d="M57.8392 265.474C57.8392 264.905 57.7965 264.346 57.8534 263.791C57.9103 263.226 58.1617 262.705 58.2755 262.16C58.394 261.605 58.3039 261.003 58.4747 260.471C58.6501 259.936 59.2144 259.561 59.442 259.049C59.6697 258.532 59.755 257.973 60.0395 257.484C60.3241 256.996 60.7366 256.621 61.0686 256.166C61.4005 255.711 61.6945 255.255 62.0692 254.838C62.4438 254.421 62.752 253.956 63.1693 253.577C63.5866 253.202 63.8617 252.638 64.3169 252.306C64.7721 251.974 65.4787 252.045 65.9671 251.766C66.4508 251.486 66.835 251.031 67.3471 250.803C67.8592 250.575 68.3003 250.139 68.8408 249.964C69.372 249.793 69.941 249.674 70.4958 249.556C71.0412 249.442 71.6102 249.324 72.1745 249.262C72.7294 249.205 73.3079 249.527 73.8769 249.527C74.446 249.527 75.0056 249.399 75.5604 249.456C76.1247 249.513 76.6748 249.622 77.2201 249.736C77.7749 249.855 78.3013 250.035 78.8372 250.205C79.373 250.381 79.852 250.675 80.3641 250.903C80.881 251.13 81.3647 251.381 81.8484 251.661C82.3368 251.946 82.6593 252.42 83.1145 252.752C83.5698 253.084 84.1862 253.174 84.6035 253.553C85.0208 253.928 85.4903 254.255 85.8649 254.672C86.2396 255.09 86.747 255.417 87.0789 255.877C87.4109 256.332 87.3302 257.048 87.61 257.536C87.8898 258.02 88.1743 258.48 88.4067 258.997C88.6343 259.509 89.3456 259.846 89.5211 260.381C89.6918 260.912 89.6918 261.524 89.8103 262.074C89.9242 262.62 89.8246 263.212 89.8815 263.777C89.9384 264.331 90.0048 264.891 90.0048 265.46C90.0048 266.029 89.9668 266.593 89.9099 267.143C89.853 267.707 89.4974 268.21 89.3836 268.755C89.265 269.31 89.4357 269.927 89.265 270.458C89.0896 270.994 89.0706 271.61 88.843 272.122C88.6153 272.639 88.089 273.014 87.8092 273.502C87.5247 273.99 87.0837 274.355 86.7517 274.811C86.4198 275.266 86.2253 275.816 85.846 276.233C85.4713 276.65 84.9639 276.925 84.5419 277.305C84.1246 277.679 83.9396 278.353 83.4844 278.685C83.0292 279.017 82.6403 279.51 82.1519 279.794C81.6682 280.074 81.0517 280.188 80.5348 280.415C80.0227 280.643 79.2829 280.264 78.7423 280.439C78.2112 280.61 77.8081 281.241 77.2533 281.359C76.708 281.473 76.1437 281.644 75.5794 281.7C75.0245 281.757 74.4413 281.411 73.8722 281.411C73.3032 281.411 72.7057 281.866 72.1556 281.81C71.5913 281.753 71.0317 281.511 70.4864 281.397C69.9315 281.278 69.5237 280.662 68.9879 280.491C68.452 280.316 67.992 280.046 67.4799 279.818C66.963 279.586 66.3939 279.533 65.9102 279.254C65.4218 278.969 64.8528 278.832 64.3975 278.5C63.9423 278.168 63.5534 277.76 63.1361 277.385C62.7188 277.011 62.2778 276.66 61.8984 276.243C61.5238 275.825 60.988 275.522 60.656 275.062C60.3241 274.607 60.3383 273.924 60.0538 273.436C59.774 272.952 59.1196 272.644 58.892 272.127C58.6643 271.615 58.3988 271.079 58.2233 270.543C58.0526 270.012 57.8866 269.433 57.7728 268.883C57.659 268.338 58.0479 267.698 57.9862 267.129C57.9293 266.574 57.8345 266.029 57.8345 265.46L57.8392 265.474Z" fill="#F3EBB0"/>
<path d="M44.2009 304.361C44.2009 304.954 44.6277 305.514 44.7747 306.064C44.9265 306.633 45.2489 307.088 45.5382 307.586C45.8322 308.089 45.9128 308.752 46.3206 309.165C46.7285 309.573 47.4018 309.644 47.9045 309.938C48.4024 310.227 48.8766 310.478 49.4409 310.63C49.991 310.777 50.5221 311.005 51.1196 311.005C51.7171 311.005 52.2672 310.853 52.8173 310.706C53.3863 310.554 53.8131 310.184 54.311 309.9C54.8137 309.606 55.5345 309.606 55.9423 309.198C56.3501 308.79 56.5967 308.207 56.886 307.704C57.1753 307.207 57.2417 306.623 57.3934 306.059C57.5404 305.509 57.5689 304.973 57.5689 304.376C57.5689 303.778 57.659 303.209 57.512 302.664C57.3602 302.095 57.0757 301.602 56.7912 301.104C56.4972 300.601 56.3501 299.966 55.9376 299.558C55.525 299.15 54.7995 299.16 54.2968 298.87C53.7989 298.581 53.3247 298.406 52.7604 298.254C52.2103 298.107 51.7124 297.766 51.1196 297.766C50.5269 297.766 49.9009 297.638 49.3556 297.785C48.7865 297.936 48.4309 298.567 47.9377 298.856C47.435 299.15 46.6716 299.103 46.259 299.511C45.8464 299.918 45.9792 300.734 45.6899 301.237C45.4007 301.735 44.7273 302.052 44.5756 302.621C44.4285 303.171 44.2057 303.783 44.2057 304.376L44.2009 304.361Z" fill="#F3EBB0"/>
<path d="M73.232 250.575C73.232 249.983 73.5735 249.508 73.7205 248.963C73.8722 248.394 73.839 247.83 74.1235 247.332C74.4176 246.829 74.9344 246.588 75.3423 246.18C75.7501 245.772 75.9255 245.132 76.4282 244.838C76.9261 244.549 77.5473 244.667 78.1164 244.515C78.6665 244.368 79.1454 243.837 79.7429 243.837C80.3404 243.837 80.8573 244.226 81.4074 244.373C81.9764 244.525 82.5834 244.511 83.0813 244.8C83.584 245.094 83.8211 245.682 84.2337 246.09C84.6462 246.497 85.1347 246.791 85.4287 247.294C85.7179 247.792 86.0926 248.266 86.2443 248.83C86.3913 249.38 86.7138 249.978 86.7138 250.571C86.7138 251.163 86.1827 251.709 86.0357 252.259C85.8839 252.828 85.8507 253.435 85.5615 253.933C85.2674 254.435 84.8644 254.876 84.4518 255.284C84.044 255.692 83.4939 255.91 82.9912 256.204C82.4933 256.493 82.0002 256.735 81.4311 256.887C80.881 257.034 80.3357 256.944 79.7382 256.944C79.1407 256.944 78.5621 257.152 78.0168 257.005C77.4478 256.854 76.8834 256.673 76.3855 256.384C75.8829 256.09 75.3138 255.815 74.906 255.407C74.4982 254.999 74.3749 254.345 74.0809 253.838C73.7916 253.34 73.8106 252.771 73.6588 252.202C73.5118 251.652 73.2273 251.168 73.2273 250.571L73.232 250.575Z" fill="#CCE8EB"/>
<path d="M5.92762 281.781C6.00824 281.222 6.44451 280.752 6.601 280.221C6.75748 279.68 6.78119 279.111 7.00881 278.609C7.24118 278.101 7.41189 277.551 7.71539 277.087C8.01888 276.617 8.46463 276.252 8.82978 275.83C9.19492 275.408 9.73551 275.195 10.1576 274.83C10.5796 274.464 10.8926 274 11.362 273.696C11.8315 273.393 12.3199 273.16 12.8274 272.928C13.33 272.696 13.809 272.407 14.3448 272.25C14.8759 272.094 15.445 272.169 16.0045 272.089C16.5499 272.013 17.0763 271.562 17.6406 271.562C18.2049 271.562 18.7882 271.619 19.3335 271.695C19.8931 271.776 20.4289 272.013 20.96 272.169C21.5006 272.326 21.9653 272.663 22.468 272.895C22.9754 273.127 23.6725 273.051 24.142 273.35C24.6114 273.654 24.9291 274.204 25.3512 274.569C25.7732 274.934 26.072 275.422 26.4371 275.844C26.8023 276.266 27.2385 276.636 27.542 277.106C27.8455 277.575 28.4193 277.931 28.6517 278.438C28.884 278.941 28.6517 279.647 28.8034 280.188C28.9599 280.719 29.3061 281.217 29.3867 281.776C29.4626 282.322 29.4578 282.9 29.4578 283.464C29.4578 284.029 29.088 284.555 29.0121 285.1C28.9315 285.66 29.1022 286.253 28.9457 286.784C28.7892 287.324 28.5806 287.851 28.3482 288.353C28.1158 288.861 28.0969 289.524 27.7934 289.989C27.4899 290.459 26.9777 290.819 26.6126 291.236C26.2474 291.658 25.9297 292.175 25.5077 292.545C25.0856 292.91 24.3933 292.943 23.9238 293.242C23.4544 293.545 23.1793 294.247 22.6719 294.48C22.1693 294.712 21.4627 294.489 20.9221 294.65C20.391 294.807 19.8646 295.006 19.3098 295.087C18.7644 295.162 18.2049 295.314 17.6358 295.314C17.0668 295.314 16.5025 295.205 15.9571 295.129C15.3976 295.049 14.8001 295.072 14.2689 294.916C13.7283 294.759 13.2352 294.423 12.7325 294.19C12.2251 293.958 11.6845 293.745 11.215 293.446C10.7456 293.142 10.2666 292.81 9.84458 292.445C9.42254 292.08 9.07162 291.616 8.70648 291.194C8.34134 290.771 8.05682 290.278 7.75332 289.809C7.44983 289.339 7.30282 288.794 7.07046 288.282C6.8381 287.779 6.52038 287.31 6.36389 286.769C6.2074 286.238 6.13627 285.684 6.05566 285.124C5.97978 284.579 5.94185 284.029 5.94185 283.46C5.94185 282.891 5.83752 282.322 5.91339 281.776L5.92762 281.781ZM8.60215 283.464C8.60215 284.067 8.77287 284.636 8.88668 285.205C9.00523 285.788 9.04317 286.395 9.27079 286.931C9.49841 287.481 9.59325 288.14 9.92045 288.623C10.2477 289.112 10.793 289.486 11.2056 289.904C11.6229 290.321 12.0781 290.734 12.5665 291.065C13.055 291.393 13.6382 291.587 14.1883 291.815C14.7289 292.038 15.26 292.407 15.8433 292.521C16.4124 292.635 17.0431 292.289 17.6453 292.289C18.2476 292.289 18.8213 292.355 19.3904 292.241C19.9737 292.123 20.5332 291.962 21.0738 291.739C21.6239 291.511 21.9653 290.985 22.4538 290.658C22.9422 290.33 23.4876 290.136 23.9049 289.719C24.3222 289.302 24.5593 288.789 24.8865 288.296C25.2137 287.808 25.8301 287.49 26.0578 286.945C26.2806 286.404 25.9819 285.726 26.1004 285.143C26.2143 284.574 26.7217 284.062 26.7217 283.46C26.7217 282.857 26.5794 282.274 26.4656 281.705C26.347 281.122 26.0767 280.6 25.8539 280.06C25.6262 279.51 25.4128 278.979 25.0856 278.49C24.7584 277.997 24.2795 277.66 23.8669 277.243C23.4496 276.826 23.1034 276.361 22.615 276.029C22.1266 275.702 21.5907 275.498 21.0406 275.271C20.5 275.048 19.9594 274.905 19.3762 274.787C18.8071 274.673 18.2523 274.536 17.6501 274.536C17.0478 274.536 16.4645 274.521 15.8955 274.635C15.3122 274.754 14.6957 274.796 14.1551 275.024C13.6051 275.252 13.1403 275.655 12.6519 275.982C12.1587 276.309 11.6703 276.65 11.2577 277.068C10.8452 277.485 10.4611 277.945 10.1291 278.433C9.8019 278.922 9.6549 279.505 9.42728 280.05C9.2044 280.591 8.71596 281.07 8.59741 281.653C8.4836 282.222 8.60215 282.853 8.60215 283.455V283.464Z" fill="#8DD0D5"/>
</g>
<defs>
<clipPath id="clip0_15_151">
<rect width="90" height="311" fill="white"/>
</clipPath>
</defs>
</svg>
