<svg width="90" height="311" viewBox="0 0 90 311" fill="none" xmlns="http://www.w3.org/2000/svg">
<path d="M38.0576 21.6368C38.0576 21.0678 38.1003 20.5082 38.0434 19.9534C37.9865 19.3892 37.7352 18.8676 37.6214 18.3223C37.5028 17.7675 37.5929 17.1653 37.4222 16.6342C37.2468 16.0984 36.6825 15.7238 36.4549 15.2116C36.2273 14.6948 36.1419 14.1353 35.8574 13.6468C35.5729 13.1584 35.1604 12.7838 34.8285 12.3286C34.4965 11.8734 34.2025 11.4182 33.8279 11.0009C33.4533 10.5837 33.1451 10.119 32.7279 9.73961C32.3106 9.36501 32.0355 8.80074 31.5803 8.46881C31.1251 8.13689 30.4186 8.20801 29.9302 7.92825C29.4465 7.64848 29.0624 7.19801 28.5503 6.96566C28.0382 6.73806 27.5972 6.30181 27.0567 6.12637C26.5256 5.95566 25.9566 5.83712 25.4018 5.71857C24.8565 5.60477 24.2875 5.48622 23.7232 5.42458C23.1684 5.36768 22.5899 5.69012 22.0209 5.69012C21.4519 5.69012 20.8923 5.56209 20.3375 5.61899C19.7733 5.6759 19.2232 5.78496 18.6779 5.89876C18.1231 6.0173 17.5968 6.19749 17.061 6.3682C16.5251 6.54364 16.0462 6.83763 15.5341 7.06524C15.0173 7.29285 14.5336 7.54416 14.0499 7.82393C13.5615 8.10844 13.2391 8.58261 12.7839 8.91454C12.3287 9.24647 11.7122 9.33656 11.2949 9.7159C10.8777 10.0905 10.4082 10.4177 10.0336 10.835C9.65903 11.2522 9.15166 11.5794 8.81973 12.0394C8.4878 12.4946 8.56841 13.2106 8.28865 13.699C8.00888 14.1827 7.72438 14.6426 7.49203 15.1595C7.26442 15.6716 6.55315 16.0083 6.37771 16.5441C6.207 17.0752 6.207 17.6869 6.08846 18.2416C5.97465 18.787 6.07423 19.3797 6.01733 19.944C5.96043 20.4987 5.89404 21.0583 5.89404 21.6273C5.89404 22.1963 5.93198 22.7606 5.98888 23.3106C6.04578 23.8749 6.40141 24.3775 6.51522 24.9228C6.63376 25.4776 6.46306 26.0941 6.63376 26.6251C6.80921 27.161 6.82818 27.7774 7.05578 28.2895C7.28339 28.8064 7.80973 29.181 8.08949 29.6694C8.374 30.1578 8.81499 30.5229 9.14691 30.9781C9.47884 31.4333 9.67325 31.9834 10.0526 32.4006C10.4272 32.8179 10.9346 33.0929 11.3566 33.4723C11.7739 33.8469 11.9588 34.5202 12.414 34.8521C12.8692 35.1841 13.258 35.6772 13.7465 35.9617C14.2301 36.2415 14.8465 36.3553 15.3634 36.5829C15.8755 36.8105 16.6152 36.4312 17.1558 36.6066C17.6869 36.7773 18.0899 37.408 18.6447 37.5265C19.19 37.6403 19.7543 37.811 20.3186 37.8679C20.8734 37.9248 21.4566 37.5787 22.0256 37.5787C22.5946 37.5787 23.1921 38.0339 23.7422 37.977C24.3064 37.9201 24.866 37.6783 25.4113 37.5645C25.9661 37.4459 26.3738 36.8295 26.9097 36.6588C27.4455 36.4833 27.9054 36.213 28.4176 35.9854C28.9344 35.7578 29.5034 35.7009 29.9871 35.4212C30.4755 35.1367 31.0445 34.9991 31.4997 34.6672C31.9549 34.3353 32.3438 33.9275 32.761 33.5529C33.1783 33.1783 33.6193 32.8274 33.9987 32.4101C34.3733 31.9928 34.9091 31.6894 35.241 31.2294C35.5729 30.7742 35.5587 30.0914 35.8432 29.603C36.123 29.1193 36.7773 28.8111 37.005 28.2942C37.2326 27.7821 37.4981 27.2463 37.6735 26.7105C37.8442 26.1794 38.0102 25.6009 38.124 25.0509C38.2378 24.5056 37.849 23.8654 37.9106 23.2964C37.9675 22.7416 38.0624 22.1963 38.0624 21.6273L38.0576 21.6368Z" fill="#F3EBB0"/>
<path d="M51.6958 60.529C51.6958 61.1217 51.2691 61.6812 51.1221 62.2313C50.9703 62.8003 50.6478 63.2555 50.3586 63.7534C50.0646 64.256 49.984 64.9199 49.5761 65.3324C49.1683 65.7402 48.4949 65.8113 47.9923 66.1053C47.4944 66.3946 47.0202 66.6459 46.4558 66.7976C45.9058 66.9446 45.3746 67.1722 44.7771 67.1722C44.1796 67.1722 43.6296 67.0205 43.0795 66.8735C42.5104 66.7218 42.0836 66.3519 41.5857 66.0674C41.0831 65.7734 40.3623 65.7734 39.9544 65.3656C39.5466 64.9578 39.3 64.3746 39.0108 63.8719C38.7215 63.3741 38.6551 62.7908 38.5034 62.2265C38.3564 61.6765 38.3279 61.1407 38.3279 60.5432C38.3279 59.9457 38.2378 59.3767 38.3848 58.8314C38.5366 58.2624 38.8211 57.7693 39.1056 57.2714C39.3996 56.7687 39.5466 56.1333 39.9592 55.7255C40.367 55.3177 41.0973 55.3272 41.5999 55.038C42.0979 54.7487 42.5721 54.5733 43.1364 54.4215C43.6865 54.2746 44.1844 53.9331 44.7771 53.9331C45.3699 53.9331 45.9959 53.8051 46.5412 53.9521C47.1102 54.1038 47.4659 54.7345 47.9591 55.0238C48.4617 55.3177 49.2252 55.2703 49.6378 55.6781C50.0456 56.0859 49.9176 56.9015 50.2068 57.4041C50.4961 57.902 51.1695 58.2197 51.3212 58.7887C51.4682 59.3388 51.6911 59.9505 51.6911 60.5432L51.6958 60.529Z" fill="#F3EBB0"/>
<path d="M22.6668 6.73809C22.6668 6.14536 22.3254 5.67119 22.1784 5.12588C22.0266 4.55686 22.0598 3.99259 21.7753 3.4947C21.4813 2.99207 20.9644 2.75024 20.5566 2.34245C20.1487 1.93465 19.9733 1.29451 19.4706 1.00052C18.9727 0.711269 18.3515 0.829814 17.7824 0.678076C17.2324 0.531081 16.7534 0 16.1559 0C15.5584 0 15.0415 0.388827 14.4914 0.535823C13.9224 0.68756 13.3154 0.673335 12.8175 0.962584C12.3148 1.25658 12.0777 1.84456 11.6652 2.25235C11.2526 2.66015 10.7642 2.95414 10.4701 3.45677C10.1809 3.95466 9.80626 4.42883 9.65451 4.99311C9.5075 5.54316 9.18504 6.14062 9.18504 6.73335C9.18504 7.32607 9.71616 7.87138 9.86316 8.42142C10.0149 8.99044 10.0481 9.59739 10.3374 10.0953C10.6314 10.5979 11.0345 11.0389 11.447 11.4467C11.8596 11.8545 12.4049 12.0726 12.9076 12.3666C13.4055 12.6558 13.8987 12.8977 14.4677 13.0494C15.0178 13.1964 15.5631 13.1063 16.1606 13.1063C16.7582 13.1063 17.3367 13.315 17.882 13.168C18.4511 13.0162 19.0154 12.836 19.5133 12.5468C20.016 12.2528 20.585 11.9778 20.9928 11.57C21.4007 11.1622 21.5239 10.5078 21.818 10.0004C22.1072 9.50255 22.0883 8.93354 22.24 8.36452C22.387 7.81448 22.6715 7.33081 22.6715 6.73335L22.6668 6.73809Z" fill="#CCE8EB"/>
<path d="M89.966 37.9438C89.8854 37.3843 89.4492 36.9148 89.2927 36.3837C89.1362 35.8432 89.1125 35.2742 88.8849 34.7715C88.6526 34.2642 88.4819 33.7141 88.1784 33.2494C87.8749 32.78 87.4292 32.4149 87.0641 31.9928C86.6989 31.5708 86.1584 31.3574 85.7363 30.9923C85.3143 30.6272 85.0014 30.1625 84.5319 29.859C84.0625 29.5556 83.5741 29.3232 83.0667 29.0909C82.5641 28.8585 82.0852 28.5693 81.5493 28.4128C81.0183 28.2563 80.4493 28.3322 79.8897 28.2516C79.3444 28.1757 78.8181 27.7252 78.2538 27.7252C77.6895 27.7252 77.1063 27.7821 76.561 27.858C76.0015 27.9386 75.4656 28.1757 74.9345 28.3322C74.394 28.4886 73.9293 28.8253 73.4267 29.0577C72.9193 29.29 72.2222 29.2141 71.7528 29.5129C71.2834 29.8164 70.9657 30.3664 70.5436 30.7315C70.1216 31.0966 69.8229 31.585 69.4578 32.0071C69.0927 32.4291 68.6564 32.7989 68.3529 33.2684C68.0495 33.7378 67.4757 34.0934 67.2434 34.6008C67.011 35.1035 67.2434 35.81 67.0916 36.3505C66.9351 36.8816 66.589 37.3795 66.5084 37.939C66.4325 38.4844 66.4373 39.0628 66.4373 39.6271C66.4373 40.1914 66.8071 40.7177 66.883 41.263C66.9636 41.8226 66.7929 42.4153 66.9494 42.9464C67.1058 43.4869 67.3145 44.0133 67.5468 44.5159C67.7792 45.0233 67.7981 45.6871 68.1016 46.1518C68.4051 46.6213 68.9172 46.9816 69.2823 47.3989C69.6474 47.8209 69.9651 48.3378 70.3872 48.7077C70.8092 49.0728 71.5015 49.106 71.9709 49.4047C72.4404 49.7082 72.7154 50.41 73.2228 50.6423C73.7254 50.8747 74.4319 50.6518 74.9725 50.813C75.5036 50.9695 76.0299 51.1686 76.5847 51.2493C77.13 51.3251 77.6895 51.4769 78.2585 51.4769C78.8276 51.4769 79.3918 51.3678 79.9371 51.2919C80.4967 51.2113 81.0941 51.235 81.6252 51.0786C82.1658 50.9221 82.6589 50.5854 83.1616 50.3531C83.6689 50.1207 84.2095 49.9073 84.6789 49.6086C85.1484 49.3051 85.6273 48.9732 86.0493 48.6081C86.4713 48.243 86.8222 47.7783 87.1873 47.3562C87.5525 46.9342 87.837 46.4411 88.1404 45.9716C88.4439 45.5022 88.5909 44.9569 88.8233 44.4448C89.0556 43.9422 89.3733 43.4727 89.5298 42.9322C89.6863 42.4011 89.7574 41.8463 89.838 41.2867C89.9139 40.7414 89.9518 40.1914 89.9518 39.6224C89.9518 39.0534 90.0561 38.4844 89.9803 37.939L89.966 37.9438ZM87.2917 39.6271C87.2917 40.2293 87.121 40.7983 87.0072 41.3674C86.8886 41.9506 86.8507 42.5575 86.6231 43.0934C86.3955 43.6434 86.3006 44.3025 85.9734 44.7862C85.6463 45.2746 85.101 45.6492 84.6884 46.0617C84.2759 46.4743 83.8159 46.8915 83.3275 47.2235C82.8391 47.5507 82.2559 47.7451 81.7058 47.9727C81.1653 48.1955 80.6342 48.5654 80.0509 48.6792C79.4819 48.793 78.8513 48.4469 78.2491 48.4469C77.6469 48.4469 77.0731 48.5132 76.5041 48.3994C75.9208 48.2809 75.3613 48.1197 74.8207 47.8968C74.2707 47.6692 73.9293 47.1429 73.4409 46.8157C72.9525 46.4885 72.4072 46.2941 71.9899 45.8768C71.5726 45.4595 71.3355 44.9474 71.0083 44.4543C70.6812 43.9659 70.0647 43.6482 69.8371 43.1029C69.6143 42.5623 69.913 41.8842 69.7944 41.301C69.6806 40.732 69.1733 40.2198 69.1733 39.6176C69.1733 39.0154 69.3155 38.4322 69.4293 37.8632C69.5479 37.2799 69.8182 36.7583 70.041 36.2178C70.2686 35.6677 70.482 35.1366 70.8092 34.6482C71.1364 34.1551 71.6153 33.8184 72.0278 33.4011C72.4451 32.9839 72.7913 32.5192 73.2797 32.1872C73.7681 31.8601 74.3039 31.6562 74.8539 31.4286C75.3945 31.2057 75.9351 31.0634 76.5183 30.9449C77.0873 30.8311 77.6421 30.6936 78.2443 30.6936C78.8465 30.6936 79.4298 30.6794 79.9988 30.7932C80.582 30.9117 81.1985 30.9544 81.739 31.182C82.2891 31.4096 82.7538 31.8126 83.2422 32.1398C83.7353 32.467 84.2237 32.8084 84.6363 33.2257C85.0488 33.643 85.4329 34.1029 85.7648 34.5913C86.092 35.0797 86.239 35.663 86.4666 36.2083C86.6895 36.7489 87.1779 37.2278 87.2964 37.811C87.4102 38.38 87.2917 39.0107 87.2917 39.6129V39.6271Z" fill="#8DD0D5"/>
<path d="M54.8863 143.553C54.8863 142.984 54.8436 142.424 54.9005 141.87C54.9574 141.305 55.2087 140.784 55.3225 140.239C55.441 139.684 55.3509 139.082 55.5217 138.55C55.6971 138.015 56.2614 137.64 56.489 137.128C56.7166 136.611 56.8019 136.052 57.0864 135.563C57.371 135.075 57.7835 134.7 58.1154 134.245C58.4473 133.79 58.7413 133.334 59.1159 132.917C59.4905 132.5 59.7988 132.035 60.216 131.656C60.6333 131.281 60.9083 130.717 61.3635 130.385C61.8188 130.053 62.5253 130.124 63.0137 129.845C63.4974 129.565 63.8814 129.114 64.3936 128.882C64.9057 128.654 65.3466 128.218 65.8872 128.043C66.4183 127.872 66.9873 127.753 67.5421 127.635C68.0874 127.521 68.6564 127.402 69.2207 127.341C69.7755 127.284 70.354 127.606 70.923 127.606C71.492 127.606 72.0515 127.478 72.6063 127.535C73.1706 127.592 73.7207 127.701 74.266 127.815C74.8208 127.934 75.3471 128.114 75.8829 128.284C76.4187 128.46 76.8977 128.754 77.4098 128.982C77.9266 129.209 78.4103 129.46 78.894 129.74C79.3824 130.025 79.7048 130.499 80.16 130.831C80.6152 131.163 81.2317 131.253 81.6489 131.632C82.0662 132.007 82.5357 132.334 82.9103 132.751C83.2849 133.169 83.7922 133.496 84.1242 133.951C84.4561 134.406 84.3755 135.122 84.6552 135.611C84.935 136.094 85.2195 136.554 85.4519 137.071C85.6795 137.583 86.3907 137.92 86.5662 138.456C86.7369 138.987 86.7369 139.598 86.8554 140.153C86.9692 140.698 86.8697 141.291 86.9266 141.855C86.9835 142.41 87.0498 142.97 87.0498 143.539C87.0498 144.108 87.0119 144.672 86.955 145.222C86.8981 145.786 86.5425 146.289 86.4287 146.834C86.3101 147.389 86.4808 148.006 86.3101 148.537C86.1347 149.072 86.1157 149.689 85.8881 150.201C85.6605 150.718 85.1342 151.092 84.8544 151.581C84.5699 152.069 84.1289 152.434 83.797 152.89C83.465 153.345 83.2706 153.895 82.8913 154.312C82.5167 154.729 82.0093 155.004 81.5873 155.384C81.17 155.758 80.9851 156.432 80.5299 156.764C80.0747 157.096 79.6858 157.589 79.1974 157.873C78.7138 158.153 78.0973 158.267 77.5805 158.494C77.0684 158.722 76.3286 158.343 75.7881 158.518C75.257 158.689 74.8539 159.319 74.2992 159.438C73.7539 159.552 73.1896 159.723 72.6253 159.779C72.0705 159.836 71.4873 159.49 70.9183 159.49C70.3492 159.49 69.7518 159.945 69.2017 159.889C68.6375 159.832 68.0779 159.59 67.5326 159.476C66.9778 159.357 66.57 158.741 66.0342 158.57C65.4984 158.395 65.0384 158.125 64.5263 157.897C64.0095 157.669 63.4405 157.612 62.9568 157.333C62.4684 157.048 61.8994 156.911 61.4442 156.579C60.9889 156.247 60.6001 155.839 60.1828 155.464C59.7656 155.09 59.3246 154.739 58.9452 154.322C58.5706 153.904 58.0348 153.601 57.7029 153.141C57.371 152.686 57.3852 152.003 57.1007 151.515C56.8209 151.031 56.1665 150.723 55.9389 150.206C55.7113 149.694 55.4458 149.158 55.2703 148.622C55.0996 148.091 54.9337 147.512 54.8199 146.962C54.7061 146.417 55.0949 145.777 55.0332 145.208C54.9763 144.653 54.8815 144.108 54.8815 143.539L54.8863 143.553Z" fill="#F3EBB0"/>
<path d="M41.2488 182.445C41.2488 183.038 41.6756 183.597 41.8226 184.148C41.9744 184.717 42.2968 185.172 42.5861 185.67C42.8801 186.172 42.9607 186.836 43.3686 187.249C43.7764 187.656 44.4497 187.728 44.9524 188.022C45.4503 188.311 45.9245 188.562 46.4888 188.714C47.0389 188.861 47.57 189.088 48.1675 189.088C48.765 189.088 49.3151 188.937 49.8652 188.79C50.4343 188.638 50.861 188.268 51.359 187.984C51.8616 187.69 52.5824 187.69 52.9902 187.282C53.3981 186.874 53.6446 186.291 53.9339 185.788C54.2232 185.29 54.2896 184.707 54.4413 184.143C54.5883 183.593 54.6168 183.057 54.6168 182.459C54.6168 181.862 54.7069 181.293 54.5599 180.748C54.4081 180.179 54.1236 179.686 53.8391 179.188C53.5451 178.685 53.3981 178.05 52.9855 177.642C52.5777 177.234 51.8474 177.243 51.3447 176.954C50.8468 176.665 50.3726 176.49 49.8083 176.338C49.2582 176.191 48.7603 175.849 48.1675 175.849C47.5748 175.849 46.9488 175.721 46.4035 175.868C45.8344 176.02 45.4788 176.651 44.9856 176.94C44.4829 177.234 43.7195 177.187 43.3069 177.594C42.8991 178.002 43.0271 178.818 42.7379 179.32C42.4486 179.818 41.7752 180.136 41.6235 180.705C41.4765 181.255 41.2536 181.867 41.2536 182.459L41.2488 182.445Z" fill="#F3EBB0"/>
<path d="M70.2781 128.654C70.2781 128.062 70.6195 127.587 70.7665 127.042C70.9183 126.473 70.8851 125.909 71.1696 125.411C71.4636 124.908 71.9805 124.667 72.3883 124.259C72.7962 123.851 72.9716 123.211 73.4743 122.917C73.9722 122.628 74.5934 122.746 75.1624 122.594C75.7125 122.447 76.1915 121.916 76.789 121.916C77.3865 121.916 77.9034 122.305 78.4535 122.452C79.0225 122.604 79.6295 122.59 80.1274 122.879C80.6301 123.173 80.8672 123.761 81.2797 124.169C81.6876 124.576 82.1807 124.87 82.4747 125.373C82.764 125.871 83.1386 126.345 83.2904 126.909C83.4374 127.459 83.7598 128.057 83.7598 128.65C83.7598 129.242 83.2287 129.788 83.0817 130.338C82.93 130.907 82.8968 131.514 82.6075 132.012C82.3135 132.514 81.9104 132.955 81.4979 133.363C81.0901 133.771 80.54 133.989 80.0373 134.283C79.5394 134.572 79.0462 134.814 78.4772 134.966C77.9271 135.113 77.3817 135.023 76.7842 135.023C76.1867 135.023 75.6082 135.231 75.0629 135.084C74.4938 134.932 73.9295 134.752 73.4316 134.463C72.9289 134.169 72.3599 133.894 71.9521 133.486C71.5442 133.078 71.4209 132.424 71.1269 131.917C70.8377 131.419 70.8566 130.85 70.7049 130.281C70.5579 129.731 70.2734 129.247 70.2734 128.65L70.2781 128.654Z" fill="#CCE8EB"/>
<path d="M2.97802 159.86C3.05863 159.301 3.49487 158.831 3.65135 158.3C3.80783 157.759 3.83154 157.19 4.05915 156.688C4.29149 156.18 4.4622 155.63 4.76567 155.166C5.06915 154.696 5.51488 154.331 5.87999 153.909C6.24511 153.487 6.78568 153.274 7.2077 152.909C7.62972 152.543 7.94268 152.079 8.41211 151.775C8.88155 151.472 9.36995 151.239 9.87733 151.007C10.38 150.775 10.8589 150.486 11.3947 150.329C11.9258 150.173 12.4948 150.248 13.0543 150.168C13.5996 150.092 14.126 149.641 14.6902 149.641C15.2545 149.641 15.8378 149.698 16.3831 149.774C16.9426 149.855 17.4784 150.092 18.0095 150.248C18.5501 150.405 19.0148 150.742 19.5174 150.974C20.0248 151.206 20.7218 151.13 21.1912 151.429C21.6607 151.733 21.9784 152.283 22.4004 152.648C22.8224 153.013 23.1212 153.501 23.4863 153.923C23.8514 154.345 24.2876 154.715 24.5911 155.185C24.8946 155.654 25.4683 156.01 25.7007 156.517C25.933 157.02 25.7007 157.726 25.8524 158.267C26.0089 158.798 26.3551 159.296 26.4357 159.855C26.5115 160.401 26.5068 160.979 26.5068 161.543C26.5068 162.108 26.1369 162.634 26.0611 163.179C25.9805 163.739 26.1512 164.332 25.9947 164.863C25.8382 165.403 25.6296 165.93 25.3972 166.432C25.1649 166.94 25.1459 167.603 24.8424 168.068C24.539 168.538 24.0268 168.898 23.6617 169.315C23.2966 169.737 22.9789 170.254 22.5569 170.624C22.1349 170.989 21.4426 171.022 20.9731 171.321C20.5037 171.624 20.2287 172.326 19.7213 172.559C19.2187 172.791 18.5121 172.568 17.9716 172.729C17.4405 172.886 16.9141 173.085 16.3594 173.166C15.8141 173.241 15.2545 173.393 14.6855 173.393C14.1165 173.393 13.5522 173.284 13.0069 173.208C12.4474 173.128 11.8499 173.151 11.3188 172.995C10.7783 172.838 10.2851 172.502 9.78249 172.269C9.27512 172.037 8.73455 171.824 8.26512 171.525C7.79568 171.221 7.31676 170.889 6.89474 170.524C6.47272 170.159 6.12183 169.695 5.75671 169.273C5.39159 168.85 5.10708 168.357 4.80361 167.888C4.50013 167.418 4.35314 166.873 4.12079 166.361C3.88844 165.858 3.57074 165.389 3.41426 164.848C3.25778 164.317 3.18666 163.763 3.10605 163.203C3.03018 162.658 2.99224 162.108 2.99224 161.539C2.99224 160.97 2.88792 160.401 2.96379 159.855L2.97802 159.86ZM5.65239 161.543C5.65239 162.146 5.82309 162.715 5.9369 163.284C6.05544 163.867 6.09338 164.474 6.32098 165.01C6.54859 165.56 6.64342 166.219 6.97061 166.702C7.29779 167.196 7.8431 167.565 8.25563 167.983C8.67291 168.4 9.12812 168.813 9.61653 169.144C10.1049 169.472 10.6882 169.666 11.2382 169.894C11.7788 170.117 12.3099 170.486 12.8931 170.6C13.4621 170.714 14.0928 170.368 14.695 170.368C15.2972 170.368 15.871 170.434 16.44 170.32C17.0232 170.202 17.5827 170.041 18.1233 169.818C18.6734 169.59 19.0148 169.064 19.5032 168.737C19.9916 168.41 20.5369 168.215 20.9542 167.798C21.3714 167.381 21.6085 166.868 21.9357 166.375C22.2629 165.887 22.8793 165.569 23.1069 165.024C23.3298 164.483 23.0311 163.805 23.1496 163.222C23.2634 162.653 23.7708 162.141 23.7708 161.539C23.7708 160.936 23.6285 160.353 23.5147 159.784C23.4009 159.201 23.1259 158.679 22.903 158.139C22.6754 157.589 22.462 157.058 22.1349 156.569C21.8077 156.076 21.3288 155.739 20.9162 155.322C20.4989 154.905 20.1528 154.44 19.6644 154.108C19.176 153.781 18.6402 153.577 18.0901 153.35C17.5495 153.127 17.009 152.984 16.4257 152.866C15.8567 152.752 15.3019 152.615 14.6997 152.615C14.0975 152.615 13.5143 152.6 12.9453 152.714C12.362 152.833 11.7456 152.875 11.205 153.103C10.655 153.331 10.1903 153.734 9.70188 154.061C9.20873 154.388 8.72033 154.729 8.30779 155.147C7.89526 155.564 7.51117 156.024 7.17925 156.512C6.85206 157.001 6.70507 157.584 6.47746 158.129C6.2546 158.67 5.76619 159.149 5.64765 159.732C5.53384 160.301 5.65239 160.932 5.65239 161.534V161.543Z" fill="#8DD0D5"/>
<path d="M32.1588 265.474C32.1588 264.905 32.2015 264.346 32.1446 263.791C32.0877 263.226 31.8364 262.705 31.7226 262.16C31.6041 261.605 31.6941 261.003 31.5234 260.471C31.348 259.936 30.7837 259.561 30.5561 259.049C30.3285 258.532 30.2432 257.973 29.9586 257.484C29.6741 256.996 29.2616 256.621 28.9297 256.166C28.5978 255.711 28.3038 255.255 27.9292 254.838C27.5546 254.421 27.2463 253.956 26.8291 253.577C26.4118 253.202 26.1368 252.638 25.6815 252.306C25.2263 251.974 24.5198 252.045 24.0314 251.766C23.5477 251.486 23.1637 251.031 22.6515 250.803C22.1394 250.575 21.6984 250.139 21.1579 249.964C20.6268 249.793 20.0578 249.674 19.503 249.556C18.9577 249.442 18.3887 249.324 17.8244 249.262C17.2696 249.205 16.6911 249.527 16.1221 249.527C15.5531 249.527 14.9935 249.399 14.4388 249.456C13.8745 249.513 13.3244 249.622 12.7791 249.736C12.2243 249.855 11.698 250.035 11.1622 250.205C10.6264 250.381 10.1474 250.675 9.63532 250.903C9.11847 251.13 8.6348 251.381 8.15114 251.661C7.66273 251.946 7.34029 252.42 6.88508 252.752C6.42987 253.084 5.81344 253.174 5.39616 253.553C4.97888 253.928 4.50944 254.255 4.13484 254.672C3.76024 255.09 3.25287 255.417 2.92094 255.877C2.58902 256.332 2.66963 257.048 2.38986 257.536C2.11009 258.02 1.82559 258.48 1.59324 258.997C1.36563 259.509 0.654364 259.846 0.478917 260.381C0.308213 260.912 0.308213 261.524 0.189668 262.074C0.075865 262.62 0.175443 263.212 0.118541 263.777C0.0616396 264.331 -0.00474548 264.891 -0.00474548 265.46C-0.00474548 266.029 0.0331889 266.593 0.0900904 267.143C0.146992 267.707 0.502626 268.21 0.616429 268.755C0.734974 269.31 0.56427 269.927 0.734974 270.458C0.910421 270.994 0.929388 271.61 1.15699 272.122C1.38934 272.639 1.91094 273.014 2.19071 273.502C2.47521 273.99 2.9162 274.355 3.24813 274.811C3.58005 275.266 3.77446 275.816 4.15381 276.233C4.52841 276.65 5.03578 276.925 5.4578 277.305C5.87508 277.679 6.06001 278.353 6.51522 278.685C6.97043 279.017 7.35926 279.51 7.84766 279.794C8.33133 280.074 8.94776 280.188 9.46462 280.415C9.97673 280.643 10.7164 280.264 11.257 280.439C11.7881 280.61 12.1911 281.241 12.7459 281.359C13.2912 281.473 13.8555 281.644 14.4198 281.7C14.9746 281.757 15.5578 281.411 16.1268 281.411C16.6959 281.411 17.2933 281.866 17.8434 281.81C18.4076 281.753 18.9672 281.511 19.5125 281.397C20.0673 281.278 20.4751 280.662 21.0109 280.491C21.5467 280.316 22.0067 280.046 22.5188 279.818C23.0356 279.586 23.6046 279.533 24.0883 279.254C24.5767 278.969 25.1457 278.832 25.6009 278.5C26.0562 278.168 26.445 277.76 26.8623 277.385C27.2795 277.011 27.7205 276.66 28.0999 276.243C28.4745 275.825 29.0103 275.522 29.3422 275.062C29.6741 274.607 29.6599 273.924 29.9444 273.436C30.2242 272.952 30.8786 272.644 31.1062 272.127C31.3338 271.615 31.5993 271.079 31.7748 270.543C31.9455 270.012 32.1114 269.433 32.2252 268.883C32.339 268.338 31.9502 267.698 32.0118 267.129C32.0687 266.574 32.1636 266.029 32.1636 265.46L32.1588 265.474Z" fill="#F3EBB0"/>
<path d="M45.7971 304.361C45.7971 304.954 45.3703 305.514 45.2233 306.064C45.0715 306.633 44.7491 307.088 44.4598 307.586C44.1658 308.089 44.0852 308.752 43.6773 309.165C43.2695 309.573 42.5961 309.644 42.0935 309.938C41.5956 310.227 41.1214 310.478 40.5571 310.63C40.007 310.777 39.4759 311.005 38.8784 311.005C38.2809 311.005 37.7308 310.853 37.1807 310.706C36.6116 310.554 36.1849 310.184 35.6869 309.9C35.1843 309.606 34.4635 309.606 34.0557 309.198C33.6478 308.79 33.4012 308.207 33.112 307.704C32.8227 307.207 32.7563 306.623 32.6046 306.059C32.4576 305.509 32.4291 304.973 32.4291 304.376C32.4291 303.778 32.339 303.209 32.486 302.664C32.6378 302.095 32.9223 301.602 33.2068 301.104C33.5008 300.601 33.6478 299.966 34.0604 299.558C34.4682 299.15 35.1985 299.16 35.7012 298.87C36.1991 298.581 36.6733 298.406 37.2376 298.254C37.7877 298.107 38.2856 297.766 38.8784 297.766C39.4711 297.766 40.0971 297.638 40.6424 297.785C41.2115 297.936 41.5671 298.567 42.0603 298.856C42.563 299.15 43.3264 299.103 43.739 299.511C44.1516 299.918 44.0188 300.734 44.308 301.237C44.5973 301.735 45.2707 302.052 45.4224 302.621C45.5694 303.171 45.7923 303.783 45.7923 304.376L45.7971 304.361Z" fill="#F3EBB0"/>
<path d="M16.768 250.575C16.768 249.983 16.4266 249.508 16.2796 248.963C16.1278 248.394 16.161 247.83 15.8765 247.332C15.5825 246.829 15.0656 246.588 14.6578 246.18C14.25 245.772 14.0745 245.132 13.5718 244.838C13.0739 244.549 12.4527 244.667 11.8837 244.515C11.3336 244.368 10.8546 243.837 10.2571 243.837C9.65961 243.837 9.14273 244.226 8.59265 244.373C8.0236 244.525 7.41661 244.511 6.91869 244.8C6.41603 245.094 6.17893 245.682 5.76636 246.09C5.35855 246.497 4.86537 246.791 4.57136 247.294C4.28209 247.792 3.90747 248.266 3.75572 248.83C3.60872 249.38 3.28625 249.978 3.28625 250.571C3.28625 251.163 3.81737 251.709 3.96437 252.259C4.11612 252.828 4.14931 253.435 4.43858 253.933C4.73259 254.435 5.13567 254.876 5.54823 255.284C5.95605 255.692 6.50613 255.91 7.00879 256.204C7.50671 256.493 7.99989 256.735 8.56894 256.887C9.11902 257.034 9.66436 256.944 10.2619 256.944C10.8594 256.944 11.4379 257.152 11.9832 257.005C12.5523 256.854 13.1166 256.673 13.6145 256.384C14.1172 256.09 14.6862 255.815 15.094 255.407C15.5019 254.999 15.6252 254.345 15.9192 253.838C16.2084 253.34 16.1895 252.771 16.3412 252.202C16.4882 251.652 16.7727 251.168 16.7727 250.571L16.768 250.575Z" fill="#CCE8EB"/>
<path d="M84.072 281.781C83.9914 281.222 83.5551 280.752 83.3987 280.221C83.2422 279.68 83.2185 279.111 82.9909 278.609C82.7585 278.101 82.5878 277.551 82.2843 277.087C81.9809 276.617 81.5351 276.252 81.17 275.83C80.8049 275.408 80.2643 275.195 79.8423 274.83C79.4203 274.464 79.1073 274 78.6379 273.696C78.1685 273.393 77.68 273.16 77.1727 272.928C76.67 272.696 76.1911 272.407 75.6553 272.25C75.1242 272.094 74.5552 272.169 73.9957 272.089C73.4504 272.013 72.924 271.562 72.3598 271.562C71.7955 271.562 71.2122 271.619 70.6669 271.695C70.1074 271.776 69.5716 272.013 69.0405 272.169C68.4999 272.326 68.0352 272.663 67.5326 272.895C67.0252 273.127 66.3282 273.051 65.8588 273.35C65.3893 273.654 65.0716 274.204 64.6496 274.569C64.2276 274.934 63.9289 275.422 63.5637 275.844C63.1986 276.266 62.7624 276.636 62.4589 277.106C62.1554 277.575 61.5817 277.931 61.3493 278.438C61.117 278.941 61.3493 279.647 61.1976 280.188C61.0411 280.719 60.6949 281.217 60.6143 281.776C60.5385 282.322 60.5432 282.9 60.5432 283.464C60.5432 284.029 60.9131 284.555 60.9889 285.1C61.0695 285.66 60.8988 286.253 61.0553 286.784C61.2118 287.324 61.4204 287.851 61.6528 288.353C61.8851 288.861 61.9041 289.524 62.2076 289.989C62.5111 290.459 63.0232 290.819 63.3883 291.236C63.7534 291.658 64.0711 292.175 64.4931 292.545C64.9151 292.91 65.6074 292.943 66.0769 293.242C66.5463 293.545 66.8213 294.247 67.3287 294.48C67.8313 294.712 68.5379 294.489 69.0784 294.65C69.6095 294.807 70.1359 295.006 70.6906 295.087C71.236 295.162 71.7955 295.314 72.3645 295.314C72.9335 295.314 73.4978 295.205 74.0431 295.129C74.6026 295.049 75.2001 295.072 75.7312 294.916C76.2717 294.759 76.7649 294.423 77.2675 294.19C77.7749 293.958 78.3154 293.745 78.7849 293.446C79.2543 293.142 79.7332 292.81 80.1553 292.445C80.5773 292.08 80.9282 291.616 81.2933 291.194C81.6584 290.771 81.9429 290.278 82.2464 289.809C82.5499 289.339 82.6969 288.794 82.9292 288.282C83.1616 287.779 83.4793 287.31 83.6357 286.769C83.7922 286.238 83.8633 285.684 83.944 285.124C84.0198 284.579 84.0578 284.029 84.0578 283.46C84.0578 282.891 84.1621 282.322 84.0862 281.776L84.072 281.781ZM81.3929 283.464C81.3929 284.067 81.2222 284.636 81.1084 285.205C80.9898 285.788 80.9519 286.395 80.7243 286.931C80.4967 287.481 80.4018 288.14 80.0747 288.623C79.7475 289.112 79.2022 289.486 78.7896 289.904C78.3771 290.321 77.9171 290.734 77.4287 291.065C76.9403 291.393 76.3571 291.587 75.807 291.815C75.2665 292.038 74.7354 292.407 74.1522 292.521C73.5831 292.635 72.9525 292.289 72.3503 292.289C71.7481 292.289 71.1743 292.355 70.6053 292.241C70.0221 292.123 69.4625 291.962 68.922 291.739C68.3719 291.511 68.0305 290.985 67.5421 290.658C67.0537 290.33 66.5084 290.136 66.0911 289.719C65.6738 289.302 65.4367 288.789 65.1096 288.296C64.7824 287.808 64.1659 287.49 63.9383 286.945C63.7155 286.404 64.0142 285.726 63.8957 285.143C63.7819 284.574 63.2745 284.062 63.2745 283.46C63.2745 282.857 63.4167 282.274 63.5305 281.705C63.6491 281.122 63.9194 280.6 64.1422 280.06C64.3698 279.51 64.5832 278.979 64.9104 278.49C65.2376 277.997 65.7165 277.66 66.129 277.243C66.5416 276.826 66.8925 276.361 67.3809 276.029C67.8693 275.702 68.4051 275.498 68.9552 275.271C69.4957 275.048 70.0363 274.905 70.6195 274.787C71.1885 274.673 71.7433 274.536 72.3455 274.536C72.9477 274.536 73.531 274.521 74.1 274.635C74.6832 274.754 75.2997 274.796 75.8402 275.024C76.3903 275.252 76.855 275.655 77.3434 275.982C77.8318 276.309 78.3249 276.65 78.7375 277.068C79.15 277.485 79.5341 277.945 79.866 278.433C80.1932 278.922 80.3402 279.505 80.5678 280.05C80.7907 280.591 81.2791 281.07 81.3976 281.653C81.5114 282.222 81.3929 282.853 81.3929 283.455V283.464Z" fill="#8DD0D5"/>
</svg>
